<?xml version="1.0" encoding="UTF-8" standalone="no"?><!DOCTYPE svg PUBLIC "-//W3C//DTD SVG 1.1//EN" "http://www.w3.org/Graphics/SVG/1.1/DTD/svg11.dtd"><svg width="100%" height="100%" viewBox="0 0 457 457" version="1.1" xmlns="http://www.w3.org/2000/svg" xmlns:xlink="http://www.w3.org/1999/xlink" xml:space="preserve" xmlns:serif="http://www.serif.com/" style="fill-rule:evenodd;clip-rule:evenodd;stroke-linejoin:round;stroke-miterlimit:1.41421;"><path d="M152.59,233.55l0,-48.1l4.6,0c3.719,0 6.78,3.061 6.78,6.78l0,21.39c7.37,-6.58 13.65,-9.21 22,-9.38c16,-0.33 30,11.58 31.28,27.56c1.58,19.1 -12.31,33.47 -30.4,33.47c-19.85,0 -34.26,-12.32 -34.26,-31.72Zm11.2,3.78c1.12,9.94 10.62,18.15 20.63,18.31c13,0.2 21.93,-8.3 21.93,-20.89c0,-12.59 -8.68,-20.9 -21.37,-20.9c-13.55,0 -22.73,9.85 -21.19,23.48Z" style="fill:#fff;fill-rule:nonzero;"/><path d="M236.27,205.45l0,8.57c7.16,-8 11.42,-10.09 19.8,-10.09c2.442,0.004 4.879,0.201 7.29,0.59l0,11.38c-2.573,-0.709 -5.231,-1.066 -7.9,-1.06c-6.07,0 -11.17,2 -14.94,5.75c-3.28,3.29 -4.25,5.87 -4.25,11l0,31.69l-11.78,0l0,-57.83l11.78,0Z" style="fill:#fff;fill-rule:nonzero;"/><path d="M266.15,224.57c0.61,-5.63 1.7,-8.68 4.13,-11.62c4.86,-6 13.61,-9 26,-9c9.84,0 17,1.53 22,4.81c4.13,2.7 5.83,6.69 5.83,13.73l0,25.7c0,5.63 1.46,7.63 5.47,7.51c0.894,-0.032 1.785,-0.112 2.67,-0.24l0,7.75c-1.993,0.683 -4.094,1.002 -6.2,0.94c-7.41,0 -10.81,-2.23 -13.11,-8.68c-7.29,6.69 -14.82,9.51 -25.63,9.51c-14.45,0 -23.32,-6.57 -23.32,-17.25c-0.064,-6.084 3.534,-11.645 9.11,-14.08c4.37,-1.88 7,-2.46 19.56,-3.76c10.69,-1.06 12.51,-1.29 15.55,-2.23c3.28,-1.06 4.74,-2.81 4.74,-5.75c0,-6.22 -5.22,-9 -16.16,-9c-10.34,0 -15.66,2 -17.8,7.28c-1.043,2.679 -3.635,4.455 -6.51,4.46l-6.33,-0.08Zm46.77,9.88c-7.504,2.183 -15.21,3.601 -23,4.23c-10.57,1.06 -13.85,3 -13.85,8.33c0,5.87 4.86,8.92 14.45,8.92c7.9,0 13.85,-2 18.1,-5.87c3.4,-3.17 4.25,-5.4 4.25,-10.92l0.05,-4.69Z" style="fill:#fff;fill-rule:nonzero;"/><path d="M360.75,263.29l-3,0c-2.67,0.007 -5.121,-1.514 -6.3,-3.91l-25.52,-53.93l7.08,0c4.115,-0.032 7.878,2.379 9.57,6.13l17,38.82l17.55,-38.95c1.724,-3.687 5.46,-6.039 9.53,-6l6.43,0l-26.07,54c-1.194,2.359 -3.626,3.849 -6.27,3.84Z" style="fill:#fff;fill-rule:nonzero;"/><path d="M401.08,237.71c1.21,11.15 10,18.07 23,18.07c7.38,0 12.88,-2.19 16.35,-6.58c1.993,-2.522 5.036,-3.997 8.25,-4l6.85,0c-6,13.15 -16.64,19.6 -32.55,19.6c-19.92,0 -33.28,-12.09 -33.28,-30.16c0,-18.07 13.73,-30.75 33.53,-30.75c14.33,0 25.87,6.45 30.49,17.25c2.06,4.93 2.92,9.39 2.92,16.54l-55.56,0.03Zm43.48,-8.92c-2.67,-10.21 -10.57,-16 -21.5,-16c-10.93,0 -18.83,5.75 -21.62,16l43.12,0Z" style="fill:#fff;fill-rule:nonzero;"/><path d="M121.67,203.16l-4.4,-11.95l3.06,-6.86c0.393,-0.884 0.201,-1.924 -0.48,-2.61l-8.32,-8.41c-3.639,-3.693 -9.106,-4.962 -14,-3.25l-2.33,0.81l-12.71,-13.77l-21.56,-0.12l-0.14,0l-21.7,0.17l-12.7,13.88l-2.26,-0.8c-4.927,-1.733 -10.435,-0.45 -14.09,3.28l-8.47,8.57c-0.543,0.547 -0.694,1.376 -0.38,2.08l3.19,7.12l-4.38,11.94l2.83,10.77l12.91,49.08c1.487,5.652 4.91,10.608 9.67,14c4.76,3.392 15.67,11.05 31.13,21.09c2.509,2.003 6.101,2.003 8.61,0c17.37,-11.38 31.11,-21.13 31.11,-21.13c4.756,-3.393 8.176,-8.349 9.66,-14l12.84,-49.1l2.91,-10.79Z" style="fill:url(#_Linear1);fill-rule:nonzero;"/><path d="M64.39,245.45c-0.823,-0.368 -1.672,-0.676 -2.54,-0.92l-1.53,0c-0.868,0.244 -1.717,0.552 -2.54,0.92l-3.85,1.6c-1.22,0.51 -3.18,1.42 -4.35,2l-7.08,3.69c-0.555,0.18 -0.933,0.701 -0.933,1.284c0,0.517 0.297,0.991 0.763,1.216l6.15,4.34c1.08,0.76 2.78,2.1 3.78,3l1.73,1.49c1,0.86 2.63,2.29 3.62,3.17l1.64,1.45c1.041,0.868 2.569,0.868 3.61,0l1.72,-1.5l3.62,-3.16l1.74,-1.52c1,-0.87 2.69,-2.21 3.77,-3l6.15,-4.4c0.464,-0.223 0.76,-0.694 0.76,-1.208c0,-0.588 -0.387,-1.111 -0.95,-1.282l-7.07,-3.59c-1.18,-0.6 -3.14,-1.5 -4.37,-2l-3.84,-1.58Z" style="fill:#fff;fill-rule:nonzero;"/><path d="M107.99,205.83l0.2,-0.64c0.012,-0.856 -0.042,-1.712 -0.16,-2.56c-0.595,-1.515 -1.36,-2.957 -2.28,-4.3l-4,-5.87c-0.74,-1.1 -2,-2.84 -2.85,-3.87l-5.36,-6.71c-0.489,-0.654 -1.02,-1.275 -1.59,-1.86l-0.11,0c0,0 -1.08,0.19 -2.38,0.44l-8.19,1.58l-3.59,0.69c-1.192,0.056 -2.383,-0.117 -3.51,-0.51l-6.47,-2.09c-1.26,-0.41 -3.34,-1 -4.63,-1.28c-1.36,-0.144 -2.73,-0.144 -4.09,0c-1.29,0.3 -3.37,0.88 -4.63,1.29l-6.47,2.1c-1.127,0.393 -2.318,0.566 -3.51,0.51l-3.59,-0.68l-8.2,-1.57c-1.3,-0.25 -2.37,-0.45 -2.38,-0.44l-0.11,0c-0.57,0.585 -1.101,1.206 -1.59,1.86l-5.35,6.71c-0.82,1 -2.11,2.78 -2.85,3.87l-4,5.87c-0.691,1.012 -1.322,2.064 -1.89,3.15c-0.343,1.211 -0.524,2.462 -0.54,3.72l0.2,0.64c0.096,0.411 0.22,0.815 0.37,1.21c0.83,1 2.25,2.66 3.16,3.63l14,14.88c0.945,1.104 1.218,2.639 0.71,4l-2.29,5.43c-0.521,1.438 -0.559,3.008 -0.11,4.47l0.46,1.26c0.752,2.046 2.04,3.853 3.73,5.23l2.2,1.79c1.161,0.837 2.674,1.019 4,0.48l7.82,-3.73c1.435,-0.719 2.779,-1.608 4,-2.65l6.26,-5.65c0.527,-0.476 0.828,-1.153 0.828,-1.863c0,-0.647 -0.25,-1.27 -0.698,-1.737l-14.13,-9.52c-1.101,-0.781 -1.469,-2.265 -0.86,-3.47l5.48,-10.3c0.629,-1.273 0.726,-2.745 0.27,-4.09c-0.68,-1.27 -1.779,-2.267 -3.11,-2.82l-17.18,-6.49c-1.24,-0.47 -1.17,-1 0.14,-1.08l10.09,-1c1.582,-0.101 3.171,0.041 4.71,0.42l8.78,2.45c1.283,0.387 2.091,1.677 1.88,3l-3.45,18.84c-0.231,1.043 -0.288,2.118 -0.17,3.18c0.14,0.45 1.32,1 2.61,1.32l5.35,1.14c1.554,0.286 3.146,0.286 4.7,0l4.81,-1.09c1.29,-0.29 2.46,-0.9 2.61,-1.35c0.115,-1.063 0.054,-2.137 -0.18,-3.18l-3.47,-18.84c-0.211,-1.323 0.597,-2.613 1.88,-3l8.78,-2.46c1.539,-0.379 3.128,-0.521 4.71,-0.42l10.09,0.94c1.32,0.12 1.38,0.61 0.15,1.08l-17.17,6.51c-1.331,0.553 -2.43,1.55 -3.11,2.82c-0.455,1.345 -0.358,2.817 0.27,4.09l5.49,10.3c0.609,1.205 0.241,2.689 -0.86,3.47l-14.12,9.54c-0.448,0.467 -0.698,1.09 -0.698,1.737c0,0.71 0.301,1.387 0.828,1.863l6.27,5.65c1.222,1.038 2.565,1.925 4,2.64l7.82,3.72c1.327,0.536 2.841,0.35 4,-0.49l2.2,-1.8c1.692,-1.379 2.98,-3.19 3.73,-5.24l0.46,-1.26c0.449,-1.462 0.411,-3.032 -0.11,-4.47l-2.3,-5.43c-0.508,-1.361 -0.235,-2.896 0.71,-4l14,-14.9c0.91,-1 2.32,-2.6 3.15,-3.63c0.169,-0.383 0.313,-0.778 0.43,-1.18Z" style="fill:#fff;fill-rule:nonzero;"/><defs><linearGradient id="_Linear1" x1="0" y1="0" x2="1" y2="0" gradientUnits="userSpaceOnUse" gradientTransform="matrix(121.59,0,0,121.59,0.04,228.35)"><stop offset="0" style="stop-color:#f1562b;stop-opacity:1"/><stop offset="0.3" style="stop-color:#f1542b;stop-opacity:1"/><stop offset="0.41" style="stop-color:#f04d2a;stop-opacity:1"/><stop offset="0.49" style="stop-color:#ef4229;stop-opacity:1"/><stop offset="0.5" style="stop-color:#ef4029;stop-opacity:1"/><stop offset="0.56" style="stop-color:#e83e28;stop-opacity:1"/><stop offset="0.67" style="stop-color:#e13c26;stop-opacity:1"/><stop offset="1" style="stop-color:#df3c26;stop-opacity:1"/></linearGradient></defs></svg>