<?xml version="1.0" encoding="UTF-8" standalone="no"?><!DOCTYPE svg PUBLIC "-//W3C//DTD SVG 1.1//EN" "http://www.w3.org/Graphics/SVG/1.1/DTD/svg11.dtd"><svg width="100%" height="100%" viewBox="0 0 472 472" version="1.1" xmlns="http://www.w3.org/2000/svg" xmlns:xlink="http://www.w3.org/1999/xlink" xml:space="preserve" xmlns:serif="http://www.serif.com/" style="fill-rule:evenodd;clip-rule:evenodd;stroke-linejoin:round;stroke-miterlimit:1.41421;"><circle cx="236.533" cy="144.9" r="98.3" style="fill:#dfdfdf;fill-opacity:0.8;"/><circle cx="236.333" cy="144.9" r="143.9" style="fill:#dfdfdf;fill-opacity:0.517647;"/><path d="M266.333,196.1c-0.4,3.7 -0.6,7.1 -1,10.6c-0.6,5.1 -1.3,10.3 -2.1,15.4c-0.7,4.6 -1.3,9.1 -2.2,13.6c-1.3,6.8 -2.6,13.7 -4.4,20.4c-1.9,7.3 -4.3,14.5 -8,21.2c-1.9,3.5 -4.2,6.6 -7.4,9c-3.5,2.7 -7.8,1.8 -10.8,-1c-4.6,-4.3 -7.4,-9.7 -9.4,-15.5c-2.4,-6.9 -4.3,-13.9 -6.5,-20.9c-0.2,-0.6 -0.8,-1.3 -1.3,-1.5c-4.5,-1.5 -6.7,-5 -7.1,-9.4c-0.2,-2.6 0.8,-5.3 2.9,-7.1c1.3,-1.2 1.7,-2.2 1.4,-4.2c-1,-6 -1.5,-12.1 -2.3,-18.1c-0.5,-4.2 -1,-8.4 -1.5,-12.8c-2.7,1.2 -5.4,2.5 -8.2,3.7c-9.5,3.9 -19,7.8 -28.6,11.6c-10.1,4 -20.6,6.8 -31.2,8.9c-3.9,0.8 -7.9,1.3 -11.9,1.2c-4.3,-0.1 -8.8,-0.2 -12.6,-3.1c-3.2,-2.5 -3.4,-5.7 -2.6,-9.1c1.3,-5.7 4.4,-10.6 8.1,-14.9c4.8,-5.6 9.7,-11.3 15.1,-16.3c6.6,-6.2 13.7,-11.9 20.7,-17.5c6.7,-5.3 13.7,-10.3 20.6,-15.5c0.2,-0.1 0.3,-0.3 0.5,-0.6c-2.9,-2.1 -5.7,-4.2 -8.6,-6.3c-6,-4.5 -11.9,-9.1 -17.9,-13.5c-0.5,-0.4 -1.4,-0.6 -2,-0.4c-8,2.3 -14.7,-3.6 -13.4,-11.8c0.1,-0.5 -0.1,-1.2 -0.5,-1.5c-3.3,-3.5 -6.7,-6.9 -10,-10.5c-4.9,-5.2 -9.2,-10.8 -11.9,-17.4c-1.3,-3.7 -2.3,-7.6 0.7,-11.1c2.4,-2.9 5.9,-3.7 9.5,-4c10.6,-0.9 20.9,1.4 30.9,4.5c11.2,3.5 22.2,7.6 33.2,11.8c6.6,2.5 12.9,5.6 19.3,8.4c0.3,0.1 0.7,0.2 0.8,0.2c0.8,-6.4 1.6,-12.8 2.4,-19.2c1.5,-13.5 3.7,-26.8 7.3,-39.8c2.6,-9.3 5.3,-18.5 11.1,-26.4c2.3,-3.1 4.9,-6.1 9.3,-6.1c2.4,0 4.3,1.2 5.9,2.7c4.6,4.2 7.2,9.8 9.5,15.4c3.9,9.7 6.3,19.9 8.4,30.1c1.4,6.6 2.2,13.4 3.1,20.1c1,7.6 1.9,15.3 2.9,23.2c2,-0.9 3.9,-1.8 6,-2.6c7,-3 13.9,-6 20.9,-8.9c1.1,-0.4 1.3,-0.9 1.4,-1.9c0.4,-4.3 2.8,-7.7 7.7,-9.1c3.5,-1 8.2,0.7 10.3,3.7c8.1,-1.9 15.9,-4.1 23.9,-5.4c5.9,-1 12,-1.5 18.1,0.2c5.5,1.6 8.1,6.3 6.3,12.2c-1.8,5.8 -5.1,10.7 -9,15.2c-4.4,5.1 -9.1,10.1 -14,14.8c-4.8,4.6 -10,8.9 -15.1,13.1c-6.2,5.1 -12.7,9.9 -19,14.8c-2.5,1.9 -5.2,3.8 -7.8,5.7c3.9,2.9 7.8,5.7 11.6,8.7c5.1,3.9 10,7.8 15.1,11.7c8.7,6.6 16.7,14.2 24.2,22.1c5.1,5.4 9.9,11.1 12.9,18c1.1,2.5 1.8,5.4 1.7,8c-0.2,4.7 -3.8,6.8 -8,7.7c-4.8,1.1 -9.7,0.6 -14.6,0.1c-8,-0.9 -15.8,-2.7 -23.4,-5.3c-12,-4.1 -23.7,-8.7 -35.5,-13.3c-4.2,-1.6 -8.1,-3.6 -12.2,-5.4c-0.7,-0.3 -1.1,-0.4 -1.7,-0.6Zm-61.3,-26.9c0,0 0.1,0 0,0c0.1,-1.3 0.1,-2.6 0.1,-3.8c0,-1.6 -0.4,-2.9 -1.9,-3.8c-6.5,-4.1 -13,-8.4 -19.5,-12.5c-0.5,-0.3 -1.6,-0.3 -2.1,0.1c-7,5.1 -14.1,10 -20.9,15.4c-7.7,6.2 -15.3,12.6 -22.6,19.2c-4.4,4 -8.4,8.4 -12.2,13c-3.4,4.1 -6.7,8.4 -8,13.8c-0.4,1.8 0.1,2.7 1.9,3.2c5.6,1.7 11.3,1 16.7,-0.2c9.4,-2 18.7,-4.6 27.9,-7.5c13.8,-4.3 27,-10.4 40.2,-16.3c1.2,-0.5 1.5,-1.3 1.4,-2.5c-0.4,-6.1 -0.7,-12.1 -1,-18.1Zm62,19.9c4.9,2.2 9.7,4.3 14.6,6.4c14.4,6.4 29.1,11.9 44.4,15.7c8.2,2.1 16.4,4.1 25,2.8c3.8,-0.5 4.4,-1.1 3.5,-4.8c-0.1,-0.5 -0.3,-1.1 -0.6,-1.6c-2.8,-6.3 -7.2,-11.5 -11.8,-16.5c-8.4,-8.9 -17.3,-17.2 -27.1,-24.6c-7.7,-5.9 -15.6,-11.6 -23.3,-17.4c-1.2,-0.9 -2.1,-0.8 -3.3,0c-5.4,3.7 -10.8,7.4 -16.4,10.7c-2.4,1.4 -4.1,2.9 -4.2,5.8c-0.2,7.9 -0.5,15.6 -0.8,23.5Zm-7.1,-95.6c-0.6,-5.1 -1.2,-10.3 -1.9,-15.4c-1.1,-7.8 -2.1,-15.6 -3.4,-23.4c-1.9,-11 -4.4,-21.9 -8.5,-32.4c-1.9,-4.9 -3.9,-9.7 -7.8,-13.5c-1.2,-1.2 -2.3,-1.3 -3.4,0c-1.5,1.8 -3.2,3.6 -4.3,5.7c-5.3,10 -8.2,20.8 -10.4,31.8c-1.4,6.7 -2.7,13.4 -3.8,20.1c-0.8,4.9 -1.2,9.9 -1.8,14.8c-0.4,3.5 -0.7,7 -1.3,10.4c-0.5,3.2 0,4.3 2.8,5.8c6.4,3.3 12.8,6.8 19.3,10c0.6,0.3 1.6,0.1 2.2,-0.2c6.7,-3.3 13.3,-6.8 20,-10.1c1.5,-0.9 2.7,-1.7 2.3,-3.6Zm6.9,5.9c0.2,2.9 0.5,5.6 0.6,8.2c0.2,5 0.3,10 0.5,15.1c0.1,1.9 0.4,3.7 2.4,4.9c6.3,3.8 12.5,7.8 18.7,11.9c1.1,0.7 1.7,0.6 2.5,0c2.1,-1.6 4.3,-3.2 6.4,-4.7c11.8,-8.2 23.1,-17.1 33.5,-26.9c6.1,-5.7 11.5,-12 17,-18.3c2.8,-3.2 5.1,-7 6.2,-11.2c0.5,-1.9 0.1,-2.9 -2,-3.5c-4.5,-1.3 -9,-1 -13.4,-0.2c-7.4,1.4 -14.8,3.4 -22.1,5c-1.9,0.4 -2.5,1.5 -2.9,3.2c-0.8,3.7 -3.4,5.8 -6.7,6.7c-3.3,0.9 -6.6,0.7 -9.2,-1.9c-1.1,-1 -1.9,-0.9 -3.1,-0.4c-9.3,4 -18.8,8 -28.4,12.1Zm-46.2,147.6c2.1,6.6 4,13.3 6.3,19.8c1.7,4.9 3.8,9.6 7.6,13.4c1.4,1.4 2.5,1.3 3.9,-0.1c4.3,-4.4 6.4,-9.9 8.5,-15.5c3.4,-9.2 5.6,-18.6 7.3,-28.2c1.1,-6.1 2,-12.2 3,-18.4c0.5,-3.7 0.9,-7.4 1.3,-11c0.5,-4.2 0.9,-8.5 1.2,-12.8c0,-0.6 -0.6,-1.6 -1.1,-1.9c-7,-3.7 -14.1,-7.3 -21.2,-10.9c-0.5,-0.3 -1.4,-0.3 -1.9,-0.1c-7,3.5 -13.9,7.2 -20.8,10.7c-1.2,0.6 -1.5,1.3 -1.4,2.5c0.4,4.3 0.8,8.7 1.3,13c0.6,5.3 1.6,10.6 2,16c0.2,3 1.1,4.3 4,5.3c3.5,1.2 5.5,4.4 5.9,8.2c0.2,4.2 -1.6,7.5 -5.9,10Zm-66.8,-128c2.5,1.9 4.8,3.8 7.2,5.5c6.8,5 13.7,10.1 20.6,15c0.5,0.3 1.5,0.4 1.9,0.1c6.8,-4.3 13.5,-8.7 20.1,-13.1c0.7,-0.5 1.3,-1.5 1.4,-2.3c0.4,-7.5 0.6,-15 1,-22.4c0.1,-1.7 -0.6,-2.5 -2.1,-3.1c-8.2,-3.5 -16.3,-7.1 -24.6,-10.5c-10.9,-4.6 -22.1,-8.3 -33.6,-11c-4.9,-1.2 -10,-1.7 -15,-2.6c-3.7,-0.7 -7.4,-0.5 -11,0.5c-1.4,0.4 -2.4,1.2 -2,2.7c0.5,1.9 1.2,3.9 2.2,5.6c4.9,8.3 11.4,15.1 18.3,21.7c0.4,0.4 1.6,0.6 2.2,0.3c3.7,-1.7 8.4,-1.1 11.3,1.7c3.2,3.3 3.9,7.2 2.1,11.9Zm57.3,25.2c0,4.2 -0.1,8.4 0.1,12.6c0,1 0.7,2.4 1.5,2.9c7.2,4.3 14.6,8.4 21.8,12.7c1.2,0.7 2.3,0.7 3.5,0c7.6,-4.4 15.2,-8.7 22.8,-13.1c0.6,-0.4 1,-1.6 1,-2.5c0.1,-8.3 0,-16.6 0.1,-25c0,-1.5 -0.5,-2.3 -1.8,-3c-7,-4 -13.8,-8.1 -20.8,-12.1c-1.6,-0.9 -3.1,-1.9 -5.2,-0.6c-7.1,4.3 -14.3,8.3 -21.5,12.5c-1.1,0.6 -1.7,1.5 -1.7,2.9c0.2,4.4 0.2,8.6 0.2,12.7Zm-22.9,0.1c5.6,3.6 10.9,7 16.4,10.6c0,-7.2 0,-14 0,-21.1c-5.5,3.5 -10.8,6.9 -16.4,10.5Zm54.9,32.8c6,3 11.6,5.8 17.4,8.7c0.3,-6.5 0.7,-12.8 1,-19.4c-6.2,3.7 -12.1,7.1 -18.4,10.7Zm0.1,-65.7c6.3,3.6 12.2,7 18.4,10.6c-0.4,-6.6 -0.7,-12.9 -1.1,-19.4c-5.8,3 -11.4,5.8 -17.3,8.8Zm25.2,43.3c5.3,-3.5 10.6,-6.8 16.1,-10.4c-5.6,-3.6 -10.7,-6.9 -16.1,-10.4c0,7 0,13.7 0,20.8Zm-55.9,31.2c5.8,-3 11.3,-5.9 17,-8.8c-6.1,-3.5 -11.9,-6.9 -18,-10.4c0.3,6.5 0.6,12.6 1,19.2Zm0,-83.2c-0.4,6.6 -0.7,12.7 -1,19.2c6.2,-3.6 12,-7 18,-10.4c-5.7,-2.9 -11.2,-5.8 -17,-8.8Z" style="fill:#fbfbfb;fill-rule:nonzero;"/><path d="M172.833,379.2c1.8,1.8 3.3,3.3 5,4.9c-4.1,4 -8.1,8.1 -12.1,12c5.3,11.3 4.5,20 -2.2,26.8c-5.7,5.8 -16.7,8.8 -27.1,2.6c-4,4.1 -8,8.2 -12.1,12.3c-1.7,-1.7 -3.2,-3.3 -4.8,-4.9c4,-4 8.1,-8.1 11.8,-11.8c-1.1,-3.2 -2.5,-5.9 -3,-8.8c-1.5,-8.3 1.1,-15.4 8,-20.4c7.1,-5.1 14.8,-5.3 22.6,-1.4c1.5,0.7 2.3,0.7 3.4,-0.5c3.4,-3.6 7,-7.2 10.5,-10.8Zm-12.2,23c-6.2,6.2 -12.4,12.4 -18.5,18.6c4.9,3 11.2,2.4 15.7,-1.7c4.4,-4.2 5.6,-11.6 2.8,-16.9Zm-23.9,12.5c6.2,-6.1 12.4,-12.3 18.6,-18.4c-4.8,-3.1 -11.2,-2.5 -15.7,1.6c-4.6,4.2 -5.8,11.6 -2.9,16.8Z" style="fill:#fbfbfb;fill-rule:nonzero;"/><path d="M275.633,400.6c-4,5.9 -7.9,11.8 -12.1,18c-4.1,-6.2 -8.1,-12.1 -12.1,-18c-0.1,0 -0.3,0.1 -0.4,0.1c0,9 0,18.1 0,27.3c-2.4,0 -4.6,0 -6.9,0c0,-13 0,-26 0,-39.3c2.3,0 4.6,-0.1 6.9,0.1c0.5,0 1,0.9 1.4,1.4c3.6,5.6 7.2,11.2 11,17.1c0.5,-0.8 1,-1.4 1.4,-2c3.2,-5 6.5,-10 9.7,-15.1c0.7,-1.2 1.5,-1.7 2.9,-1.6c1.8,0.1 3.5,0 5.4,0c0,13.2 0,26.3 0,39.4c-2.2,0 -4.3,0 -6.8,0c0,-9.1 0,-18.2 0,-27.3c0,-0.1 -0.2,-0.1 -0.4,-0.1Z" style="fill:#fbfbfb;fill-rule:nonzero;"/><path d="M306.933,408.6c-0.1,-11.6 8.9,-20.7 20.6,-20.8c11.8,-0.1 20.9,8.7 21,20.3c0.1,11.7 -8.9,20.8 -20.7,20.9c-11.7,0.2 -20.8,-8.7 -20.9,-20.4Zm7.4,-0.2c0,8 5.9,14.3 13.5,14.2c7.4,0 13.3,-6.2 13.4,-14c0.1,-7.9 -6,-14.3 -13.5,-14.4c-7.6,0.1 -13.4,6.2 -13.4,14.2Z" style="fill:#fbfbfb;fill-rule:nonzero;"/><path d="M369.333,422.6c1.4,-1.6 2.6,-3.1 3.6,-4.3c3.4,1.5 6.5,3.2 9.8,4.2c1.9,0.6 4.2,0.3 6.3,-0.1c2.4,-0.5 3.7,-2.2 3.8,-4.3c0.1,-2.3 -1.2,-3.8 -3.2,-4.5c-2.3,-0.9 -4.7,-1.5 -7.1,-2.2c-1.8,-0.6 -3.5,-1 -5.2,-1.7c-4.3,-1.8 -6.6,-4.9 -6.6,-9.7c0,-4.9 2.3,-8.3 6.6,-10.3c6.3,-2.9 15.2,-1.4 21.1,3.7c-1.2,1.7 -2.4,3.3 -3.2,4.6c-3.5,-1.2 -6.7,-2.6 -10,-3.3c-1.6,-0.4 -3.6,0.1 -5.1,0.8c-3.3,1.6 -3.4,5.9 -0.1,7.6c2,1 4.2,1.6 6.4,2.3c2.1,0.7 4.2,1.2 6.3,2c4.8,1.9 7.1,5.2 7.2,9.8c0,5 -2.6,8.9 -7.3,10.8c-7.2,2.7 -18,0.3 -23.3,-5.4Z" style="fill:#fbfbfb;fill-rule:nonzero;"/><path d="M190.433,422.6c1.3,-1.5 2.6,-3.1 3.6,-4.3c3.5,1.5 6.6,3.2 9.9,4.2c2,0.6 4.4,0.2 6.5,-0.2c2.1,-0.4 3.4,-2 3.6,-4.2c0.1,-2.2 -1.1,-3.7 -3,-4.4c-2.4,-0.9 -4.9,-1.5 -7.3,-2.3c-1.8,-0.6 -3.5,-1 -5.2,-1.7c-4.2,-1.7 -6.5,-4.8 -6.6,-9.5c0,-4.9 2.2,-8.3 6.5,-10.4c6.3,-3 15.7,-1.4 21.2,3.6c-1.2,1.6 -2.4,3.3 -3.2,4.5c-3.5,-1.2 -6.7,-2.6 -10.1,-3.3c-1.6,-0.3 -3.7,0.2 -5.3,1c-3.1,1.6 -3.1,5.7 0,7.4c2,1.1 4.2,1.6 6.4,2.3c2.1,0.7 4.2,1.2 6.3,2c4.9,1.9 7.3,5.3 7.3,9.9c0,5 -2.7,8.8 -7.3,10.7c-7.3,2.8 -18.1,0.4 -23.3,-5.3Z" style="fill:#fbfbfb;fill-rule:nonzero;"/><path d="M107.933,394.2c-1.4,1.6 -2.8,3.2 -4.3,5c-4.1,-3.6 -8.6,-5.9 -14.2,-4.5c-3.1,0.8 -5.5,2.5 -7.4,5.1c-4.1,5.6 -3.5,14.3 1.5,19.2c5.2,5.2 12.2,4.8 20.4,-1.4c1.3,1.5 2.7,3 4,4.6c-5.9,8.2 -20.6,9.3 -29,2c-8.9,-7.7 -9.3,-22.4 -0.8,-30.7c8,-7.7 23.1,-7.5 29.8,0.7Z" style="fill:#fbfbfb;fill-rule:nonzero;"/><path d="M379.333,464.2c0,-3 0,-6 0,-9.1c1.1,0 2,0 3,0c0,5.2 0,10.3 0,15.3c-1.7,0.6 -2.8,0.1 -3.8,-1.4c-1.8,-2.7 -3.8,-5.2 -6.1,-8.3c0,3.6 0,6.6 0,9.8c-1.1,0 -2.1,0 -3.1,0c0,-5.1 0,-10.2 0,-15.3c1.7,-0.6 2.8,-0.2 3.7,1.2c1.8,2.7 3.8,5.3 5.8,7.9c0.2,0 0.4,0 0.5,-0.1Z" style="fill:#fbfbfb;fill-rule:nonzero;"/><path d="M156.133,455.1c0,5.3 0,10.3 0,15.3c-1.6,0.5 -2.8,0.2 -3.8,-1.3c-1.8,-2.7 -3.8,-5.3 -6.1,-8.4c0,3.6 0,6.6 0,9.8c-1.2,0 -2.1,0 -3.2,0c0,-4.9 0,-9.8 0,-14.7c0,-0.3 0.6,-0.9 0.9,-0.8c0.8,0.2 1.9,0.3 2.4,0.9c1.8,2.1 3.3,4.4 5,6.6c0.5,0.6 0.9,1.2 1.7,2.2c0,-3.5 0,-6.5 0,-9.6c1.1,0 2.1,0 3.1,0Z" style="fill:#fbfbfb;fill-rule:nonzero;"/><path d="M81.233,455.2c1.8,-0.5 2.8,0 3.7,1.3c1.8,2.7 3.8,5.3 6.1,8.3c0,-3.5 0,-6.5 0,-9.6c1.1,0 2,0 3.1,0c0,5.1 0,10.2 0,15.3c-1.7,0.5 -2.8,0 -3.7,-1.4c-1.8,-2.7 -3.8,-5.2 -6.1,-8.3c0,3.7 0,6.7 0,9.8c-1.1,0 -2,0 -3,0c-0.1,-5.2 -0.1,-10.3 -0.1,-15.4Z" style="fill:#fbfbfb;fill-rule:nonzero;"/><path d="M232.733,470.5c0,-5.2 0,-10.2 0,-15.7c3,0.1 5.8,0.2 8.6,0.5c1.6,0.2 2.9,1.4 2.8,3c-0.1,1.5 -1.1,2.9 -1.7,4.3c1.6,0.5 2.8,1.8 2.5,4.2c-0.2,2.1 -1.6,3.5 -4.3,3.7c-2.5,0.2 -5.2,0 -7.9,0Zm3.3,-2.5c1.3,0 2.7,0.3 3.8,-0.1c0.8,-0.3 1.7,-1.3 1.8,-2.1c0.1,-0.6 -1,-1.7 -1.8,-1.9c-1.2,-0.3 -2.5,-0.1 -3.8,-0.1c0,1.5 0,2.8 0,4.2Zm0,-10.9c0,1.9 0,3.1 0,4.9c1.8,-0.5 3.3,-0.9 4.7,-1.5c0.2,-0.1 0.2,-1.8 0,-1.9c-1.4,-0.7 -2.9,-1 -4.7,-1.5Z" style="fill:#fbfbfb;fill-rule:nonzero;"/><path d="M130.433,465.3c0,1.6 0,3.4 0,5.2c-1.2,0 -2.1,0 -3.1,0c0,-5.2 0,-10.3 0,-15.5c2.5,0 5,-0.1 7.3,0c2.1,0.2 3.8,1.1 4.4,3.4c0.6,2.2 0,4.1 -1.8,5.5c-0.2,0.2 -0.4,0.4 -0.7,0.6c1,1.9 2,3.8 3,5.7c-3.2,0.8 -3.3,0.7 -4.8,-2.1c-0.8,-1.5 -1.1,-4 -4.3,-2.8Zm0.1,-2.2c2,-0.8 3.6,-1.2 5,-2c0.3,-0.2 0.2,-2.2 -0.2,-2.4c-1.4,-0.7 -3,-0.9 -4.8,-1.4c0,2.1 0,3.5 0,5.8Z" style="fill:#fbfbfb;fill-rule:nonzero;"/><path d="M209.833,462.7c0,5 -2.8,8.3 -7.4,8.3c-4.6,0.1 -7.6,-3.1 -7.6,-8.1c0,-5.1 2.8,-8.2 7.4,-8.3c4.6,-0.1 7.6,3.1 7.6,8.1Zm-11.7,-0.4c0.1,1.2 0.1,1.9 0.3,2.5c0.6,1.8 1.5,3.2 3.7,3.3c2,0.1 3.7,-0.9 4,-3.1c0.3,-1.9 0.1,-4 -0.6,-5.7c-1.1,-2.6 -4.9,-2.5 -6.3,0c-0.7,1 -0.9,2.3 -1.1,3Z" style="fill:#fbfbfb;fill-rule:nonzero;"/><path d="M275.533,462.8c0,5 -2.9,8.2 -7.5,8.2c-4.6,0 -7.5,-3.2 -7.5,-8.2c0,-5 2.9,-8.2 7.5,-8.2c4.6,0 7.5,3.2 7.5,8.2Zm-11.7,-0.5c0.1,1.2 0.1,1.9 0.3,2.5c0.6,1.8 1.5,3.2 3.7,3.3c2,0.1 3.7,-0.9 4,-3.1c0.3,-1.9 0.1,-4 -0.6,-5.7c-1.1,-2.6 -4.9,-2.5 -6.3,-0.1c-0.6,1.1 -0.8,2.4 -1.1,3.1Z" style="fill:#fbfbfb;fill-rule:nonzero;"/><path d="M330.633,464.3c0,2.1 0,4.1 0,6.2c-1.1,0 -2,0 -3.1,0c0,-5.1 0,-10.2 0,-15.4c0.9,0 1.9,0 3.1,0c0,2 0,3.9 0,6c2.4,0 4.7,0 7.2,0c0,-2.1 0,-4 0,-6.1c1.1,0 2,0 3,0c0,5.2 0,10.3 0,15.4c-1,0 -1.9,0 -3,0c0,-2 0,-4.1 0,-6.2c-2.5,0.1 -4.7,0.1 -7.2,0.1Z" style="fill:#fbfbfb;fill-rule:nonzero;"/><path d="M300.733,464.2c-1.2,1.2 -1.2,1.2 -1.8,6.3c-0.9,0 -1.9,0 -2.9,0c0,-5.2 0,-10.2 0,-15.4c1,0 1.9,0 3,0c0,2.1 0,4.2 0,6.3c0.2,0.1 0.3,0.2 0.5,0.3c1.3,-1.6 2.8,-3.1 3.9,-4.7c1.2,-1.8 2.7,-2.4 5.1,-1.7c-1.8,2.2 -3.6,4.4 -5.5,6.6c2,2.8 3.9,5.6 5.9,8.6c-2.3,0.5 -4.1,0.4 -5.2,-1.9c-0.8,-1.5 -1.9,-2.8 -3,-4.4Z" style="fill:#fbfbfb;fill-rule:nonzero;"/><path d="M123.433,467.8c0,1.1 0,1.8 0,2.7c-3.4,0 -6.7,0 -10.2,0c0,-5.1 0,-10.2 0,-15.4c3.4,0 6.7,0 10.2,0c0,0.9 0,1.6 0,2.6c-2.2,0 -4.5,0 -6.9,0c0,1.3 0,2.4 0,3.7c2.2,0 4.3,0 6.5,0c0,0.9 0,1.6 0,2.5c-2.1,0 -4.2,0 -6.5,0c0,1.3 0,2.4 0,3.8c2.2,0.1 4.5,0.1 6.9,0.1Z" style="fill:#fbfbfb;fill-rule:nonzero;"/><path d="M160.633,470.5c0,-5.1 0,-10.2 0,-15.4c3.4,0 6.7,0 10.1,0c0,0.8 0,1.6 0,2.6c-2.2,0 -4.4,0 -6.8,0c0,1.3 0,2.4 0,3.7c2.1,0 4.2,0 6.4,0c0,0.9 0,1.6 0,2.5c-2.1,0 -4.2,0 -6.4,0c0,1.3 0,2.4 0,3.8c2.2,0 4.4,0 6.8,0c0,1.1 0,1.9 0,2.8c-3.4,0 -6.7,0 -10.1,0Z" style="fill:#fbfbfb;fill-rule:nonzero;"/><path d="M397.733,459.2c-1.5,0.2 -2.6,0.3 -3.7,-1c-0.6,-0.7 -2.2,-0.7 -3.3,-0.6c-0.5,0 -1.2,1 -1.3,1.6c-0.1,0.4 0.6,1.3 1.2,1.5c1.2,0.5 2.6,0.7 3.9,1.1c2.7,0.8 3.7,2.1 3.7,4.5c-0.1,2.3 -1.4,3.8 -3.9,4.5c-2.3,0.6 -4.6,0.5 -6.5,-0.9c-1,-0.7 -1.6,-2 -2.6,-3.3c2,-0.2 3.3,-0.6 4.4,0.9c0.4,0.6 1.7,1 2.5,0.9c1,-0.2 1.9,-1.1 2.9,-1.7c-0.7,-0.7 -1.4,-1.6 -2.3,-2c-0.9,-0.5 -2.1,-0.5 -3.1,-0.8c-2,-0.6 -3.4,-1.7 -3.5,-4c-0.1,-2.3 1.1,-3.7 3.1,-4.6c3.7,-1.8 7.9,0.1 8.5,3.9Z" style="fill:#fbfbfb;fill-rule:nonzero;"/><path d="M324.033,465.5c-0.7,3.8 -3.6,5.9 -7.5,5.5c-4.2,-0.4 -6.6,-3.6 -6.5,-8.5c0.1,-4.7 2.7,-7.6 6.9,-7.9c3.8,-0.2 6.5,2 7,5.7c-1.5,0.2 -2.8,0.5 -3.9,-1.4c-1.3,-2.2 -4.6,-1.8 -5.8,0.4c-1.2,2.3 -1.2,4.6 0,6.9c1.2,2.3 4.5,2.7 5.9,0.6c1.1,-1.6 2.2,-1.6 3.9,-1.3Z" style="fill:#fbfbfb;fill-rule:nonzero;"/><path d="M292.433,460.3c-1.8,0.4 -2.9,0.2 -4,-1.5c-1.3,-2.1 -4.5,-1.7 -5.7,0.4c-1.3,2.3 -1.3,4.6 -0.1,6.9c1.2,2.4 4.6,2.8 6,0.6c1.1,-1.7 2.3,-1.5 3.8,-1.2c-0.5,3.6 -3.3,5.7 -7.1,5.5c-4.1,-0.3 -6.7,-3.2 -6.8,-7.8c-0.1,-5 2.2,-8.1 6.4,-8.5c4,-0.4 6.8,1.6 7.5,5.6Z" style="fill:#fbfbfb;fill-rule:nonzero;"/><path d="M358.833,470.4c-2.4,0.7 -3.9,0.2 -4.3,-2.3c-0.1,-0.5 -1,-1 -1.6,-1.2c-0.9,-0.2 -1.9,-0.2 -2.7,0c-0.7,0.2 -1.7,0.7 -1.8,1.2c-0.4,2.5 -1.8,2.9 -4.1,2.3c1.7,-4.9 3.3,-9.8 5.2,-14.6c0.2,-0.5 1.6,-0.8 2.5,-0.8c0.7,0 1.7,0.5 1.9,1.1c1.6,4.7 3.2,9.5 4.9,14.3Zm-5.4,-6.1c-0.7,-2.1 -1.2,-3.9 -1.8,-5.7c-0.1,0 -0.3,0.1 -0.4,0.1c-0.6,1.8 -1.1,3.6 -1.7,5.6c1.3,0 2.4,0 3.9,0Z" style="fill:#fbfbfb;fill-rule:nonzero;"/><path d="M216.333,461.9c2.2,0 4.2,0 6.2,0c0,1 0,1.7 0,2.7c-2.1,0 -4,0 -6.2,0c0,2.1 0,3.9 0,5.9c-1.2,0 -2.1,0 -3.2,0c0,-5.1 0,-10.2 0,-15.4c3.4,0 6.6,0 10,0c0,0.9 0,1.7 0,2.7c-2.3,0 -4.4,0 -6.7,0c-0.1,1.4 -0.1,2.6 -0.1,4.1Z" style="fill:#fbfbfb;fill-rule:nonzero;"/><path d="M178.333,470.5c0,-4.3 0,-8.4 0,-12.6c-1.6,0 -3,0 -4.5,0c0,-1 0,-1.8 0,-2.7c4.1,0 8.2,0 12.4,0c0,0.9 0,1.7 0,2.6c-1.5,0 -2.9,0 -4.5,0c0,4.3 0,8.5 0,12.7c-1.2,0 -2.1,0 -3.4,0Z" style="fill:#fbfbfb;fill-rule:nonzero;"/><path d="M101.933,457.8c-1.7,0 -3.1,0 -4.6,0c0,-0.9 0,-1.7 0,-2.6c4.1,0 8.2,0 12.4,0c0,0.8 0,1.6 0,2.6c-1.4,0 -2.9,0 -4.5,0c0,4.4 0,8.5 0,12.7c-1.2,0 -2.1,0 -3.3,0c0,-4.2 0,-8.3 0,-12.7Z" style="fill:#fbfbfb;fill-rule:nonzero;"/><path d="M248.533,455.1c1,0 1.9,0 3,0c0,4.1 0,8.2 0,12.6c2.4,0 4.5,0 6.9,0c0.1,1.1 0.1,1.9 0.2,2.8c-3.4,0 -6.7,0 -10.1,0c0,-5.1 0,-10.2 0,-15.4Z" style="fill:#fbfbfb;fill-rule:nonzero;"/><rect x="361.733" y="455.1" width="2.9" height="15.4" style="fill:#fbfbfb;"/><rect x="73.933" y="455.2" width="3" height="15.4" style="fill:#fbfbfb;"/><path d="M252.933,144.6c0.3,9 -7.8,17.3 -17.5,17.1c-8.7,-0.2 -17,-7.8 -16.8,-17.7c0.2,-8.5 7.9,-17 17.8,-16.6c8.6,0.2 16.9,7.8 16.5,17.2Z" style="fill:#fbfbfb;fill-rule:nonzero;"/></svg>