<?xml version="1.0" encoding="UTF-8" standalone="no"?><!DOCTYPE svg PUBLIC "-//W3C//DTD SVG 1.1//EN" "http://www.w3.org/Graphics/SVG/1.1/DTD/svg11.dtd"><svg width="100%" height="100%" viewBox="0 0 343 343" version="1.1" xmlns="http://www.w3.org/2000/svg" xmlns:xlink="http://www.w3.org/1999/xlink" xml:space="preserve" xmlns:serif="http://www.serif.com/" style="fill-rule:evenodd;clip-rule:evenodd;stroke-linejoin:round;stroke-miterlimit:1.41421;"><g><path d="M167,0c3,0 6,0 9,0c9.9,1.4 19.8,2.2 29.6,4.2c86.6,17.5 150.8,101.4 133.8,197.4c-16.3,92.3 -101.5,152.9 -193.9,139.4c-67.8,-9.9 -124.2,-61.1 -140.3,-127.6c-2.2,-9 -3.5,-18.2 -5.2,-27.3c0,-9.3 0,-18.7 0,-28c1,-6.2 2,-12.4 3.1,-18.6c12.1,-68.6 70,-125.5 138.7,-136.3c8.4,-1.4 16.8,-2.2 25.2,-3.2Zm-40.8,163c0,-10.6 0.2,-20.5 -0.1,-30.4c-0.1,-3.3 1,-5.1 3.7,-6.8c14.9,-9.5 30.8,-16.6 48.4,-18.8c4.7,-0.6 6.7,-2.7 6.4,-7.5c-0.3,-4.1 0,-8.3 -0.1,-12.5c-0.1,-5.9 -1,-6.8 -6.8,-6.3c-20.3,2 -38.8,9 -55.5,20.6c-1.2,0.8 -2.4,1.5 -2.8,1.8c-5.5,-4.3 -10,-8.9 -15.4,-11.9c-26.9,-14.7 -60.5,5.6 -61.1,36.9c-0.3,17.7 -0.1,35.3 -0.1,53c0,7.4 0.6,8 8,8l156,0c0,10.7 -0.2,20.7 0.1,30.7c0.1,3.4 -1.2,5.1 -3.8,6.8c-15.2,9.7 -31.5,16.6 -49.4,19c-3.8,0.5 -5.2,2.2 -5.2,5.8c0.1,5.2 0,10.3 0,15.5c0,3.9 2.2,5.6 5.8,4.9c8.3,-1.6 17,-2.5 24.8,-5.5c12.2,-4.7 23.8,-10.8 36.1,-16.6c0.7,0.7 2.2,2.5 3.9,4.1c9.1,8.8 20,13.5 32.7,11.7c23.5,-3.2 38.2,-20.4 38.3,-44.2c0.1,-16.5 0,-33 0,-49.5c0,-8.3 -0.5,-8.9 -8.7,-8.9c-49.2,0 -98.3,0 -147.5,0c-2,0.1 -4.1,0.1 -7.7,0.1Z" style="fill:#cc1f47;fill-rule:nonzero;"/><path d="M227.9,189.4c13,0 25.1,0 37.6,0c0,12.1 0.9,24.1 -0.3,35.9c-0.9,9.3 -10.5,15.3 -19.8,14.5c-9.2,-0.8 -17.1,-8.4 -17.4,-17.6c-0.3,-10.8 -0.1,-21.6 -0.1,-32.8Z" style="fill:#cc1f47;fill-rule:nonzero;"/><path d="M67.2,162.5c0,-11.3 -0.3,-22.1 0.1,-32.9c0.3,-9.3 8.9,-17 18.2,-17.3c9,-0.2 18.7,6.8 19.3,15.5c0.8,11.4 0.2,22.8 0.2,34.7c-12.6,0 -24.9,0 -37.8,0Z" style="fill:#cc1f47;fill-rule:nonzero;"/></g></svg>