<?xml version="1.0" encoding="UTF-8" standalone="no"?><!DOCTYPE svg PUBLIC "-//W3C//DTD SVG 1.1//EN" "http://www.w3.org/Graphics/SVG/1.1/DTD/svg11.dtd"><svg width="100%" height="100%" viewBox="0 0 614 614" version="1.1" xmlns="http://www.w3.org/2000/svg" xmlns:xlink="http://www.w3.org/1999/xlink" xml:space="preserve" xmlns:serif="http://www.serif.com/" style="fill-rule:evenodd;clip-rule:evenodd;stroke-linejoin:round;stroke-miterlimit:1.41421;"><g><g><path d="M18.109,485.885c14.4,0 22.691,-8.182 22.691,-25.747c0,-17.453 -8.291,-25.088 -22.691,-25.088l-5.453,0l0,50.835l5.453,0Zm-18.109,-61.091l18.981,0c21.819,0 34.8,11.781 34.8,35.344c0,23.676 -12.981,36 -34.144,36l-19.637,0l0,-71.344Z" style="fill:#fff;fill-rule:nonzero;"/><path d="M99.378,464.611c0,-8.509 -3.6,-13.634 -10.91,-13.634c-6.325,0 -11.781,4.69 -12.872,13.634l23.782,0Zm-11.235,-23.344c14.509,0 22.144,10.472 22.144,25.416c0,2.4 -0.216,4.584 -0.544,5.891l-34.037,0c1.09,9.709 7.2,15.165 15.818,15.165c4.582,0 8.51,-1.418 12.438,-3.928l4.253,7.856c-5.125,3.382 -11.563,5.779 -18.328,5.779c-14.835,0 -26.4,-10.363 -26.4,-28.035c0,-17.453 12.109,-28.144 24.656,-28.144" style="fill:#fff;fill-rule:nonzero;"/><path d="M145.63,441.266c6.872,0 12.109,2.728 15.709,6.219l-6,7.963c-2.837,-2.51 -5.672,-3.926 -9.053,-3.926c-8.619,0 -14.619,7.088 -14.619,17.891c0,10.688 5.891,17.781 14.291,17.781c4.363,0 8.072,-2.184 11.019,-4.584l5.234,7.966c-5.016,4.472 -11.453,6.872 -17.562,6.872c-14.619,0 -25.854,-10.254 -25.854,-28.035c0,-17.891 12.547,-28.147 26.835,-28.147" style="fill:#fff;fill-rule:nonzero;"/><path d="M202.466,464.611c0,-8.509 -3.603,-13.634 -10.909,-13.634c-6.328,0 -11.782,4.69 -12.872,13.634l23.781,0Zm-11.237,-23.344c14.512,0 22.146,10.472 22.146,25.416c0,2.4 -0.218,4.584 -0.546,5.891l-34.035,0c1.091,9.709 7.197,15.165 15.819,15.165c4.578,0 8.506,-1.418 12.434,-3.928l4.254,7.856c-5.126,3.382 -11.56,5.779 -18.328,5.779c-14.835,0 -26.398,-10.363 -26.398,-28.035c0,-17.453 12.11,-28.144 24.654,-28.144" style="fill:#fff;fill-rule:nonzero;"/><path d="M225.373,442.576l10.365,0l0.872,7.2l0.435,0c4.802,-4.691 10.256,-8.509 17.565,-8.509c11.453,0 16.472,7.746 16.472,21.272l0,33.597l-12.544,0l0,-31.96c0,-8.837 -2.512,-12.109 -8.403,-12.109c-4.69,0 -7.744,2.29 -12.218,6.653l0,37.416l-12.544,0l0,-53.56Z" style="fill:#fff;fill-rule:nonzero;"/><path d="M288.315,452.503l-7.634,0l0,-9.381l8.29,-0.547l1.526,-14.617l10.474,0l0,14.618l13.635,0l0,9.928l-13.635,0l0,25.526c0,6.327 2.4,9.384 7.526,9.384c1.856,0 4.037,-0.548 5.562,-1.2l2.184,9.272c-2.946,0.981 -6.653,1.962 -10.909,1.962c-12.435,0 -17.019,-7.853 -17.019,-19.418l0,-25.526Z" style="fill:#fff;fill-rule:nonzero;"/><path d="M325.841,442.576l10.365,0l0.872,9.491l0.435,0c3.821,-6.982 9.493,-10.8 15.163,-10.8c2.728,0 4.474,0.328 6.109,1.09l-2.181,10.91c-1.854,-0.547 -3.272,-0.872 -5.563,-0.872c-4.256,0 -9.381,2.944 -12.656,11.016l0,32.725l-12.544,0l0,-53.56Z" style="fill:#fff;fill-rule:nonzero;"/><path d="M381.149,487.629c4.365,0 7.744,-2.181 11.672,-5.89l0,-12c-14.507,1.853 -19.307,5.672 -19.307,11.018c0,4.8 3.16,6.872 7.635,6.872m11.672,-25.744c-0.11,-5.674 -2.507,-10.474 -9.71,-10.474c-5.346,0 -10.362,2.4 -15.053,5.237l-4.581,-8.4c5.89,-3.709 13.416,-6.981 21.928,-6.981c13.416,0 19.962,8.181 19.962,23.128l0,31.741l-10.256,0l-0.981,-5.888l-0.328,0c-4.8,4.035 -10.253,7.2 -16.581,7.2c-9.382,0 -15.926,-6.328 -15.926,-15.709c0,-11.454 9.598,-17.454 31.526,-19.854" style="fill:#fff;fill-rule:nonzero;"/><path d="M420.638,419.122l12.544,0l0,63.925c0,3.056 1.419,4.147 2.728,4.147c0.547,0 0.981,0 1.963,-0.219l1.637,9.381c-1.528,0.656 -3.707,1.091 -6.653,1.091c-8.944,0 -12.219,-5.781 -12.219,-15.053l0,-63.272Z" style="fill:#fff;fill-rule:nonzero;"/><path d="M467.763,487.629c4.365,0 7.744,-2.181 11.672,-5.89l0,-12c-14.507,1.853 -19.307,5.672 -19.307,11.018c0,4.8 3.163,6.872 7.635,6.872m11.672,-25.744c-0.109,-5.674 -2.507,-10.474 -9.709,-10.474c-5.347,0 -10.36,2.4 -15.054,5.237l-4.581,-8.4c5.891,-3.709 13.416,-6.981 21.928,-6.981c13.416,0 19.963,8.181 19.963,23.128l0,31.741l-10.256,0l-0.982,-5.888l-0.328,0c-4.8,4.035 -10.253,7.2 -16.581,7.2c-9.381,0 -15.925,-6.328 -15.925,-15.709c0,-11.454 9.597,-17.454 31.525,-19.854" style="fill:#fff;fill-rule:nonzero;"/><path d="M507.253,442.576l10.362,0l0.875,7.2l0.435,0c4.8,-4.691 10.256,-8.509 17.562,-8.509c11.456,0 16.475,7.746 16.475,21.272l0,33.597l-12.544,0l0,-31.96c0,-8.837 -2.512,-12.109 -8.403,-12.109c-4.69,0 -7.744,2.29 -12.218,6.653l0,37.416l-12.544,0l0,-53.56Z" style="fill:#fff;fill-rule:nonzero;"/><path d="M590.159,487.084c4.147,0 7.635,-1.853 11.237,-6l0,-24.981c-3.712,-3.272 -7.309,-4.472 -10.909,-4.472c-6.872,0 -12.437,6.437 -12.437,17.672c0,11.562 4.365,17.781 12.109,17.781m-2.4,-45.819c6.109,0 9.925,2.294 14.072,5.894l-0.435,-8.619l0,-19.419l12.544,0l0,77.016l-10.365,0l-0.872,-5.781l-0.435,0c-3.928,3.928 -9.384,7.091 -15.165,7.091c-13.416,0 -22.035,-10.363 -22.035,-28.035c0,-17.453 11.019,-28.147 22.691,-28.147" style="fill:#fff;fill-rule:nonzero;"/></g></g><g><path d="M436.878,266.015c0.408,-4.488 0.681,-8.84 0.681,-13.464c0,-72.08 -58.48,-130.56 -130.56,-130.56c-72.081,0 -130.56,58.48 -130.56,130.56c0,0.544 258.399,6.664 260.439,13.464" style="fill:#d6cfc5;fill-rule:nonzero;"/><path d="M175.895,252.824c0,72.079 58.479,130.56 130.56,130.56c72.079,0 123.144,-44.337 130.56,-114.24c0.06,-0.54 -261.12,-20.808 -261.12,-16.32" style="fill:#beb4ae;fill-rule:nonzero;"/><ellipse cx="256.407" cy="182.103" rx="26.111" ry="26.112" style="fill:#ef7e35;"/><path d="M256.406,161.43c-11.42,0 -20.672,9.249 -20.672,20.673c0,11.424 9.252,20.672 20.672,20.672c11.424,0 20.671,-9.248 20.671,-20.672c0,-11.424 -9.384,-20.673 -20.671,-20.673m0,52.224c-17.408,0 -31.553,-14.143 -31.553,-31.551c0,-17.409 14.145,-31.552 31.553,-31.552c17.412,0 31.552,14.143 31.552,31.552c0,17.408 -14.28,31.551 -31.552,31.551" style="fill:#35312e;fill-rule:nonzero;"/><ellipse cx="341.271" cy="195.702" rx="40.934" ry="40.937" style="fill:#ef7e35;"/><path d="M267.968,283.286l33.184,-41.888l7.068,4.08l13.604,5.033l9.657,-5.033l30.871,-32.911l10.74,14.415l5.168,-4.215l6.801,0l17.139,23.935l12.237,-2.04l22.035,25.025" style="fill:#beb4ae;fill-rule:nonzero;"/><path d="M289.727,262.479l-17.952,-9.927l-26.112,6.8l-11.969,-39.576l-21.487,0l-20.673,36.312l-15.096,0.544" style="fill:#beb4ae;fill-rule:nonzero;"/><path d="M230.297,270.095c0,0 -9.792,28.56 -9.792,29.104c0,2.72 4.351,4.896 9.792,4.896c5.436,0 9.787,-2.176 9.787,-4.896c-0.135,-0.408 -9.787,-29.104 -9.787,-29.104" style="fill:#ef7e35;fill-rule:nonzero;"/><path d="M207.719,259.079c0,0 -9.657,28.425 -9.657,28.968c0,2.721 4.353,4.896 9.657,4.896c5.304,0 9.655,-2.175 9.655,-4.896c0,-0.543 -9.655,-28.968 -9.655,-28.968" style="fill:#ef7e35;fill-rule:nonzero;"/><path d="M384.926,262.071c0,11.016 -52.361,11.016 -52.361,0c0,-11.016 11.697,-19.992 26.112,-19.992c14.417,0 26.249,8.84 26.249,19.992" style="fill:#d7a680;fill-rule:nonzero;"/><path d="M411.039,289.271c0,11.016 -52.36,11.016 -52.36,0c0,-11.016 11.695,-19.992 26.112,-19.992c14.551,-0.137 26.248,8.839 26.248,19.992" style="fill:#d7a680;fill-rule:nonzero;"/><path d="M358.68,321.639c0,11.016 -52.36,11.016 -52.36,0c0,-11.016 11.695,-19.992 26.112,-19.992c14.416,0 26.248,8.976 26.248,19.992" style="fill:#d7a680;fill-rule:nonzero;"/><path d="M308.496,377.808c-53.992,0 -100.236,-33.864 -118.593,-81.465c3.672,0 7.481,0.137 11.424,0.137c1.905,0.544 4.08,0.816 6.393,0.816c1.899,0 3.531,-0.137 5.168,-0.545c0.816,0 1.768,0 2.584,0.137c-0.273,0.816 -0.273,1.087 -0.273,1.36c0,6.12 6.528,10.472 15.369,10.472c8.7,0 13.599,-5.441 14.007,-11.288c1.356,0.135 4.212,1.496 5.577,1.632c36.72,3.944 39.168,10.608 39.168,10.88c0.132,0.544 -0.816,3.4 -8.16,8.431c-15.777,10.881 -21.22,17.273 -19.725,24.072c1.773,8.16 12.381,10.2 28.428,13.193c4.488,0.816 9.657,1.903 14.961,2.992c5.847,1.359 11.964,2.583 17.816,3.672c10.879,2.175 21.895,4.352 30.6,7.071c-13.736,5.577 -28.973,8.433 -44.744,8.433" style="fill:#d6cfc5;fill-rule:nonzero;"/><path d="M416.48,238.815l-11.7,2.04l-16.863,-23.391l-5.436,0c3.399,-6.528 5.299,-13.872 5.299,-21.624c0,-25.569 -20.803,-46.377 -46.375,-46.377c-25.565,0 -46.509,20.673 -46.509,46.241c0,21.216 14.416,39.168 33.861,44.743l-0.681,0.681l-6.663,3.399l-10.877,-3.943l-10.747,-6.257l-15.093,19.041l-12.108,-6.664l-23.252,5.983l-11.695,-38.352l-28.565,0l-20.808,36.449l-6.388,0.136c0.816,-68.272 56.709,-123.489 125.121,-123.489c68.947,0 125.115,56.169 125.115,125.121l0,3.944l-15.636,-17.681Zm-63.243,82.145c-1.901,1.36 -8.976,3.535 -20.673,3.535c-11.691,0 -18.764,-2.175 -20.667,-3.535c0.54,-7.616 9.792,-13.872 20.667,-13.872c10.881,0 20.133,6.256 20.673,13.872m31.687,-46.376c10.884,0 20.132,6.255 20.672,13.872c-1.899,1.359 -9.108,3.536 -20.672,3.536c-11.556,0 -18.763,-2.177 -20.671,-3.536c0.547,-7.617 9.795,-13.872 20.671,-13.872m-5.572,-13.329c-1.908,1.361 -9.116,3.537 -20.672,3.537c-11.563,0 -18.772,-2.176 -20.671,-3.537c0.543,-7.615 9.792,-13.872 20.671,-13.872c10.88,0 20.129,6.257 20.672,13.872m-8.295,-46.104l-8.16,-11.016l-25.301,27.065c-17.815,-1.904 -31.687,-17 -31.687,-35.36c0,-19.584 15.915,-35.496 35.496,-35.496c19.587,0 35.496,15.912 35.496,35.496c0,7.071 -2.172,13.736 -5.844,19.311m-5.849,148.104c-10.2,-5.031 -25.704,-8.023 -42.024,-11.287c-5.712,-1.088 -11.695,-2.312 -17.412,-3.536c-5.299,-1.224 -10.468,-2.176 -15.091,-2.992c-7.344,-1.361 -16.185,-3.128 -19.041,-4.76c0.948,-1.497 3.94,-5.032 14.553,-12.24c3.807,-2.584 15.367,-10.473 12.235,-20.536c-2.856,-9.384 -17.68,-15.096 -47.868,-18.36c-2.719,-0.272 -5.575,-0.545 -8.568,-0.816c-1.495,-4.488 -3.672,-10.88 -6.799,-20.129l-5.169,-15.096l-5.168,15.096c-1.771,5.033 -3.127,9.113 -4.351,12.648c-1.361,-4.351 -3.809,-11.424 -8.025,-23.664l-4.76,-15.367l-5.167,15.096c-7.073,20.671 -9.117,26.791 -9.657,29.104l-6.255,0c-2.177,-7.888 -3.672,-16.185 -4.356,-24.616l12.516,-0.408l20.671,-36.176l14.276,0l12.376,40.664l29.105,-7.481l6.667,3.672l-14.148,17.817l8.573,6.8l30.192,-38.216l3.535,2.04l16.32,5.984l7.068,-3.672c-1.36,2.856 -2.176,5.983 -2.176,9.247c0,3.264 2.044,10.2 17.548,12.785c4.896,0.816 8.568,5.032 8.568,10.063l0,17.681c-2.176,-1.496 -4.627,-2.856 -7.344,-3.809l0.137,0c-5.985,-1.903 -11.565,-4.759 -13.329,-10.608c-1.359,4.761 -5.168,7.481 -10.068,9.384c-12.648,3.401 -21.756,12.921 -21.756,24.209c0,4.08 3.129,13.735 31.548,13.735c28.56,0 31.552,-9.655 31.552,-13.735l0,-21.353c1.908,0.681 4.085,1.224 6.665,1.632c4.899,0.816 8.571,5.033 8.571,10.065l0,12.24c0,2.856 2.04,5.439 4.893,5.712c3.267,0.272 5.988,-2.313 5.988,-5.44l0,-12.512c0,-5.032 3.667,-9.249 8.568,-10.065c15.504,-2.583 17.544,-9.384 17.544,-12.783c0,-9.112 -5.985,-17.001 -14.825,-21.489l0.137,0c-0.137,0 -0.273,-0.135 -0.549,-0.135c-1.496,-0.816 -3.26,-1.36 -4.892,-1.905c-2.452,-1.224 -4.627,-2.856 -6.124,-4.896c-0.68,-9.655 -7.884,-17.815 -18.219,-21.759l-0.141,0c-0.675,-0.273 -1.356,-0.408 -2.036,-0.681c-5.167,-1.903 -9.655,-4.759 -11.152,-9.792c-1.635,5.577 -6.392,8.433 -12.512,10.337c-0.412,0.136 -0.955,0.271 -1.36,0.544l17.001,-18.088l10.2,13.735l8.16,-6.528l2.035,0l17.681,24.345l12.511,-2.176l18.36,20.808c-5.98,39.712 -30.871,73.44 -65.412,91.663m-138.588,-65.007c0.816,-2.448 2.18,-6.528 3.677,-11.016c1.491,4.488 2.856,8.568 3.672,11.016c-0.816,0.272 -2.181,0.543 -3.672,0.543c-1.497,0 -2.861,-0.271 -3.677,-0.543m-22.435,-11.56c0.816,-2.448 2.04,-6.392 3.535,-10.608c1.496,4.351 2.852,8.296 3.533,10.744c-2.445,0 -4.757,-0.136 -7.068,-0.136m102.816,90.984c-53.177,0 -98.741,-33.32 -116.825,-80.24c3.536,0 7.344,0.135 11.153,0.135c1.899,0.545 3.939,0.816 6.252,0.816c1.771,0 3.535,-0.135 5.031,-0.543c0.816,0 1.632,0 2.589,0.135c-0.276,0.816 -0.276,1.089 -0.276,1.361c0,5.983 6.396,10.336 15.235,10.336c8.568,0 14.825,-4.08 15.092,-9.792c1.36,0.135 2.856,0.272 4.221,0.408c36.175,3.944 38.619,10.472 38.619,10.743c0.136,0.545 -0.68,3.401 -8.024,8.297c-15.364,10.608 -20.671,16.999 -19.312,23.664c1.636,8.023 12.108,10.063 28.017,13.056c4.488,0.816 9.523,1.768 14.691,2.992c5.712,1.224 11.832,2.448 17.68,3.672c10.604,2.175 21.488,4.352 30.192,6.936c-13.74,5.168 -28.696,8.024 -44.335,8.024m0,-261.121c-74.937,0 -136.001,61.064 -136.001,136.001c0,74.936 61.064,135.999 136.001,135.999c74.931,0 135.999,-61.063 135.999,-135.999c0,-74.937 -61.068,-136.001 -135.999,-136.001" style="fill:#35312e;fill-rule:nonzero;"/></g></svg>