<?xml version="1.0" encoding="UTF-8" standalone="no"?><!DOCTYPE svg PUBLIC "-//W3C//DTD SVG 1.1//EN" "http://www.w3.org/Graphics/SVG/1.1/DTD/svg11.dtd"><svg width="100%" height="100%" viewBox="0 0 372 372" version="1.1" xmlns="http://www.w3.org/2000/svg" xmlns:xlink="http://www.w3.org/1999/xlink" xml:space="preserve" xmlns:serif="http://www.serif.com/" style="fill-rule:evenodd;clip-rule:evenodd;stroke-linejoin:round;stroke-miterlimit:1.41421;"><path d="M273.95,173.937l14.479,0l0,27.18l5.481,0l0,-27.18l14.573,0l0,-4.795l-34.533,0l0,4.795m-25.4,23.296c-8.722,0 -14.295,-4.337 -14.295,-12.104c0,-7.766 5.617,-12.103 14.295,-12.103c8.678,0 14.253,4.337 14.253,12.103c0,7.767 -5.575,12.104 -14.253,12.104m0,-29.051c-12.286,0 -19.87,6.395 -19.87,16.947c0,10.553 7.584,16.947 19.87,16.947c12.288,0 19.872,-6.394 19.872,-16.947c0,-10.552 -7.584,-16.947 -19.872,-16.947m114.722,25.204l-4.044,-5.781l-4.249,2.971l3.889,5.559c-1.943,0.718 -4.205,1.098 -6.74,1.098c-8.723,0 -14.296,-4.337 -14.296,-12.104c0,-7.766 5.617,-12.103 14.296,-12.103c8.68,0 14.255,4.337 14.255,12.103c0,3.462 -1.114,6.237 -3.111,8.257m8.728,-8.257c0,-10.552 -7.585,-16.947 -19.872,-16.947c-12.286,0 -19.871,6.395 -19.871,16.947c0,10.553 7.585,16.947 19.871,16.947c3.695,0 6.952,-0.587 9.718,-1.683l4.207,6.017l4.249,-2.972l-3.945,-5.639c3.623,-2.923 5.643,-7.241 5.643,-12.67m-230.809,2.146l21.836,0l0,-4.795l-21.836,0l0,-8.543l25.946,0l0,-4.795l-31.381,0l0,31.975l31.838,0l0,-4.796l-26.403,0l0,-9.046m175.615,13.842l5.481,0l0,-31.975l-5.481,0l0,31.975Zm-118.935,-13.658l-14.847,-18.317l-5.939,0l0,31.975l5.301,0l0,-24.528l15.211,18.453l0.318,0l15.211,-18.453l0,24.528l5.483,0l0,-31.975l-5.895,0l-14.843,18.317" style="fill:#fff;fill-rule:nonzero;"/><path d="M67.582,171.361l6.913,-9.872l-45.716,0l16.795,24.093l-16.869,24.09l45.79,0l-6.913,-9.87l-19.915,0l9.957,-14.22l-9.957,-14.221l19.915,0Z" style="fill:#fff;fill-rule:nonzero;"/><path d="M93.327,209.673l-41.728,24.092l-41.727,-24.092l0,-48.183l41.727,-24.092l41.728,24.092l0,48.183Zm-41.728,-83.673l-51.599,29.791l0,59.581l51.599,29.791l51.601,-29.791l0,-59.581l-51.601,-29.791Z" style="fill:#fff;fill-rule:nonzero;"/><path d="M47.667,199.802l-6.912,9.87l6.854,0l1.626,-9.87l-1.568,0Z" style="fill:#abb1c1;fill-rule:nonzero;"/><path d="M47.667,171.361l-12.05,0l3.574,5.103l10.094,-2.794l-1.618,-2.309Z" style="fill:#abb1c1;fill-rule:nonzero;"/><path d="M93.327,209.673l-13.411,7.743l5.683,8.118l17.601,-10.162l-9.873,-5.699Z" style="fill:#abb1c1;fill-rule:nonzero;"/><path d="M361.796,200.414c0.002,0 0.006,-0.002 0.008,-0.004c-0.002,0.002 -0.006,0.004 -0.008,0.004m0.024,-0.01l0.028,-0.01l-0.028,0.01m-5.531,-3.552l-0.008,-0.016c0.911,-0.18 1.781,-0.404 2.587,-0.7c-0.806,0.296 -1.668,0.536 -2.579,0.716" style="fill:#acb0c1;fill-rule:nonzero;"/><path d="M358.639,201.38l-2.35,-4.527c0.912,-0.18 1.774,-0.42 2.58,-0.716l2.977,4.257l-0.026,0.01c-0.006,0.002 -0.012,0.004 -0.016,0.006c-0.004,0.002 -0.006,0.002 -0.008,0.004c-0.99,0.388 -2.046,0.71 -3.157,0.966" style="fill:#acb0c1;fill-rule:nonzero;"/><path d="M288.429,177.985l0,-4.047l5.481,0l0,2.366l-5.481,1.681Z" style="fill:#acb0c1;fill-rule:nonzero;"/><path d="M213.127,183.625l0,-7.033l5.483,-6.651l0,4.577l-5.483,9.107Z" style="fill:#acb0c1;fill-rule:nonzero;"/><path d="M201.935,190.166l0.014,-0.016l-0.014,0.016Z" style="fill:#acb0c1;fill-rule:nonzero;"/></svg>