<?xml version="1.0" encoding="UTF-8" standalone="no"?><!DOCTYPE svg PUBLIC "-//W3C//DTD SVG 1.1//EN" "http://www.w3.org/Graphics/SVG/1.1/DTD/svg11.dtd"><svg width="100%" height="100%" viewBox="0 0 246 246" version="1.1" xmlns="http://www.w3.org/2000/svg" xmlns:xlink="http://www.w3.org/1999/xlink" xml:space="preserve" xmlns:serif="http://www.serif.com/" style="fill-rule:evenodd;clip-rule:evenodd;stroke-linejoin:round;stroke-miterlimit:1.41421;"><path d="M188.401,157.975c-0.5,0.4 -1,1 -1.7,1.4c-3.5,1.6 -7,3.1 -10.5,4.7c-17.4,7.8 -34.8,15.6 -52.2,23.5c-2,0.9 -3.7,0.8 -5.7,-0.2c-18.1,-9 -36.2,-18 -54.3,-26.9c-1.5,-0.8 -3.2,-1.4 -4.7,-2.3c-1.9,-1 -2.1,-1.4 -1.5,-3.5c3,-10.7 5.9,-21.4 8.8,-32.1c3.4,-12.5 6.8,-25 10.2,-37.5c2.3,-8.4 4.6,-16.8 6.9,-25.2c0.3,-1.2 0.7,-2.5 0.9,-3.7c0.6,-3.4 2.6,-6 4.5,-8.7c9.7,-14.2 19.3,-28.5 29,-42.7c0.6,-0.9 1.2,-1.9 1.8,-2.7c1.5,-2.1 2.4,-2.1 4,0c1.8,2.4 3.4,4.9 5.1,7.3c9.8,14 19.6,28 29.3,42c1,1.4 1.5,3.2 2,4.9c3,10.9 6,21.9 9,32.8c3.4,12.4 6.9,24.9 10.3,37.3c2.4,8.8 4.9,17.5 7.4,26.3c0.5,1.6 0.9,3.2 1.4,5.3Zm-65.9,-105.4c-0.5,0.8 -0.9,1.2 -1.2,1.6c-2.6,4.3 -5.2,8.6 -7.8,12.9c-4.6,7.7 -9.2,15.5 -13.8,23.2c-0.4,0.7 -0.5,1.8 -0.4,2.6c0.7,3.5 1.6,7 2.5,10.4c3.1,12 6.1,24.1 9.2,36.1c1.3,4.9 2.6,9.8 3.8,14.7c0.3,1.1 0.9,1.6 2,1.5c3.2,-0.1 6.5,-0.1 9.7,0.1c1.4,0.1 2,-0.5 2.4,-1.8c2.1,-7.7 4.3,-15.5 6.5,-23.2c3.1,-11.1 6,-22.2 9.1,-33.3c1.3,-4.7 1.4,-4.8 -1,-9c-6,-10.4 -12.1,-20.9 -18.3,-31.3c-0.7,-1.4 -1.6,-2.8 -2.7,-4.5Zm59.9,103.4c-0.3,-2.1 -33.1,-58.3 -34.7,-59.4c-0.2,0.4 -0.3,0.9 -0.4,1.3c-0.9,3 -1.8,6 -2.6,9.1c-4.1,15 -8.1,30 -12.1,45c-1.2,4.4 -1.2,3.8 3,3.9c14.7,0.2 29.4,0.2 44.2,0.3c0.9,0 1.7,-0.2 2.6,-0.2Zm-120.7,-1.7c0.1,0.2 0.2,0.3 0.4,0.5c1,0.2 2,0.4 3.1,0.4c4.7,0.1 9.4,0.2 14.1,0.3c10.2,0.1 20.3,0.1 30.5,0.1c1.8,0 1.8,-0.1 1.5,-1.9c-0.1,-0.2 -0.1,-0.4 -0.2,-0.7c-1.4,-5.6 -2.8,-11.2 -4.2,-16.8c-2.9,-11.3 -5.8,-22.6 -8.6,-33.9c-0.5,-2 -1.2,-3.9 -1.7,-5.8c-0.2,-0.1 -0.4,-0.1 -0.6,-0.1c-11.6,19.3 -23.4,38.4 -34.3,57.9Zm85.2,-67.9c0.2,-0.1 0.3,-0.1 0.4,-0.1c0.3,-0.9 0.7,-1.7 0.9,-2.6c2.5,-9.5 5.1,-19 7.6,-28.5c0.4,-1.6 0.2,-2.7 -0.7,-4.1c-4.2,-5.9 -8.3,-11.9 -12.4,-17.7c-5.3,-7.6 -10.6,-15.2 -16,-22.8c-0.8,-1.2 -1.8,-2.3 -2.7,-3.4c-0.1,0.1 -0.2,0.1 -0.3,0.2c-0.1,0.5 -0.1,1 -0.1,1.4c0.2,12.7 0.5,25.4 0.8,38.1c0,0.7 0.3,1.5 0.7,2.2c5.7,9.8 11.4,19.7 17.2,29.5c1.5,2.7 3.1,5.3 4.6,7.8Zm-26.4,-78.9c-0.2,-0.1 -0.3,-0.1 -0.5,-0.1c-0.3,0.3 -0.6,0.7 -0.9,1c-3.4,4.8 -6.8,9.7 -10,14.6c-6.4,9.5 -12.6,19.1 -18.9,28.6c-0.7,1 -0.9,1.9 -0.5,3.1c2.5,9.7 4.9,19.3 7.3,29c0.2,0.8 0.5,1.6 1,2.9c1,-1.5 1.8,-2.6 2.5,-3.8c6.4,-11.1 12.9,-22.2 19.2,-33.3c0.5,-0.9 0.9,-2 0.9,-3.1c0.2,-11.5 0.2,-23.1 0.3,-34.6c-0.2,-1.4 -0.4,-2.9 -0.4,-4.3Zm-57,137.3c0.1,0.1 0.2,0.1 0.3,0.2c0.2,-0.2 0.3,-0.4 0.5,-0.6c3.1,-5.1 6.2,-10.1 9.2,-15.1c7,-12 13.9,-24.1 20.9,-36.1c0.8,-1.3 0.9,-2.5 0.5,-3.9c-2.2,-8.5 -4.3,-16.9 -6.5,-25.4c-0.2,-0.9 -0.6,-1.8 -0.9,-2.6c-0.2,0 -0.4,0 -0.6,0c-8,27.8 -15.9,55.6 -23.4,83.5Zm95,-84.9c-0.2,0 -0.4,0.1 -0.5,0.1c-0.2,0.5 -0.4,1 -0.5,1.5c-2.4,8.6 -4.9,17.1 -7.3,25.8c-0.5,1.7 -0.9,3.4 0.2,5.2c9.1,15.4 18.1,30.9 27.2,46.4c0.6,1.1 1.3,2.1 2,3.1c0.2,-0.1 0.3,-0.1 0.4,-0.2c-7.2,-27.3 -14.4,-54.6 -21.5,-81.9Zm18.9,99.4c-0.3,-0.1 -0.6,-0.1 -0.8,-0.1c-14.5,-0.2 -29,-0.4 -43.5,-0.5c-2.3,0 -2.3,0.1 -2.9,2.3c-1.5,5.3 -2.9,10.7 -4.3,16c-0.6,2.3 -1,4.6 -1.5,7c2.4,-0.4 51.3,-23.1 53,-24.7Zm-111.5,-1c2.4,2 50.1,24.9 52.5,25c-0.2,-1.3 -0.2,-2.5 -0.5,-3.7c-1.5,-6.1 -3.1,-12.1 -4.7,-18.2c-0.8,-3 -0.8,-3.1 -4,-3.1c-13,-0.1 -26,-0.2 -38.9,-0.3c-1.4,0 -2.8,0.2 -4.4,0.3Zm61.9,0.3c-4,0 -7.4,0 -10.9,0c-0.9,0 -0.7,0.7 -0.6,1.2c1,4.3 2,8.6 3.1,12.9c0.5,2.3 1.3,4.4 2,6.6c0.2,0 0.3,0 0.5,0.1c2,-6.9 3.9,-13.7 5.9,-20.8Z" style="fill:#f7f7f7;fill-rule:nonzero;"/><path d="M133.801,231.575c-0.4,2.2 -0.7,4.4 -1.4,6.5c-1,3.4 -3.5,5.3 -6.9,6.2c-2.7,0.7 -5.4,0.6 -8.1,-0.2c-2.9,-0.8 -5,-2.5 -6.1,-5.3c-1.9,-4.9 -1.9,-9.8 0.1,-14.7c1,-2.4 2.8,-4 5.2,-4.8c3.2,-1.2 6.4,-1.2 9.6,-0.2c4.3,1.3 6.8,4.8 7.3,10.1c0.1,0.8 0,1.5 0,2.3c0,0.1 0.1,0.1 0.3,0.1Zm-2.1,-0.2c-0.1,0 -0.1,0 -0.2,-0.1c-0.1,-1.1 -0.1,-2.2 -0.3,-3.3c-0.5,-3.1 -1.8,-5.7 -4.9,-7c-2.6,-1.1 -5.4,-1 -8.1,-0.4c-3.1,0.7 -5,2.7 -5.8,5.8c-0.9,3.4 -0.9,6.9 0.1,10.3c0.9,3.2 3,5.2 6.4,5.7c1.8,0.2 3.6,0.2 5.4,0c3.3,-0.4 5.5,-2.4 6.4,-5.6c0.5,-1.6 0.7,-3.5 1,-5.4Z" style="fill:#f7f7f7;fill-rule:nonzero;"/><path d="M69.501,231.575c0,-3.7 0.1,-7.4 0,-11.1c0,-1.2 0.4,-1.6 1.6,-1.6c4.2,0.1 8.5,0 12.7,0c0.7,0 1.5,-0.1 1.4,0.9c0,1 -0.8,0.9 -1.4,0.9c-3.6,0 -7.3,0.1 -10.8,0c-1.2,0 -1.6,0.3 -1.6,1.6c0.1,2.3 0.1,4.6 0,6.9c-0.1,1.1 0.4,1.4 1.4,1.4c3.1,-0.1 6.2,0 9.3,0c0.7,0 1.4,-0.1 1.5,1c0,1 -0.7,1 -1.4,1c-3.1,0 -6.2,0.1 -9.2,0c-1.2,0 -1.6,0.3 -1.6,1.5c0.1,2.4 0.1,4.8 0,7.1c0,1 0.4,1.4 1.4,1.3c3.7,-0.1 7.4,0 11.1,0c0.6,0 1.4,-0.1 1.4,0.9c0.1,1 -0.7,1 -1.4,1c-4.3,0 -8.6,0 -12.9,0.1c-1.2,0 -1.5,-0.4 -1.5,-1.5c0.1,-3.9 0,-7.7 0,-11.4Z" style="fill:#f7f7f7;fill-rule:nonzero;"/><path d="M174.001,221.775c-1.1,-0.3 -2.1,-0.7 -3.2,-1c-2.3,-0.5 -4.6,-0.6 -6.8,0.2c-1.9,0.7 -2.9,2.1 -3,4.1c-0.1,1.9 0.9,3.1 2.6,3.8c2,0.8 4.2,1.4 6.2,2.1c2.6,0.9 4.8,2.2 5.5,5.2c0.8,3.7 -1,6.9 -4.7,8c-3.7,1 -7.3,0.6 -10.8,-0.7c-1,-0.4 -1.4,-1 -0.9,-2.3c0.5,0.2 1,0.3 1.5,0.5c3.3,1.2 6.6,1.5 9.9,0.3c1.7,-0.6 2.8,-1.9 3,-3.7c0.2,-2 -0.5,-3.7 -2.4,-4.6c-1.9,-0.9 -3.8,-1.4 -5.8,-2.1c-0.7,-0.2 -1.3,-0.4 -2,-0.7c-3.1,-1.2 -4.5,-3 -4.4,-5.9c0.1,-3 2,-5.3 4.9,-6.2c3.1,-0.8 6.2,-0.5 9.2,0.6c1.3,0.6 1.6,1.2 1.2,2.4Z" style="fill:#f7f7f7;fill-rule:nonzero;"/></svg>