<?xml version="1.0" encoding="UTF-8" standalone="no"?><!DOCTYPE svg PUBLIC "-//W3C//DTD SVG 1.1//EN" "http://www.w3.org/Graphics/SVG/1.1/DTD/svg11.dtd"><svg width="100%" height="100%" viewBox="0 0 246 246" version="1.1" xmlns="http://www.w3.org/2000/svg" xmlns:xlink="http://www.w3.org/1999/xlink" xml:space="preserve" xmlns:serif="http://www.serif.com/" style="fill-rule:evenodd;clip-rule:evenodd;stroke-linejoin:round;stroke-miterlimit:1.41421;"><path d="M20.055,193.632c-0.411,-4.723 -4.038,-9.035 -9.035,-9.035c-4.997,0 -8.556,4.312 -9.035,9.035l18.07,0Zm2.053,0.937c0.001,0.543 -0.45,0.98 -0.992,0.98l-19.131,0c0.479,4.723 4.038,9.035 9.035,9.035c3.422,0 5.955,-1.301 7.871,-4.039c0.28,-0.373 0.687,-0.618 1.22,-0.392c0.284,0.121 0.492,0.385 0.544,0.689c0.053,0.314 -0.034,0.488 -0.121,0.661c-1.916,3.354 -5.749,4.997 -9.514,4.997c-6.434,0 -11.02,-5.749 -11.02,-11.91c0,-6.16 4.586,-11.909 11.02,-11.909c6.427,0 11.078,5.736 11.088,11.888" style="fill:#fff;fill-rule:nonzero;"/><path d="M45.313,183.16c0.548,0 0.958,0.479 0.958,0.958c0,0.548 -0.41,0.958 -0.958,0.958l-5.134,0l0,20.124c0,0.479 -0.41,0.958 -0.958,0.958c-0.547,0 -0.958,-0.479 -0.958,-0.958l0,-20.124l-4.928,0c-0.548,0 -0.958,-0.41 -0.958,-0.958c0,-0.479 0.41,-0.958 0.958,-0.958l4.928,0l0,-7.368c0,-0.463 0.315,-0.893 0.773,-0.967c0.637,-0.104 1.143,0.335 1.143,0.943l0,7.392l5.134,0Z" style="fill:#fff;fill-rule:nonzero;"/><path d="M76.593,192.879l0,12.184c0,0.547 -0.479,0.958 -0.958,0.958c-0.548,0 -0.959,-0.411 -0.959,-0.958l0,-12.184c0,-4.107 -2.327,-8.214 -6.913,-8.214c-5.886,0 -8.419,5.134 -8.077,10.404c0,0.137 0.069,0.753 0.069,0.822l0,9.147c0,0.464 -0.316,0.893 -0.773,0.968c-0.638,0.104 -1.144,-0.336 -1.144,-0.943l0,-40.042c0,-0.479 0.411,-0.958 0.959,-0.958c0.547,0 0.958,0.479 0.958,0.958l0,22.656c1.643,-2.943 4.586,-4.928 8.008,-4.928c5.613,0 8.83,4.928 8.83,10.13" style="fill:#fff;fill-rule:nonzero;"/><path d="M108.832,193.632c-0.411,-4.723 -4.038,-9.035 -9.035,-9.035c-4.997,0 -8.556,4.312 -9.035,9.035l18.07,0Zm2.053,0.937c0.001,0.543 -0.45,0.98 -0.992,0.98l-19.131,0c0.479,4.723 4.038,9.035 9.035,9.035c3.422,0 5.955,-1.301 7.871,-4.039c0.28,-0.373 0.687,-0.618 1.22,-0.392c0.284,0.121 0.492,0.385 0.544,0.689c0.053,0.314 -0.034,0.488 -0.121,0.661c-1.916,3.354 -5.749,4.997 -9.514,4.997c-6.434,0 -11.02,-5.749 -11.02,-11.91c0,-6.16 4.586,-11.909 11.02,-11.909c6.427,0 11.078,5.736 11.088,11.888" style="fill:#fff;fill-rule:nonzero;"/><path d="M134.363,184.049c0,0.616 -0.342,0.958 -0.89,1.027c-5.613,0.821 -8.145,5.407 -8.145,10.746l0,9.147c0,0.464 -0.315,0.893 -0.773,0.968c-0.637,0.104 -1.143,-0.335 -1.143,-0.943l0,-20.852c0,-0.463 0.315,-0.893 0.772,-0.967c0.638,-0.105 1.144,0.335 1.144,0.942l0,4.244c1.574,-2.669 4.723,-5.202 8.008,-5.202c0.479,0 1.027,0.342 1.027,0.89" style="fill:#fff;fill-rule:nonzero;"/><path d="M163.728,193.632c-0.411,-4.723 -4.038,-9.035 -9.035,-9.035c-4.997,0 -8.556,4.312 -9.035,9.035l18.07,0Zm2.054,0.937c0,0.543 -0.45,0.98 -0.993,0.98l-19.131,0c0.479,4.723 4.038,9.035 9.035,9.035c3.422,0 5.955,-1.301 7.871,-4.039c0.28,-0.373 0.687,-0.618 1.22,-0.392c0.284,0.121 0.492,0.385 0.544,0.689c0.053,0.314 -0.034,0.488 -0.121,0.661c-1.916,3.354 -5.749,4.997 -9.514,4.997c-6.434,0 -11.02,-5.749 -11.02,-11.91c0,-6.16 4.586,-11.909 11.02,-11.909c6.427,0 11.078,5.736 11.089,11.888" style="fill:#fff;fill-rule:nonzero;"/><path d="M196.651,184.291l0,20.909c0,0.548 -0.479,0.958 -0.958,0.958c-0.548,0 -0.958,-0.41 -0.958,-0.958l0,-3.97c-1.575,3.149 -4.381,5.407 -7.94,5.407c-5.681,0 -8.83,-4.928 -8.83,-10.13l0,-12.252c0,-0.479 0.411,-0.958 0.958,-0.958c0.548,0 0.958,0.479 0.958,0.958l0,12.252c0,4.107 2.328,8.214 6.914,8.214c6.434,0 7.94,-6.023 7.94,-12.663l0,-7.803c0,-0.557 0.554,-1.113 1.234,-0.918c0.414,0.119 0.682,0.523 0.682,0.954" style="fill:#fff;fill-rule:nonzero;"/><path d="M245.043,192.811l0,12.252c0,0.548 -0.479,0.958 -0.958,0.958c-0.548,0 -0.958,-0.41 -0.958,-0.958l0,-12.252c0,-4.107 -2.328,-8.145 -6.914,-8.145c-5.749,0 -7.94,6.16 -7.94,10.951l0,9.446c0,0.548 -0.479,0.958 -0.958,0.958c-0.547,0 -0.958,-0.41 -0.958,-0.958l0,-12.252c0,-4.107 -2.327,-8.145 -6.913,-8.145c-5.818,0 -8.214,4.586 -8.009,10.678c0,0.137 0.069,0.41 0,0.479l0,9.215c0,0.464 -0.315,0.893 -0.772,0.968c-0.638,0.104 -1.144,-0.335 -1.144,-0.943l0,-20.92c0,-0.464 0.315,-0.893 0.772,-0.968c0.638,-0.104 1.144,0.335 1.144,0.943l0,3.491c1.643,-2.943 4.586,-4.86 8.009,-4.86c3.901,0 6.913,2.464 8.145,6.092c1.574,-3.559 4.654,-6.092 8.624,-6.092c5.613,0 8.83,4.86 8.83,10.062" style="fill:#fff;fill-rule:nonzero;"/><path d="M122.999,38.5l-31.965,53.038l31.965,18.895l31.965,-18.895l-31.965,-53.038Z" style="fill:#fff;fill-rule:nonzero;"/><path d="M122.521,116.485l-31.965,-18.885l31.965,45.044l31.984,-45.044l-31.984,18.885Z" style="fill:#fff;fill-rule:nonzero;"/></svg>