<?xml version="1.0" encoding="UTF-8" standalone="no"?><!DOCTYPE svg PUBLIC "-//W3C//DTD SVG 1.1//EN" "http://www.w3.org/Graphics/SVG/1.1/DTD/svg11.dtd"><svg width="100%" height="100%" viewBox="0 0 471 471" version="1.1" xmlns="http://www.w3.org/2000/svg" xmlns:xlink="http://www.w3.org/1999/xlink" xml:space="preserve" xmlns:serif="http://www.serif.com/" style="fill-rule:evenodd;clip-rule:evenodd;stroke-linejoin:round;stroke-miterlimit:1.41421;"><g><path d="M128.457,244.1c-5.204,35.28 -38.022,59.66 -73.301,54.456c-35.28,-5.204 -59.66,-38.022 -54.456,-73.3c5.204,-35.28 38.02,-59.66 73.3,-54.458c35.28,5.204 59.66,38.022 54.457,73.301" style="fill:#42c1ca;fill-rule:nonzero;"/><path d="M93.542,195.944c-13.055,-8.257 -22.391,9.921 -22.61,10.473c-2.328,4.54 -4.244,11.49 -5.432,16.672l-17.049,-2.516l-0.668,4.586l16.784,2.476c-0.465,2.398 -0.702,3.94 -0.702,3.94l-0.827,5.053l0.047,0.007l-0.051,0.3l-16.66,-2.457l-0.626,4.591l16.462,2.431c-4.327,21.84 -7.528,28.425 -10.752,32.04c-0.656,0.774 -5.278,3.867 -7.604,-1.666c-1.625,-3.866 -4.708,-3.334 -4.708,-3.334c-0.87,-0.083 -4.915,2.53 1.423,6.54c13.054,8.256 22.391,-9.922 22.61,-10.473c2.327,-4.539 5.43,-16.807 6.619,-21.989l17.113,2.524l0.668,-4.585l-16.849,-2.487c0.465,-2.397 0.703,-3.939 0.703,-3.939l0.826,-5.054l-0.047,-0.007l0.052,-0.3l16.659,2.458l0.626,-4.592l-16.461,-2.428c4.327,-21.84 6.341,-23.11 9.564,-26.725c0.656,-0.773 5.279,-3.867 7.604,1.667c1.625,3.865 4.709,3.333 4.709,3.333c0.87,0.083 4.914,-2.53 -1.423,-6.539" style="fill:#fefefe;fill-rule:nonzero;"/><path d="M199.064,227.836l-28.896,0l0,-23.616l29.856,0l0.672,-7.2l-38.784,0l0,70.08l8.256,0l0,-32.544l28.896,0l0,-6.72Zm19.296,-30.816l-7.872,0l0,9.216l7.872,0l0,-9.216Zm0,18.624l-7.872,0l0,51.456l7.872,0l0,-51.456Zm21.024,-19.296l-7.872,0.864l0,47.904c0,17.088 0.288,22.944 12.96,22.944c0.768,0 2.592,-0.096 5.28,-0.576l-0.48,-6.144c-2.4,0.192 -3.072,0.288 -4.224,0.288c-5.376,0 -5.664,-3.456 -5.664,-14.688l0,-50.592Zm38.4,71.904c-14.688,0 -23.616,-10.464 -23.616,-26.976c0,-15.36 9.216,-26.496 22.656,-26.88c12.768,0 20.736,9.696 20.736,24.864c0,0.768 -0.096,2.688 -0.096,3.552l-35.232,0c0,11.616 6.816,18.72 15.84,18.72c7.296,0 12.672,-2.688 16.32,-5.184l2.4,5.76c-4.224,3.648 -10.752,6.144 -19.008,6.144Zm-15.264,-30.912l27.456,0c0,-10.944 -5.472,-16.512 -13.152,-16.512c-7.776,0 -13.44,6.432 -14.304,16.512Zm81.12,26.208c-3.36,3.168 -8.832,4.704 -13.92,4.704c-16.032,0 -24.768,-12.576 -24.768,-26.88c0.096,-14.208 9.312,-26.976 24.672,-26.976c5.952,0 11.136,1.728 14.016,4.512l-2.016,5.568c-3.936,-2.592 -8.16,-3.552 -12.096,-3.552c-9.408,0 -16.608,8.736 -16.608,20.64c0,11.808 6.912,20.256 17.184,20.256c4.608,0 8.736,-1.824 11.616,-3.84l1.92,5.568Zm45.792,-22.08c0,-10.944 -4.032,-20.544 -15.648,-20.544c-11.04,0 -16.128,10.176 -16.128,20.64c0,10.368 5.088,20.256 16.32,20.256c11.136,0 15.456,-9.888 15.456,-20.352Zm8.16,-0.096c0,14.208 -8.352,26.88 -23.808,26.88c-15.552,0 -24.192,-12 -24.192,-26.784c0,-14.688 8.832,-27.072 24.384,-27.072c15.744,0 23.616,12.192 23.616,26.976Zm18.912,-44.352l-7.872,0l0,9.216l7.872,0l0,-9.216Zm0,18.624l-7.872,0l0,51.456l7.872,0l0,-51.456Zm37.44,-1.248c-7.104,0 -14.304,3.36 -18.336,8.832l-0.672,-7.584l-6.816,0l0.192,12.48l0,38.976l7.872,0l0,-35.136c1.248,-4.608 7.392,-10.848 16.032,-10.848c9.504,0 10.08,6.816 10.08,20.16l0,25.824l7.872,0l0,-30.816c0,-14.4 -4.896,-21.888 -16.224,-21.888Z" style="fill:#fff;"/></g></svg>