<?xml version="1.0" encoding="UTF-8" standalone="no"?><!DOCTYPE svg PUBLIC "-//W3C//DTD SVG 1.1//EN" "http://www.w3.org/Graphics/SVG/1.1/DTD/svg11.dtd"><svg width="100%" height="100%" viewBox="0 0 227 229" version="1.1" xmlns="http://www.w3.org/2000/svg" xmlns:xlink="http://www.w3.org/1999/xlink" xml:space="preserve" xmlns:serif="http://www.serif.com/" style="fill-rule:evenodd;clip-rule:evenodd;stroke-linejoin:round;stroke-miterlimit:1.41421;"><path d="M116.706,58.1c2.4,-2.4 5.2,-4 8.2,-5c-3,-1 -5.8,-2.6 -8.2,-5c-2.4,-2.4 -4,-5.2 -5,-8.2c-1,3 -2.6,5.8 -5,8.2c-2.4,2.4 -5.2,4 -8.2,5c3,1 5.8,2.6 8.2,5c2.4,2.4 4,5.2 5,8.2c1,-3 2.7,-5.8 5,-8.2Z" style="fill:url(#_Linear1);fill-rule:nonzero;"/><path d="M181.206,39.5l-0.4,-1.1l-1,-0.6c-4.4,-2.6 -9.5,-4 -14.6,-4c-7.2,0 -14.1,2.7 -19.5,7.6l-35.9,37.9c-6.5,5.9 -14.9,9.1 -23.6,9.1c-19.4,0 -35.2,-15.8 -35.2,-35.2c0,-19.4 15.8,-35.2 35.2,-35.2c1.3,0 2.7,0.1 4,0.2l7.6,-8c2.6,-2.4 5.3,-4.5 8.3,-6.3c-6.3,-2.6 -13.1,-3.9 -19.9,-3.9c-29.3,0 -53.2,23.9 -53.2,53.2c0,29.3 23.9,53.2 53.2,53.2c13.4,0 26.2,-5 36,-14.1l36.2,-38.1c1.9,-1.6 4.3,-2.4 6.8,-2.4c5.8,0 10.6,4.7 10.7,10.6l0.4,25l5.9,-24.3c0.8,-3.2 1.2,-6.6 1.2,-9.9c0.2,-4.7 -0.6,-9.3 -2.2,-13.7Z" style="fill:url(#_Linear2);fill-rule:nonzero;"/><path d="M137.306,0c-13.4,0 -26.2,5 -36,14.1l-36.2,38c-1.9,1.6 -4.3,2.4 -6.8,2.4c-2.8,0 -5.3,-1.1 -7.2,-2.9c0,0.5 0,1 0,1.4c0,7.1 2.1,13.8 5.8,19.4c0.5,0 1,0 1.5,0c7.2,0 14.1,-2.7 19.5,-7.6l35.9,-37.9c6.5,-5.9 14.9,-9.1 23.6,-9.1c19.4,0 35.2,15.8 35.2,35.2c0,19.4 -15.8,35.2 -35.2,35.2c-1.3,0 -2.7,-0.1 -4,-0.2l-7.6,8c-2.6,2.4 -5.3,4.5 -8.3,6.3c6.3,2.6 13.1,3.9 19.9,3.9c29.3,0 53.2,-23.9 53.2,-53.2c-0.1,-29.2 -23.9,-53 -53.3,-53Z" style="fill:url(#_Linear3);fill-rule:nonzero;"/><g><g opacity="0.9"><path d="M23.506,147.4l-3.8,0c-0.3,-4.3 -2.9,-6.6 -7.7,-6.8c-4.6,0.1 -6.8,2.1 -6.8,5.9c-0.1,2.5 1.1,3.9 3.7,4.3l8.7,2.2c4.5,1.4 6.8,4.4 6.8,9.2c-0.2,6.3 -4.2,9.6 -12,9.8c-4.4,0 -7.5,-1 -9.2,-3c-2.2,-1.8 -3.3,-4.7 -3.2,-8.5l4,0c0,5.2 2.8,7.8 8.3,8c5.3,-0.1 8,-2 8.2,-5.7c0.3,-3.1 -1.9,-5.1 -6.7,-6.1l-6.3,-1.5c-4.3,-1.2 -6.5,-3.9 -6.5,-8.1c0.3,-6.7 3.9,-10.1 10.7,-10.4c7.6,0.1 11.5,3.7 11.8,10.7Z" style="fill:url(#_Linear4);fill-rule:nonzero;"/><path d="M47.206,154.6l0,16.9l-3.7,0l0,-16.1c0.1,-3.8 -1.4,-5.7 -4.5,-5.5c-4.1,0.2 -6.2,3 -6.2,8.1l0,13.5l-3.8,0l0,-33.8l3.9,0l0,12.4l0.2,0c1.7,-2.7 3.8,-4.1 6.5,-4.1c4.9,0.2 7.5,3.1 7.6,8.6Z" style="fill:url(#_Linear5);fill-rule:nonzero;"/><path d="M56.206,154.3l-3.5,0c0.1,-5.4 3.2,-8.2 9.2,-8.3c5.3,0.4 8,2.7 8.2,7l0,14.2c0,1.1 0.4,1.6 1.3,1.5l0.5,0c0.3,-0.1 0.6,-0.2 0.8,-0.2l0,3c-0.2,0 -0.6,0 -1,0c-0.4,0.1 -0.8,0.2 -1.2,0.2c-2.7,0 -3.9,-1.2 -3.8,-3.5c-2.2,2.5 -4.9,3.7 -8.2,3.7c-4.4,-0.2 -6.8,-2.5 -7,-6.8c0,-4.4 2.3,-7 6.8,-7.8l6.2,-0.7c1.3,-0.1 2,-1.1 2,-3c-0.1,-2.6 -1.9,-3.9 -5.3,-4.1c-3.2,0.1 -4.8,1.7 -5,4.8Zm10.1,8.7l0,-4.1c-0.9,0.6 -2.9,1.2 -6.2,1.7c-3.2,0.4 -4.8,1.7 -4.7,3.9c-0.1,2.8 1.2,4.3 3.8,4.3c4.3,-0.4 6.7,-2.3 7.1,-5.8Z" style="fill:url(#_Linear6);fill-rule:nonzero;"/><path d="M80.606,157l0,14.5l-3.8,0l0,-24.8l3.7,0l0,4.3c1.7,-3.3 3.8,-5 6.3,-5c0.1,0 0.3,0.1 0.5,0.2c0.2,0 0.4,0 0.5,0l0,4.4l-1.5,0c-3.6,0.3 -5.4,2.5 -5.7,6.4Z" style="fill:url(#_Linear7);fill-rule:nonzero;"/><path d="M90.106,180.9l0,-34.2l3.5,0l0,3.5l0.2,0l0,-0.2c1.7,-2.7 3.8,-4.1 6.5,-4.1c5.8,0.5 8.9,4.6 9.3,12.4c-0.3,8.8 -3.6,13.2 -9.8,13.5c-2.7,-0.1 -4.6,-1.1 -5.8,-3l-0.2,0l0,12l-3.7,0l0,0.1Zm3.5,-20.5c0.1,5.3 2.2,8.1 6.2,8.3c3.8,-0.1 5.8,-3.3 6,-9.6c0,-6 -2.1,-9.1 -6.2,-9.2c-4,0.1 -6,3.6 -6,10.5Z" style="fill:url(#_Linear8);fill-rule:nonzero;"/><path d="M111.906,141.5l0,-3.9l24.6,0l0,3.9l-10.3,0l0,30l-4,0l0,-30l-10.3,0Z" style="fill:url(#_Linear9);fill-rule:nonzero;"/><path d="M138.606,159.1c0.4,-8.4 3.9,-12.8 10.3,-13.1c6.3,0.4 9.8,4.7 10.3,13.1c-0.6,8.3 -4,12.5 -10.3,12.8c-6.5,-0.3 -9.9,-4.6 -10.3,-12.8Zm3.8,0c0.2,6.2 2.4,9.3 6.5,9.4c4,-0.1 6.2,-3.3 6.5,-9.4c-0.3,-6 -2.5,-9.2 -6.5,-9.4c-4.1,0.2 -6.3,3.3 -6.5,9.4Z" style="fill:url(#_Linear10);fill-rule:nonzero;"/><path d="M173.006,155.9l9,15.5l-4.8,0l-7,-12.6l-3,3.3l0,9.2l-3.7,0l0,-33.8l3.7,0l0,19.6l9.7,-10.5l4.7,0l-8.6,9.3Z" style="fill:url(#_Linear11);fill-rule:nonzero;"/><path d="M200.006,163.7l3.7,0c-0.6,3 -1.9,5.2 -4,6.8c-1.3,0.9 -3.3,1.3 -6,1.3c-6.4,-0.2 -9.8,-4.3 -10,-12c0.2,-9 3.8,-13.6 10.7,-13.9c6.2,0.2 9.4,5.1 9.7,14.6l-16.3,0c0,5.4 2.2,8.1 6.5,8.1c2.9,0 4.8,-1.7 5.7,-4.9Zm-12.3,-6.5l12.5,0c-0.4,-4.9 -2.6,-7.4 -6.3,-7.4c-3.8,0.5 -5.9,3 -6.2,7.4Z" style="fill:url(#_Linear12);fill-rule:nonzero;"/><path d="M226.506,154.6l0,16.9l-3.7,0l0,-15.2c0.1,-4.4 -1.5,-6.6 -4.8,-6.5c-3.9,0.4 -5.8,3.1 -5.8,8.1l0,13.6l-3.8,0l0,-24.8l3.7,0l0,3.5c1.7,-2.7 3.9,-4.1 6.8,-4.3c4.9,0.3 7.4,3.2 7.6,8.7Z" style="fill:url(#_Linear13);fill-rule:nonzero;"/></g></g><g><g opacity="0.9"><g><path d="M33.306,211.1l0,-2.6c2.9,-0.5 4.9,-1.6 6,-3.2l1.7,0l0,-2.2l19.7,0l0,2.2l1.4,0c1.2,1.6 3.2,2.6 6.2,3.2l0,2.5c-5.1,-0.5 -8.5,-2.3 -10.4,-5.4l-3.5,0c3.5,3.8 8.4,6.5 14.7,8.1l0,3c-2,-0.4 -3.8,-0.9 -5.4,-1.6l0,8.2c0.1,3.2 -1.5,4.7 -4.9,4.6l-20.7,0l0,-12.8c-1.7,0.6 -3.5,1.2 -5.5,1.6l0,-3c6.3,-1.7 11.2,-4.4 14.7,-8.1l-3.6,0c-1.8,3.2 -5.2,4.9 -10.4,5.5Zm0.2,-6.3l0,-6.2l13.7,0l0,-6.5l5.1,0l0,2.1l13.7,0l0,2.5l-13.7,0l0,1.9l15.9,0l0,6.2l-4.7,0l0,-3.3l-25.3,0l0,3.3l-4.7,0Zm9.1,10.1l0,2.1l16.4,0l0,-2.1l-16.4,0Zm0,4.2l0,2.2l16.4,0l0,-2.2l-16.4,0Zm0,6.2l14.4,0c1.5,0.1 2.2,-0.5 2.1,-1.7l-16.5,0l0,1.7Zm8.3,-17.1c-1.9,1.6 -3.8,2.9 -5.7,3.9l11.4,0c-1.9,-0.9 -3.7,-2.2 -5.7,-3.9Z" style="fill:url(#_Linear14);fill-rule:nonzero;"/><path d="M73.006,228.4l0,-2.8c2.4,-1.1 3.6,-2.7 3.5,-5.1l0,-13.3l-3.3,0l0,-3.2l8.1,0l0,15.2c0,3.7 1.8,5.5 5.5,5.5l22.7,0l0,3l-23.1,0c-3.3,0.1 -5.5,-0.9 -6.8,-3c-1.3,1.8 -3.5,3 -6.6,3.7Zm4.5,-27.4c-0.4,-2.4 -1.3,-5.1 -2.5,-7.9l4.3,0c1.4,2.4 2.3,5.1 2.8,7.9l-4.6,0Zm31.9,3c-0.8,-0.2 -2,-0.6 -3.5,-1.3c-0.4,-0.1 -0.7,-0.2 -0.9,-0.3l0,2.4l-6.5,0l0,3.8l9.9,0l0,3.2l-9.9,0l0,6.2c0.1,3.5 -1.5,5.2 -4.9,5.1l-3.5,0l0,-3.2l1.6,0c1.5,0.1 2.2,-0.6 2.1,-2.1l0,-6l-10.3,0l0,-3.3l10.3,0l0,-3.8l-6.6,0l0,-2.2c-1.2,0.4 -2.5,0.9 -4.1,1.4l0,-2.8c5.1,-2.1 8.6,-5.1 10.6,-8.8l5.1,0c2.2,3.9 5.8,6.8 10.7,8.7l0,3l-0.1,0Zm-26.2,18.1l0,-2.8c2.4,-1.5 3.8,-3.5 4.3,-6.2l4.3,0c-1.2,4.5 -4,7.5 -8.6,9Zm13,-25.6c-1.9,2.1 -4.3,3.8 -7.1,5.2l14.4,0c-2.7,-1.1 -5.1,-2.8 -7.3,-5.2Zm12.3,25.5c-4.5,-1.5 -7.2,-4.4 -7.9,-8.8l3.8,0c0.4,2.5 1.8,4.6 4.1,6.3l0,2.5Z" style="fill:url(#_Linear15);fill-rule:nonzero;"/><path d="M113.406,209.3c2.2,-2.9 3.6,-6 4.3,-9.2l4.1,0c-0.5,3.5 -1.6,6.5 -3.3,9.2l-5.1,0Zm0.5,19.1l0,-3c10.5,-1.3 15.6,-4.2 15.3,-8.7l0,-1.7l5.2,0l0,1.7c-0.3,4.3 4.6,7.3 14.8,8.8l0,2.8c-7.8,-0.6 -13.6,-2.4 -17.4,-5.2c-3.4,3 -9.4,4.7 -17.9,5.3Zm4.1,-6.8l0,-11.5l27.5,0l0,11.5l-4.9,0l0,-8.4l-17.7,0l0,8.4l-4.9,0Zm4.5,-12.3l0,-2.5c7.3,-1.5 10.9,-3.9 10.9,-7.4l0,-0.9l5.1,0l0,1.1c0.1,3.3 3.8,5.7 11.2,7.3l0,2.7c-6.3,-0.6 -10.9,-2.3 -13.7,-4.9c-3,2.6 -7.5,4.2 -13.5,4.6Zm21.5,-8.2l0,-3.8l-13.3,0c-1.6,1.7 -4.1,2.9 -7.6,3.8l0,-2.5c3.1,-1.4 4.8,-3.5 5.4,-6.5l4.7,0c-0.1,0.2 -0.2,0.5 -0.3,0.9c-0.2,0.6 -0.4,1.1 -0.5,1.3l15.9,0l0,6.8l-4.3,0Z" style="fill:url(#_Linear16);fill-rule:nonzero;"/><path d="M190.106,223.5c-8.1,-5.3 -12.5,-12.6 -13.1,-22.1l-2.4,0l0,17.1l7.3,0l0,3.5l-7.3,0l0,6.8l-5.2,0l0,-6.8l-7.3,0l0,-3.5l7.3,0l0,-17.1l-2.2,0c-0.6,9.5 -5,16.8 -13.1,22.1l0,-3.6c4.8,-4.8 7.6,-11 8.2,-18.5l-7.3,0l0,-3.5l14.4,0l0,-5.7l5.2,0l0,5.7l14.5,0l0,3.5l-7.2,0c0.5,7.3 3.3,13.4 8.2,18.5l0,3.6Z" style="fill:url(#_Linear17);fill-rule:nonzero;"/></g><path d="M119.606,192.1c-1.9,0 -3.5,1.6 -3.5,3.5c0,1.9 1.6,3.5 3.5,3.5c1.9,0 3.5,-1.6 3.5,-3.5c0,-1.9 -1.6,-3.5 -3.5,-3.5Zm0.9,4.4c-0.4,0.4 -0.7,0.9 -0.9,1.5c-0.2,-0.5 -0.5,-1 -0.9,-1.5c-0.4,-0.4 -0.9,-0.7 -1.5,-0.9c0.5,-0.2 1.1,-0.5 1.5,-0.9c0.4,-0.4 0.7,-0.9 0.9,-1.5c0.2,0.5 0.5,1.1 0.9,1.5c0.4,0.4 0.9,0.7 1.5,0.9c-0.6,0.2 -1.1,0.5 -1.5,0.9Z" style="fill:url(#_Linear18);fill-rule:nonzero;"/></g></g><defs><linearGradient id="_Linear1" x1="0" y1="0" x2="1" y2="0" gradientUnits="userSpaceOnUse" gradientTransform="matrix(26.3056,0,0,26.3056,98.601,53.1568)"><stop offset="0" style="stop-color:#ba8237;stop-opacity:0.9"/><stop offset="0.15" style="stop-color:#c7913d;stop-opacity:0.9"/><stop offset="0.3" style="stop-color:#d2a14e;stop-opacity:0.9"/><stop offset="0.5" style="stop-color:#daae5c;stop-opacity:0.9"/><stop offset="0.68" style="stop-color:#e6c471;stop-opacity:0.9"/><stop offset="0.85" style="stop-color:#f8e08c;stop-opacity:0.9"/><stop offset="1" style="stop-color:#efe99f;stop-opacity:0.9"/></linearGradient><linearGradient id="_Linear2" x1="0" y1="0" x2="1" y2="0" gradientUnits="userSpaceOnUse" gradientTransform="matrix(-131.407,10.3742,-10.3742,-131.407,165.165,46.9201)"><stop offset="0" style="stop-color:#ba8237;stop-opacity:1"/><stop offset="0.15" style="stop-color:#c7913d;stop-opacity:1"/><stop offset="0.3" style="stop-color:#d2a14e;stop-opacity:1"/><stop offset="0.5" style="stop-color:#daae5c;stop-opacity:1"/><stop offset="0.68" style="stop-color:#e6c471;stop-opacity:1"/><stop offset="0.85" style="stop-color:#f8e08c;stop-opacity:1"/><stop offset="1" style="stop-color:#efe99f;stop-opacity:1"/></linearGradient><linearGradient id="_Linear3" x1="0" y1="0" x2="1" y2="0" gradientUnits="userSpaceOnUse" gradientTransform="matrix(114.115,-39.1907,39.1907,114.115,67.7551,77.0458)"><stop offset="0" style="stop-color:#ba8237;stop-opacity:1"/><stop offset="0.15" style="stop-color:#c7913d;stop-opacity:1"/><stop offset="0.3" style="stop-color:#d2a14e;stop-opacity:1"/><stop offset="0.5" style="stop-color:#daae5c;stop-opacity:1"/><stop offset="0.68" style="stop-color:#e6c471;stop-opacity:1"/><stop offset="0.85" style="stop-color:#f8e08c;stop-opacity:1"/><stop offset="1" style="stop-color:#efe99f;stop-opacity:1"/></linearGradient><linearGradient id="_Linear4" x1="0" y1="0" x2="1" y2="0" gradientUnits="userSpaceOnUse" gradientTransform="matrix(-215.545,10.3741,-10.3741,-215.545,224.782,144.119)"><stop offset="0" style="stop-color:#ba8237;stop-opacity:1"/><stop offset="0.15" style="stop-color:#c7913d;stop-opacity:1"/><stop offset="0.3" style="stop-color:#d2a14e;stop-opacity:1"/><stop offset="0.5" style="stop-color:#daae5c;stop-opacity:1"/><stop offset="0.68" style="stop-color:#e6c471;stop-opacity:1"/><stop offset="0.85" style="stop-color:#f8e08c;stop-opacity:1"/><stop offset="1" style="stop-color:#efe99f;stop-opacity:1"/></linearGradient><linearGradient id="_Linear5" x1="0" y1="0" x2="1" y2="0" gradientUnits="userSpaceOnUse" gradientTransform="matrix(-215.564,10.3751,-10.3751,-215.564,224.868,145.553)"><stop offset="0" style="stop-color:#ba8237;stop-opacity:1"/><stop offset="0.15" style="stop-color:#c7913d;stop-opacity:1"/><stop offset="0.3" style="stop-color:#d2a14e;stop-opacity:1"/><stop offset="0.5" style="stop-color:#daae5c;stop-opacity:1"/><stop offset="0.68" style="stop-color:#e6c471;stop-opacity:1"/><stop offset="0.85" style="stop-color:#f8e08c;stop-opacity:1"/><stop offset="1" style="stop-color:#efe99f;stop-opacity:1"/></linearGradient><linearGradient id="_Linear6" x1="0" y1="0" x2="1" y2="0" gradientUnits="userSpaceOnUse" gradientTransform="matrix(-215.553,10.3744,-10.3744,-215.553,225.127,151.141)"><stop offset="0" style="stop-color:#ba8237;stop-opacity:1"/><stop offset="0.15" style="stop-color:#c7913d;stop-opacity:1"/><stop offset="0.3" style="stop-color:#d2a14e;stop-opacity:1"/><stop offset="0.5" style="stop-color:#daae5c;stop-opacity:1"/><stop offset="0.68" style="stop-color:#e6c471;stop-opacity:1"/><stop offset="0.85" style="stop-color:#f8e08c;stop-opacity:1"/><stop offset="1" style="stop-color:#efe99f;stop-opacity:1"/></linearGradient><linearGradient id="_Linear7" x1="0" y1="0" x2="1" y2="0" gradientUnits="userSpaceOnUse" gradientTransform="matrix(-215.561,10.3748,-10.3748,-215.561,225.168,151.891)"><stop offset="0" style="stop-color:#ba8237;stop-opacity:1"/><stop offset="0.15" style="stop-color:#c7913d;stop-opacity:1"/><stop offset="0.3" style="stop-color:#d2a14e;stop-opacity:1"/><stop offset="0.5" style="stop-color:#daae5c;stop-opacity:1"/><stop offset="0.68" style="stop-color:#e6c471;stop-opacity:1"/><stop offset="0.85" style="stop-color:#f8e08c;stop-opacity:1"/><stop offset="1" style="stop-color:#efe99f;stop-opacity:1"/></linearGradient><linearGradient id="_Linear8" x1="0" y1="0" x2="1" y2="0" gradientUnits="userSpaceOnUse" gradientTransform="matrix(-215.548,10.3743,-10.3743,-215.548,225.418,157.234)"><stop offset="0" style="stop-color:#ba8237;stop-opacity:1"/><stop offset="0.15" style="stop-color:#c7913d;stop-opacity:1"/><stop offset="0.3" style="stop-color:#d2a14e;stop-opacity:1"/><stop offset="0.5" style="stop-color:#daae5c;stop-opacity:1"/><stop offset="0.68" style="stop-color:#e6c471;stop-opacity:1"/><stop offset="0.85" style="stop-color:#f8e08c;stop-opacity:1"/><stop offset="1" style="stop-color:#efe99f;stop-opacity:1"/></linearGradient><linearGradient id="_Linear9" x1="0" y1="0" x2="1" y2="0" gradientUnits="userSpaceOnUse" gradientTransform="matrix(-215.547,10.3742,-10.3742,-215.547,225.042,149.443)"><stop offset="0" style="stop-color:#ba8237;stop-opacity:1"/><stop offset="0.15" style="stop-color:#c7913d;stop-opacity:1"/><stop offset="0.3" style="stop-color:#d2a14e;stop-opacity:1"/><stop offset="0.5" style="stop-color:#daae5c;stop-opacity:1"/><stop offset="0.68" style="stop-color:#e6c471;stop-opacity:1"/><stop offset="0.85" style="stop-color:#f8e08c;stop-opacity:1"/><stop offset="1" style="stop-color:#efe99f;stop-opacity:1"/></linearGradient><linearGradient id="_Linear10" x1="0" y1="0" x2="1" y2="0" gradientUnits="userSpaceOnUse" gradientTransform="matrix(-215.541,10.3739,-10.3739,-215.541,225.318,155.208)"><stop offset="0" style="stop-color:#ba8237;stop-opacity:1"/><stop offset="0.15" style="stop-color:#c7913d;stop-opacity:1"/><stop offset="0.3" style="stop-color:#d2a14e;stop-opacity:1"/><stop offset="0.5" style="stop-color:#daae5c;stop-opacity:1"/><stop offset="0.68" style="stop-color:#e6c471;stop-opacity:1"/><stop offset="0.85" style="stop-color:#f8e08c;stop-opacity:1"/><stop offset="1" style="stop-color:#efe99f;stop-opacity:1"/></linearGradient><linearGradient id="_Linear11" x1="0" y1="0" x2="1" y2="0" gradientUnits="userSpaceOnUse" gradientTransform="matrix(-215.536,10.3736,-10.3736,-215.536,225.165,152.021)"><stop offset="0" style="stop-color:#ba8237;stop-opacity:1"/><stop offset="0.15" style="stop-color:#c7913d;stop-opacity:1"/><stop offset="0.3" style="stop-color:#d2a14e;stop-opacity:1"/><stop offset="0.5" style="stop-color:#daae5c;stop-opacity:1"/><stop offset="0.68" style="stop-color:#e6c471;stop-opacity:1"/><stop offset="0.85" style="stop-color:#f8e08c;stop-opacity:1"/><stop offset="1" style="stop-color:#efe99f;stop-opacity:1"/></linearGradient><linearGradient id="_Linear12" x1="0" y1="0" x2="1" y2="0" gradientUnits="userSpaceOnUse" gradientTransform="matrix(-215.551,10.3744,-10.3744,-215.551,225.426,157.387)"><stop offset="0" style="stop-color:#ba8237;stop-opacity:1"/><stop offset="0.15" style="stop-color:#c7913d;stop-opacity:1"/><stop offset="0.3" style="stop-color:#d2a14e;stop-opacity:1"/><stop offset="0.5" style="stop-color:#daae5c;stop-opacity:1"/><stop offset="0.68" style="stop-color:#e6c471;stop-opacity:1"/><stop offset="0.85" style="stop-color:#f8e08c;stop-opacity:1"/><stop offset="1" style="stop-color:#efe99f;stop-opacity:1"/></linearGradient><linearGradient id="_Linear13" x1="0" y1="0" x2="1" y2="0" gradientUnits="userSpaceOnUse" gradientTransform="matrix(-215.556,10.3747,-10.3747,-215.556,225.484,158.565)"><stop offset="0" style="stop-color:#ba8237;stop-opacity:1"/><stop offset="0.15" style="stop-color:#c7913d;stop-opacity:1"/><stop offset="0.3" style="stop-color:#d2a14e;stop-opacity:1"/><stop offset="0.5" style="stop-color:#daae5c;stop-opacity:1"/><stop offset="0.68" style="stop-color:#e6c471;stop-opacity:1"/><stop offset="0.85" style="stop-color:#f8e08c;stop-opacity:1"/><stop offset="1" style="stop-color:#efe99f;stop-opacity:1"/></linearGradient><linearGradient id="_Linear14" x1="0" y1="0" x2="1" y2="0" gradientUnits="userSpaceOnUse" gradientTransform="matrix(-215.549,10.3743,-10.3743,-215.549,227.556,201.66)"><stop offset="0" style="stop-color:#ba8237;stop-opacity:1"/><stop offset="0.15" style="stop-color:#c7913d;stop-opacity:1"/><stop offset="0.3" style="stop-color:#d2a14e;stop-opacity:1"/><stop offset="0.5" style="stop-color:#daae5c;stop-opacity:1"/><stop offset="0.68" style="stop-color:#e6c471;stop-opacity:1"/><stop offset="0.85" style="stop-color:#f8e08c;stop-opacity:1"/><stop offset="1" style="stop-color:#efe99f;stop-opacity:1"/></linearGradient><linearGradient id="_Linear15" x1="0" y1="0" x2="1" y2="0" gradientUnits="userSpaceOnUse" gradientTransform="matrix(-215.549,10.3743,-10.3743,-215.549,227.664,203.918)"><stop offset="0" style="stop-color:#ba8237;stop-opacity:1"/><stop offset="0.15" style="stop-color:#c7913d;stop-opacity:1"/><stop offset="0.3" style="stop-color:#d2a14e;stop-opacity:1"/><stop offset="0.5" style="stop-color:#daae5c;stop-opacity:1"/><stop offset="0.68" style="stop-color:#e6c471;stop-opacity:1"/><stop offset="0.85" style="stop-color:#f8e08c;stop-opacity:1"/><stop offset="1" style="stop-color:#efe99f;stop-opacity:1"/></linearGradient><linearGradient id="_Linear16" x1="0" y1="0" x2="1" y2="0" gradientUnits="userSpaceOnUse" gradientTransform="matrix(-215.543,10.374,-10.374,-215.543,227.762,206.002)"><stop offset="0" style="stop-color:#ba8237;stop-opacity:1"/><stop offset="0.15" style="stop-color:#c7913d;stop-opacity:1"/><stop offset="0.3" style="stop-color:#d2a14e;stop-opacity:1"/><stop offset="0.5" style="stop-color:#daae5c;stop-opacity:1"/><stop offset="0.68" style="stop-color:#e6c471;stop-opacity:1"/><stop offset="0.85" style="stop-color:#f8e08c;stop-opacity:1"/><stop offset="1" style="stop-color:#efe99f;stop-opacity:1"/></linearGradient><linearGradient id="_Linear17" x1="0" y1="0" x2="1" y2="0" gradientUnits="userSpaceOnUse" gradientTransform="matrix(-215.552,10.3745,-10.3745,-215.552,227.855,207.83)"><stop offset="0" style="stop-color:#ba8237;stop-opacity:1"/><stop offset="0.15" style="stop-color:#c7913d;stop-opacity:1"/><stop offset="0.3" style="stop-color:#d2a14e;stop-opacity:1"/><stop offset="0.5" style="stop-color:#daae5c;stop-opacity:1"/><stop offset="0.68" style="stop-color:#e6c471;stop-opacity:1"/><stop offset="0.85" style="stop-color:#f8e08c;stop-opacity:1"/><stop offset="1" style="stop-color:#efe99f;stop-opacity:1"/></linearGradient><linearGradient id="_Linear18" x1="0" y1="0" x2="1" y2="0" gradientUnits="userSpaceOnUse" gradientTransform="matrix(-215.572,10.3754,-10.3754,-215.572,227.028,190.46)"><stop offset="0" style="stop-color:#ba8237;stop-opacity:1"/><stop offset="0.15" style="stop-color:#c7913d;stop-opacity:1"/><stop offset="0.3" style="stop-color:#d2a14e;stop-opacity:1"/><stop offset="0.5" style="stop-color:#daae5c;stop-opacity:1"/><stop offset="0.68" style="stop-color:#e6c471;stop-opacity:1"/><stop offset="0.85" style="stop-color:#f8e08c;stop-opacity:1"/><stop offset="1" style="stop-color:#efe99f;stop-opacity:1"/></linearGradient></defs></svg>