<?xml version="1.0" encoding="UTF-8" standalone="no"?><!DOCTYPE svg PUBLIC "-//W3C//DTD SVG 1.1//EN" "http://www.w3.org/Graphics/SVG/1.1/DTD/svg11.dtd"><svg width="100%" height="100%" viewBox="0 0 286 286" version="1.1" xmlns="http://www.w3.org/2000/svg" xmlns:xlink="http://www.w3.org/1999/xlink" xml:space="preserve" xmlns:serif="http://www.serif.com/" style="fill-rule:evenodd;clip-rule:evenodd;stroke-linejoin:round;stroke-miterlimit:1.41421;"><g><path d="M45.309,205.077l0,18.298c-5.083,3.776 -12.489,6.39 -19.313,6.39c-14.668,0 -25.996,-11.037 -25.996,-25.124c0,-14.086 11.473,-24.977 26.576,-24.977c7.116,0 14.086,2.759 19.024,6.971l-4.792,6.099c-3.776,-3.486 -9.149,-5.664 -14.232,-5.664c-10.165,0 -18.008,7.696 -18.008,17.571c0,9.875 7.988,17.573 18.154,17.573c3.63,0 7.841,-1.308 11.326,-3.34l0,-13.797l7.261,0Z" style="fill:#fff;fill-rule:nonzero;"/><path d="M95.12,229.475l-26.43,-35.579l0,35.579l-8.423,0l0,-49.52l8.278,0l26.575,35.579l0,-35.579l8.277,0l0,49.52l-8.277,0Z" style="fill:#fff;fill-rule:nonzero;"/><path d="M123.874,204.642c0,9.875 8.132,17.572 17.862,17.572c9.73,0 17.572,-7.842 17.572,-17.572c0,-9.875 -7.987,-17.426 -17.572,-17.426c-9.73,0 -17.862,7.551 -17.862,17.426m44.147,0c0,14.087 -11.473,25.123 -26.285,25.123c-14.813,0 -26.284,-11.036 -26.284,-25.123c0,-14.231 11.471,-24.978 26.284,-24.978c14.812,0 26.285,10.892 26.285,24.978" style="fill:#fff;fill-rule:nonzero;"/><path d="M213.619,184.602l-3.485,7.406c-5.373,-3.195 -10.746,-4.647 -14.522,-4.647c-4.937,0 -8.132,1.888 -8.132,5.228c0,10.891 26.72,5.082 26.72,22.8c0,8.858 -7.842,14.231 -18.733,14.231c-7.842,0 -15.104,-3.195 -20.186,-7.841l3.63,-7.262c5.084,4.648 11.474,7.262 16.701,7.262c5.809,0 9.294,-2.179 9.294,-5.954c0,-11.038 -26.721,-4.938 -26.721,-22.51c0,-8.422 7.262,-13.796 18.008,-13.796c6.534,0 12.924,2.034 17.426,5.083" style="fill:#fff;fill-rule:nonzero;"/><rect x="227.271" y="179.955" width="8.277" height="49.52" style="fill:#fff;"/><path d="M285.359,184.602l-3.484,7.406c-5.374,-3.195 -10.747,-4.647 -14.523,-4.647c-4.937,0 -8.133,1.888 -8.133,5.228c0,10.891 26.721,5.082 26.721,22.8c0,8.858 -7.843,14.231 -18.733,14.231c-7.842,0 -15.103,-3.195 -20.187,-7.841l3.632,-7.262c5.082,4.648 11.472,7.262 16.7,7.262c5.809,0 9.293,-2.179 9.293,-5.954c0,-11.038 -26.72,-4.938 -26.72,-22.51c0,-8.422 7.261,-13.796 18.007,-13.796c6.535,0 12.925,2.034 17.427,5.083" style="fill:#fff;fill-rule:nonzero;"/></g><g><path d="M182.689,79.608l-3.486,3.485c2.905,4.356 3.631,10.02 1.742,15.393c-3.194,9.149 -13.215,13.796 -22.363,10.602c-1.307,-0.436 -2.469,-1.017 -3.63,-1.743l-11.328,11.327l-10.02,-10.02c-4.647,3.05 -10.456,4.066 -16.12,2.033c-9.294,-3.34 -14.232,-13.651 -10.892,-22.945c0.581,-1.452 1.162,-2.759 2.033,-3.921l-4.211,-4.211l-0.871,1.307c-4.502,7.261 -6.825,15.683 -6.825,24.251c0,25.849 20.912,46.761 46.615,46.907l0.145,0c25.704,0 46.762,-20.912 46.762,-46.617c0,-8.567 -2.323,-16.99 -6.825,-24.251l-0.726,-1.597Z" style="fill:#fff;fill-rule:nonzero;"/><path d="M113.999,89.047c-1.163,1.597 -2.034,3.63 -2.034,5.809c0,5.228 4.212,9.439 9.44,9.439c2.178,0 4.211,-0.727 5.808,-2.033l-13.214,-13.215Z" style="fill:#fff;fill-rule:nonzero;"/><path d="M160.76,101.535c1.452,1.016 3.34,1.597 5.373,1.597c5.228,0 9.439,-4.211 9.439,-9.439c0,-2.033 -0.582,-3.776 -1.598,-5.373l-13.214,13.215Z" style="fill:#fff;fill-rule:nonzero;"/><path d="M111.529,72.782l32.239,32.383l31.803,-31.802c-8.567,-8.569 -20.185,-13.506 -32.384,-13.506l-0.145,0c-11.762,0.145 -22.944,4.647 -31.513,12.925m32.239,38.773l-38.629,-38.628l1.453,-1.598c9.585,-10.165 22.654,-15.829 36.595,-15.829l0.145,0c14.088,0 27.737,6.099 37.177,16.555l1.453,1.598l-38.194,37.902Z" style="fill:#fff;fill-rule:nonzero;"/><path d="M101.219,136.533l-4.647,-0.291c-19.169,-1.307 -45.744,-5.954 -62.88,-21.492c-10.456,-9.44 -12.489,-18.443 -12.634,-18.879l-0.436,-2.613l69.851,0l-0.29,2.613c-0.291,2.324 -0.436,4.792 -0.436,7.116c0,10.602 3.05,20.912 9.003,29.916l2.469,3.63Z" style="fill:#fff;fill-rule:nonzero;"/><path d="M185.883,136.533l2.469,-3.776c5.808,-8.858 9.003,-19.023 9.003,-29.625c0,-2.469 -0.145,-4.937 -0.436,-7.261l-0.29,-2.613l69.851,0l-0.581,2.758c-0.145,0.436 -2.033,9.439 -12.634,18.88c-17.136,15.392 -43.712,20.185 -62.88,21.491l-4.502,0.146Z" style="fill:#fff;fill-rule:nonzero;"/></g></svg>