<?xml version="1.0" encoding="UTF-8" standalone="no"?><!DOCTYPE svg PUBLIC "-//W3C//DTD SVG 1.1//EN" "http://www.w3.org/Graphics/SVG/1.1/DTD/svg11.dtd"><svg width="100%" height="100%" viewBox="0 0 698 698" version="1.1" xmlns="http://www.w3.org/2000/svg" xmlns:xlink="http://www.w3.org/1999/xlink" xml:space="preserve" xmlns:serif="http://www.serif.com/" style="fill-rule:evenodd;clip-rule:evenodd;stroke-linejoin:round;stroke-miterlimit:1.41421;"><g><g><path d="M399.6,353.55l0,22.6c-6.2,4.7 -15.4,8 -23.8,8c-18.1,0 -32.2,-13.6 -32.2,-31.1c0,-17.5 14.3,-30.9 32.9,-30.9c8.8,0 17.5,3.3 23.6,8.6l-5.9,7.6c-4.7,-4.4 -11.3,-7 -17.7,-7c-12.5,0 -22.3,9.5 -22.3,21.7c0,12.3 9.9,21.8 22.4,21.8c4.6,0 9.7,-1.6 14.1,-4.2l0,-17.1l8.9,0Z" style="fill:#f2f2f2;fill-rule:nonzero;"/><path d="M461.2,383.65l-32.7,-44l0,44l-10.3,0l0,-61.3l10.2,0l32.9,44.1l0,-44.1l10.2,0l0,61.3l-10.3,0Z" style="fill:#f2f2f2;fill-rule:nonzero;"/><path d="M551.4,352.95c0,17.5 -14.2,31.1 -32.5,31.1c-18.3,0 -32.5,-13.6 -32.5,-31.1c0,-17.6 14.2,-30.9 32.5,-30.9c18.4,0 32.5,13.4 32.5,30.9Zm-54.5,0c0,12.2 10.1,21.8 22.1,21.8c12,0 21.8,-9.6 21.8,-21.8c0,-12.2 -9.8,-21.6 -21.8,-21.6c-12.1,0 -22.1,9.5 -22.1,21.6Z" style="fill:#f2f2f2;fill-rule:nonzero;"/><path d="M608.1,328.15l-4.3,9.1c-6.7,-4 -13.3,-5.7 -18,-5.7c-6,0 -10,2.3 -10,6.4c0,13.4 33.1,6.2 33,28.3c0,11 -9.6,17.7 -23.1,17.7c-9.6,0 -18.7,-3.9 -25.1,-9.7l4.5,-8.9c6.3,5.8 14.2,8.9 20.8,8.9c7.2,0 11.5,-2.7 11.5,-7.4c0,-13.7 -33.1,-6 -33.1,-27.9c0,-10.5 9,-17.1 22.3,-17.1c8,0 15.8,2.6 21.5,6.3Z" style="fill:#f2f2f2;fill-rule:nonzero;"/><rect x="624.9" y="322.35" width="10.3" height="61.3" style="fill:#f2f2f2;fill-rule:nonzero;"/><path d="M696.9,328.15l-4.3,9.1c-6.7,-4 -13.3,-5.7 -18,-5.7c-6,0 -10,2.3 -10,6.4c0,13.4 33.1,6.2 33,28.3c0,11 -9.6,17.7 -23.1,17.7c-9.6,0 -18.7,-3.9 -25.1,-9.7l4.5,-8.9c6.3,5.8 14.2,8.9 20.8,8.9c7.2,0 11.5,-2.7 11.5,-7.4c0,-13.7 -33.1,-6 -33.1,-27.9c0,-10.5 9,-17.1 22.3,-17.1c8,0 15.8,2.6 21.5,6.3Z" style="fill:#f2f2f2;fill-rule:nonzero;"/></g><g><path d="M200.7,319.15l-4.4,4.4c3.5,5.5 4.6,12.4 2.2,19c-4,11.2 -16.4,17.1 -27.7,13.1c-1.6,-0.6 -3.1,-1.3 -4.4,-2.2l-14.1,14.1l-12.3,-12.4c-5.7,3.8 -13,4.9 -19.9,2.5c-11.6,-4.2 -17.6,-16.9 -13.4,-28.4c0.6,-1.8 1.5,-3.4 2.5,-4.9l-5.3,-5.3l-1,1.7c-5.5,9 -8.5,19.4 -8.5,30.1c-0.1,31.9 25.9,58 57.8,58l0.1,0c31.9,0 57.8,-25.9 57.9,-57.8c0,-10.6 -2.9,-21 -8.4,-30.1l-1.1,-1.8Z" style="fill:#f2f2f2;fill-rule:nonzero;"/><path d="M115.7,330.85c-1.5,2 -2.4,4.5 -2.4,7.2c0,6.5 5.3,11.8 11.8,11.8c2.7,0 5.2,-0.9 7.2,-2.5l-16.6,-16.5Z" style="fill:#f2f2f2;fill-rule:nonzero;"/><path d="M173.6,346.35c1.9,1.3 4.1,2 6.6,2c6.5,0 11.8,-5.3 11.8,-11.8c0,-2.4 -0.7,-4.7 -2,-6.6l-16.4,16.4Z" style="fill:#f2f2f2;fill-rule:nonzero;"/><path d="M152.5,358.75l-47.8,-48l1.9,-2c11.8,-12.5 27.9,-19.5 45.2,-19.5l0.1,0c17.5,0 34.3,7.5 46,20.5l1.8,2l-47.2,47Zm-40,-48l40,40.1l39.5,-39.3c-10.6,-10.6 -25,-16.7 -40,-16.7l-0.1,0c-14.9,0 -28.8,5.6 -39.4,15.9Z" style="fill:#f2f2f2;fill-rule:nonzero;"/><g><path d="M99.8,389.65l-5.6,-0.4c-23.8,-1.5 -56.6,-7.4 -77.8,-26.5c-13.1,-11.7 -15.6,-22.8 -15.7,-23.3l-0.7,-3.4l86.6,0l-0.5,3.2c-0.4,2.9 -0.6,5.9 -0.6,8.8c0,13.2 3.8,26 11.1,36.9l3.2,4.7Z" style="fill:#f2f2f2;fill-rule:nonzero;"/><path d="M204.6,389.65l3.1,-4.7c7.3,-10.9 11.1,-23.6 11.1,-36.7c0,-3 -0.2,-6.1 -0.6,-9l-0.4,-3.2l86.6,0l-0.7,3.4c-0.1,0.5 -2.6,11.6 -15.6,23.3c-21.2,19.1 -54.1,25 -77.9,26.5l-5.6,0.4Z" style="fill:#f2f2f2;fill-rule:nonzero;"/></g></g></g></svg>