<?xml version="1.0" encoding="UTF-8" standalone="no"?><!DOCTYPE svg PUBLIC "-//W3C//DTD SVG 1.1//EN" "http://www.w3.org/Graphics/SVG/1.1/DTD/svg11.dtd"><svg width="100%" height="100%" viewBox="0 0 548 548" version="1.1" xmlns="http://www.w3.org/2000/svg" xmlns:xlink="http://www.w3.org/1999/xlink" xml:space="preserve" xmlns:serif="http://www.serif.com/" style="fill-rule:evenodd;clip-rule:evenodd;stroke-linejoin:round;stroke-miterlimit:1.41421;"><path d="M1.93,220.613c0.4,-2.1 1.2,-4.2 2.2,-6.1c1.9,-3.6 4.5,-6.6 7.8,-9.1c2.1,-1.5 4.5,-2.6 6.8,-3.6c0.5,-0.2 1,-0.2 1.5,-0.4c0.9,-0.3 1.9,-0.5 2.8,-0.8c0.4,-0.1 0.9,-0.3 1.3,-0.4c2.4,-0.2 4.8,-0.4 7.1,0.5c0.4,0.1 0.8,0.2 1.2,0.3c5,1 9.2,3.4 12.8,7c9.3,9.3 18.6,18.5 27.9,27.8c0.2,0.2 0.4,0.4 0.6,0.6c0.5,0.4 0.9,0.4 1.4,0c0.2,-0.1 0.3,-0.3 0.5,-0.5c3,-3 6,-6 9,-9c4,-4 8,-8.1 11.9,-12.2c2.4,-2.4 4.8,-4.8 7.2,-7.2c2.5,-2.4 5.2,-4.2 8.5,-5.4c1.1,-0.4 2.2,-0.7 3.3,-1c0.8,-0.2 1.5,-0.5 2.3,-0.7c0.3,-0.1 0.7,-0.2 1,-0.2c2.4,-0.2 4.8,-0.5 7.1,0.4c0.3,0.1 0.7,0.2 1,0.3c1.8,0.4 3.6,0.9 5.2,1.6c1.8,0.8 3.5,1.8 5,2.9c1.9,1.4 3.6,3 5,4.9c2.5,3.3 4.3,6.9 4.9,11c0.2,1.2 0.4,2.5 0.5,3.7c0.1,0.6 0.1,1.2 0.1,1.7c-0.2,1.9 -0.4,3.9 -0.8,5.8c-0.6,2.6 -1.7,5.1 -3.1,7.4c-1.1,1.9 -2.5,3.6 -4.1,5.1c-0.7,0.7 -1.4,1.4 -2.1,2.1c-6.7,6.6 -13.3,13.3 -20,19.9c-2,2 -3.9,4 -5.9,6.1c-0.2,0.2 -0.3,0.5 -0.5,0.7c0.2,0.3 0.4,0.6 0.7,0.8c9.4,9.7 19,19.2 28.5,28.7c1.2,1.2 2.1,2.6 3,3.9c2.3,3.6 3.6,7.5 4,11.8c0.5,4.6 -0.4,8.9 -2.2,13.1c-1.7,3.8 -4.2,7.1 -7.6,9.7c-2.9,2.2 -6.1,3.9 -9.6,4.8c-1.5,0.4 -3,0.8 -4.5,1c-1.6,0.2 -3.2,0.2 -4.8,-0.2c-1.7,-0.4 -3.3,-0.8 -5,-1.3c-0.6,-0.2 -1.2,-0.4 -1.8,-0.6c-3.5,-1.5 -6.7,-3.6 -9.3,-6.3c-2.3,-2.3 -4.7,-4.6 -7,-6.9c-1.6,-1.6 -3.1,-3.2 -4.7,-4.8c-5.1,-5.1 -10.1,-10.2 -15.2,-15.2c-0.4,-0.4 -0.7,-0.7 -1.1,-1.1c-0.4,-0.4 -0.8,-0.4 -1.2,0.1c-0.8,0.8 -1.6,1.6 -2.4,2.4c-0.8,0.8 -1.5,1.6 -2.2,2.4c-8,8 -16.1,16.1 -24.1,24.1c-3.6,3.5 -7.9,5.7 -12.8,6.7c-0.4,0.1 -0.9,0.2 -1.3,0.3c-2.5,0.7 -5.1,0.8 -7.6,0c-1.1,-0.3 -2.2,-0.6 -3.3,-0.8c-2.3,-0.5 -4.4,-1.6 -6.4,-2.8c-1.6,-0.9 -3.1,-2 -4.4,-3.3c-1.2,-1.2 -2.4,-2.5 -3.3,-3.9c-1.9,-2.8 -3.4,-5.8 -4.1,-9.2c-0.1,-0.3 -0.2,-0.7 -0.3,-1c-0.7,-4.7 -0.1,-9.3 0.1,-9.7c0.1,-0.3 0.2,-0.7 0.3,-1c0.8,-4 2.7,-7.5 5.3,-10.7c1.7,-2.2 3.8,-4 5.7,-6c6.6,-6.6 13.2,-13.1 19.8,-19.7c0.4,-0.4 0.7,-0.7 1.1,-1.1c0.6,-0.6 0.9,-0.6 1.5,0c3,3 5.9,5.9 8.9,8.9c1.7,1.7 1.7,1.6 -0.1,3.3c-7.6,7.6 -15.2,15.1 -22.8,22.7c-0.5,0.5 -1,1 -1.4,1.5c-2.6,3 -3.3,6.4 -2.1,10.3c0.9,3.1 4.1,6.4 8.5,6.8c3.2,0.3 6,-0.8 8.3,-3c5.9,-5.9 11.9,-11.8 17.8,-17.7c3.4,-3.4 6.7,-6.9 10.1,-10.3c0.1,-0.1 0.2,-0.2 0.2,-0.2c0.4,-0.5 0.5,-0.9 0,-1.4c-0.5,-0.5 -1.1,-1 -1.6,-1.6c-4.8,-4.9 -9.6,-9.8 -14.5,-14.7c-5.8,-5.9 -11.7,-11.7 -17.6,-17.5c-1,-1 -2,-2 -3.1,-3c-6,-6.1 -12.2,-12 -18,-18.2c-2.6,-2.8 -4.5,-5.9 -5.5,-9.6c-0.2,-0.8 -0.5,-1.7 -0.7,-2.5c-0.6,-5.1 0.3,-10.8 0.4,-11.2Zm83.6,57.2c0.9,0.8 1.6,1.3 2.2,2c2.5,2.5 5,4.9 7.5,7.4c0.3,0.3 0.7,0.6 1,1c0.3,0.4 0.3,0.7 0,1.1c-0.3,0.3 -0.6,0.6 -0.8,0.9c-2.7,2.7 -5.4,5.3 -8.1,8c-1.5,1.5 -1.5,1.5 -0.1,3l26.6,26.6c0.6,0.6 1.4,1.2 2.1,1.8c2.6,2 5.5,2.6 8.8,1.7c4,-1.1 6.3,-3.7 7.2,-7.6c0.8,-3.6 -0.2,-6.8 -2.8,-9.5c-1.2,-1.3 -2.5,-2.5 -3.8,-3.8c-7.3,-7.2 -14.6,-14.4 -21.8,-21.8c-1.8,-1.9 -3.6,-3.7 -5.5,-5.5c-6.2,-6.2 -12.5,-12.4 -18.7,-18.6c-0.4,-0.4 -1,-0.8 -1.2,-1.5c0.5,-0.9 1.2,-1.6 2,-2.3c0.9,-0.8 1.8,-1.6 2.6,-2.5c1.7,-1.8 3.4,-3.6 5.2,-5.3c1,-1 1.2,-1 2.3,0c0.3,0.2 0.5,0.5 0.7,0.7l8.3,8.3c0.7,0.6 1,0.6 1.6,0c0.8,-0.8 1.6,-1.6 2.4,-2.4c5.1,-5.1 10.2,-10.2 15.4,-15.3c2.3,-2.3 4.6,-4.5 6.8,-6.8c1.1,-1.1 2.3,-2.3 3.4,-3.4c2.4,-2.5 3.5,-5.4 3,-8.9c-0.4,-2.5 -1.4,-4.7 -3.3,-6.2c-3.4,-2.7 -7.1,-3.2 -11.1,-1.4c-1.3,0.6 -2.4,1.5 -3.4,2.6c-4.7,4.8 -9.5,9.5 -14.2,14.3c-3.6,3.6 -7.2,7.2 -10.8,10.9c-7.7,7.7 -15.4,15.3 -23.1,23c-1.7,1.7 -3.3,3.3 -5,5c-0.2,0.2 -0.4,0.6 -0.5,0.9c0.3,0.4 0.5,0.7 0.8,1c1.2,1.2 2.4,2.5 3.6,3.7c2.8,2.9 5.6,5.7 8.5,8.6c0.2,0.2 0.3,0.3 0.5,0.5c0.5,0.4 0.9,0.4 1.4,0l9.2,-9.2c0.4,-0.6 0.6,-1 1.1,-1Zm-22.4,-29.2c-0.2,-0.8 -0.7,-1.2 -1.1,-1.6c-1,-1 -2,-2 -3,-3c-8.3,-8.3 -16.5,-16.6 -24.9,-24.8c-3,-2.9 -7.4,-3.7 -11.3,-1.8c-3.7,1.8 -5.7,4.9 -5.7,9.1c0,2.8 0.9,5.2 2.8,7.2c2.3,2.4 4.6,4.8 7,7.1c6.9,6.9 13.8,13.8 20.7,20.6c0.3,0.3 0.6,0.7 1,0.9c0.3,0.2 0.6,0.2 0.9,0l12.8,-12.8c0.3,-0.3 0.5,-0.6 0.8,-0.9Z" style="fill:#f7f7f7;fill-rule:nonzero;"/><path d="M546.73,288.413c-0.5,0.5 -1.2,0.7 -1.9,0.7l-84.7,0c-0.7,0 -1.4,0 -2.1,-0.1c-0.6,-0.1 -0.9,-0.4 -1,-1l0,-5.8c0,-0.8 0.4,-1.2 1.1,-1.2c0.6,-0.1 1.1,0 1.7,0l33.9,0c0.6,0 0.8,-0.3 0.9,-0.9c0,-0.5 0.1,-0.9 0.1,-1.4c0,-5.2 0,-10.4 0,-15.7c0,-2.2 0,-2.2 -2.2,-2.2l-28.7,0c-0.8,-0.1 -1.2,-0.5 -1.4,-1.3c-0.1,-0.3 -0.1,-0.7 -0.1,-1c0,-1.3 0,-2.5 0,-3.8c0,-0.3 0,-0.7 0.1,-1c0.1,-0.6 0.6,-1 1.2,-1.1c0.5,-0.1 1,-0.1 1.5,-0.1l28.4,0c0.7,-0.1 1,-0.3 1.1,-1l0,-12.4c-0.1,-0.8 -0.4,-1.1 -1.2,-1.2l-30.5,0c-0.6,0 -1.2,0 -1.7,-0.1c-1,-0.1 -1.5,-0.7 -1.6,-1.7c0,-1.6 0,-3.2 0,-4.8c0,-1 0.6,-1.6 1.6,-1.7l78.7,0c0.5,0 0.9,0 1.4,0.1c1,0.2 1.6,0.9 1.6,1.9c0,1.5 0,3 0,4.5c0,1 -0.8,1.8 -1.7,1.9c-0.6,0.1 -1.1,0 -1.7,0l-30.4,0c-0.6,0 -0.8,0.3 -0.9,0.9l0,12.8c0.1,0.7 0.3,0.9 1,1l29.9,0c1.1,0.1 1.7,0.6 1.8,1.7c0.1,0.6 0,1.1 0,1.7c0,0.9 0,1.8 0,2.8c-0.1,1.4 -0.7,1.9 -2.1,2l-29.7,0c-0.6,0 -0.8,0.3 -0.9,0.9l0,17c0,2.2 0,2.2 2.2,2.2c10.8,0 21.7,0 32.5,0c1.2,0 2.4,0.2 3.6,0.3c0.2,2.2 0.2,4.6 0.2,7.1Z" style="fill:#f7f7f7;fill-rule:nonzero;"/><path d="M254.03,282.513c-0.2,0.3 -0.4,0.6 -0.6,0.9c-0.6,1.2 -1.2,2.5 -1.9,3.7c-0.2,0.4 -0.6,0.9 -0.9,1.3c-0.4,0.5 -0.9,0.7 -1.5,0.7l-55.6,0c-1.3,-0.1 -2,-0.8 -2.1,-2.1l0,-3.5c0,-0.9 0.2,-1.7 0.7,-2.4c1.3,-2.2 2.5,-4.4 3.8,-6.6c2.2,-3.9 4.4,-7.8 6.6,-11.7c1.4,-2.5 2.9,-5.1 4.4,-7.6c2.1,-3.6 4.1,-7.3 6.2,-10.9c2.1,-3.7 4.2,-7.4 6.3,-11c0.2,-0.3 0.3,-0.6 0.5,-0.9c0.4,-0.7 1.1,-1 1.9,-1l9.6,0c0.5,0 1,0 1.5,0.1c0.9,0.2 1.2,0.9 0.8,1.7c-0.6,1.2 -1.2,2.3 -1.9,3.5c-1.8,3.2 -3.7,6.5 -5.5,9.7c-2.3,4.1 -4.6,8.3 -7,12.5c-1.5,2.6 -3,5.2 -4.4,7.8c-1.1,1.9 -2.1,3.8 -3.2,5.7c-1.1,1.9 -2.2,3.9 -3.3,5.8c-0.3,0.6 -0.6,1.2 -0.9,1.8c-0.1,0.1 0,0.3 0,0.6c0.3,0.1 0.5,0.2 0.8,0.2l44.3,0c0.5,0 0.8,-0.5 0.5,-1c-0.3,-0.7 -0.7,-1.3 -1,-2c-2.8,-5.5 -5.7,-11 -8.5,-16.5c-1.4,-2.7 -2.7,-5.3 -4.1,-8c-0.7,-1.4 -0.3,-2.1 1.3,-2.1l10.8,0c1,0 1.7,0.4 2.2,1.3c1.1,2.3 2.3,4.5 3.5,6.7c2.7,5.3 5.4,10.5 8,15.8c1.9,3.7 3.8,7.3 5.7,11c0.3,0.5 0.5,1 0.7,1.6c0.3,0.7 -0.1,1.3 -0.8,1.4c-0.3,0.1 -0.7,0.1 -1,0.1l-10.3,0c-1.1,0 -1.9,-0.4 -2.3,-1.4c-0.6,-1.3 -1.3,-2.7 -2,-4c-0.1,-0.3 -0.2,-0.5 -0.4,-0.8c-0.4,-0.2 -0.6,-0.2 -0.9,-0.4Z" style="fill:#f7f7f7;fill-rule:nonzero;"/><path d="M377.73,289.113l-25.4,0c-1.5,0 -2.8,-0.7 -3.7,-1.8c-0.7,-0.8 -1.1,-1.7 -1.1,-2.8l0,-22.2c0,-1.6 0.5,-2.8 1.6,-3.8c1.1,-1.1 2.4,-1.9 4.1,-1.9l49.2,0c3.3,0.1 5.8,2.6 5.9,5.9c0,7.1 0,14.2 0,21.3c0,2.3 -1.2,3.7 -3,4.9c-0.6,0.4 -1.4,0.5 -2.2,0.5c-1.6,0 -3.2,0 -4.8,0c-6.9,-0.1 -13.8,-0.1 -20.6,-0.1Zm0.2,-24.2c-5.1,0 -10.2,0 -15.3,0c-2,0 -2.1,0 -2.1,2l0,13.1c0.1,0.7 0.3,0.9 1,0.9l31.7,0c1.8,0 1.9,-0.1 1.9,-2c0,-4 0,-8 0,-12.1c0,-1.9 -0.1,-1.9 -1.9,-2c-0.3,0 -0.7,0 -1,0c-4.8,0.1 -9.6,0.1 -14.3,0.1Z" style="fill:#f7f7f7;fill-rule:nonzero;"/><path d="M335.43,233.313c0.6,0.1 0.9,0.3 1.3,0.3c0.7,0 1.4,0 2.1,0.1c0.9,0.1 1.3,0.6 1.4,1.5l0,52.1c-0.1,1.2 -0.7,1.8 -1.8,1.8c-3.2,0 -6.3,0 -9.5,0c-1.3,0 -1.7,-0.5 -1.7,-1.8l0,-48.8c0,-2 0,-2 -2,-2c-0.7,0 -1.5,0 -2.2,0c-0.3,0 -0.7,-0.1 -1,-0.2c-0.9,-0.3 -1.2,-1 -0.8,-1.9c0.6,-1.5 1.2,-3 1.8,-4.5c0.8,-2 1.6,-4 2.4,-6.1c0.7,-1.8 1.4,-3.5 2.1,-5.3c1.6,-3.9 3.2,-7.9 4.7,-11.8c0.5,-1.3 1.1,-2.7 1.6,-4c0.4,-0.9 1,-1.7 1.7,-2.4c1.3,-0.2 10.2,-0.3 11.9,0c0.8,0.8 0.8,1.6 0.4,2.6c-1,2.3 -2,4.6 -2.9,7c-0.8,1.9 -1.5,3.7 -2.2,5.6c-1.4,3.4 -2.7,6.8 -4.1,10.2c-0.8,2 -1.7,4 -2.5,6c-0.4,0.5 -0.5,0.9 -0.7,1.6Z" style="fill:#f7f7f7;fill-rule:nonzero;"/><path d="M492.73,200.213c0.3,0 0.7,0 1.2,0c3.6,0 7.2,0.1 10.8,0c1.6,0 2.5,0.6 3.1,2c0.5,1 0.9,2.1 1.3,3.2c0.3,0.7 0.5,1.4 0.8,2.1c0.3,0.7 0.7,1 1.4,1l25.5,0c1.4,0 2.8,0.2 4.1,0.6c2.5,0.8 4.1,2.4 4.6,5.1c0.1,0.5 0.1,1 0.1,1.5c0,2.6 -0.1,5.2 0,7.7c0.1,2.3 -1.1,3.1 -3,3.1c-2.6,0 -5.3,0 -7.9,0c-2.2,0 -2.7,-0.6 -2.7,-2.8l0,-5.7c-0.1,-0.5 -0.4,-0.8 -0.9,-0.9l-58.7,0c-0.5,0.1 -0.8,0.3 -0.8,0.9l0,6c0,1.5 -0.8,2.3 -2.3,2.4c-1.7,0.1 -3.3,0 -5,0c-1.2,0 -2.4,0 -3.6,0c-0.4,0 -0.8,0 -1.2,-0.1c-0.7,-0.1 -1.2,-0.6 -1.3,-1.4c-0.1,-0.4 0,-0.8 0,-1.2c0,-3 0,-6 0,-9c0,-2.6 1.3,-4.4 3.4,-5.6c1,-0.6 2.1,-0.8 3.3,-0.8l26.7,0c0.6,0 1.1,0 1.7,-0.1c0.5,0 0.7,-0.5 0.6,-0.9c-0.5,-1.4 -1,-2.8 -1.6,-4.2c-0.9,-0.9 -1,-1.9 0.4,-2.9Z" style="fill:#f7f7f7;fill-rule:nonzero;"/><path d="M368.33,208.013c-0.1,-0.3 -0.1,-0.5 -0.1,-0.7c-0.5,-1.3 -1,-2.6 -1.5,-3.8c-0.6,-1.5 -0.6,-1.8 0.8,-3.2c3.9,0 8,0 12,0c1,0.9 1.9,1.9 2.4,3.3c0.4,1.1 1,2.2 1.4,3.3c0.4,1.1 1.1,1.6 2.3,1.6c2.3,-0.1 4.6,0 6.9,0c5.1,0 10.2,0 15.3,0c0.6,0 1.3,0 1.9,0.2c0.9,0.2 1.3,0.7 1.3,1.6c0,1.7 0,3.3 0,5c0,0.9 -0.4,1.4 -1.3,1.5c-0.6,0.1 -1.3,0.1 -1.9,0.1l-59.9,0c-1.5,-0.1 -2.1,-0.7 -2.1,-2.1c0,-1.3 0.1,-2.6 0,-4c-0.1,-1.7 1,-2.3 2.3,-2.3c2,0.1 4,0 6,0c4.1,0 8.1,0 12.2,0c0.7,-0.1 1.3,0 2,-0.5Z" style="fill:#f7f7f7;fill-rule:nonzero;"/><path d="M270.83,245.813c-1.6,0 -3.2,-0.1 -4.8,0c-1.4,0.1 -2.2,-0.6 -2.9,-1.7c-2,-3.4 -4,-6.7 -5.9,-10.1c-2.1,-3.6 -4.3,-7.2 -6.4,-10.8c-3.2,-5.4 -6.4,-10.8 -9.5,-16.1c-0.9,-1.5 -1.8,-3 -2.7,-4.4c-0.4,-0.7 -0.4,-1.3 0.1,-1.9c0.3,-0.3 0.6,-0.6 1,-0.6l10,0c0.9,0 1.6,0.3 2.1,0.9c0.5,0.6 0.9,1.2 1.3,1.8c1.9,3.1 3.7,6.3 5.6,9.5c2.6,4.4 5.3,8.7 7.9,13.1c3.6,6.1 7.3,12.2 10.9,18.3c0.1,0.1 0.2,0.3 0.3,0.4c0.2,0.5 0,1.1 -0.5,1.3c-0.5,0.2 -1,0.2 -1.5,0.3c-1.8,0 -3.4,0 -5,0Z" style="fill:#f7f7f7;fill-rule:nonzero;"/><path d="M211.83,200.213l10.9,0c0.6,0 1.1,0.1 1.5,0.6c0.4,0.5 0.5,1 0.2,1.6c-0.7,1.2 -1.5,2.4 -2.2,3.7c-2.6,4.4 -5.2,8.9 -7.9,13.3c-2.2,3.8 -4.5,7.6 -6.8,11.4c-2.4,4.1 -4.9,8.3 -7.3,12.5c-0.3,0.4 -0.5,0.9 -0.8,1.3c-0.6,0.9 -1.4,1.3 -2.5,1.2l-10.7,0c-0.9,-0.1 -1.3,-0.7 -1,-1.6c0.1,-0.3 0.3,-0.6 0.5,-0.9c2.6,-4.4 5.2,-8.9 7.9,-13.3c3.1,-5.2 6.2,-10.3 9.2,-15.5c2.1,-3.6 4.3,-7.2 6.4,-10.8c0.7,-1.3 1.4,-2.5 2.6,-3.5Z" style="fill:#f7f7f7;fill-rule:nonzero;"/><path d="M378.23,249.013l-28.2,0c-0.8,-0.1 -1.1,-0.4 -1.2,-1.2l0,-5.3c0,-1.1 0.3,-1.5 1.4,-1.6c0.5,-0.1 0.9,-0.1 1.4,-0.1c17.7,0 35.3,0 53,0c0.6,0 1.2,0 1.7,0.1c0.9,0.2 1.4,1 1.4,1.7c0,1.5 0,3 0,4.5c0,1.3 -0.6,1.9 -1.9,1.9l-27.6,0Z" style="fill:#f7f7f7;fill-rule:nonzero;"/><path d="M378.23,224.813c8.8,0 17.6,0 26.3,0c0.6,0 1.2,0 1.7,0.1c0.9,0.1 1.3,0.5 1.4,1.5c0,1.6 0.1,3.2 0,4.8c0,1 -0.5,1.6 -1.5,1.8c-0.6,0.1 -1.1,0.1 -1.7,0.1l-53.9,0c-1.1,-0.1 -1.7,-0.6 -1.7,-1.8c0,-1.7 0,-3.3 0,-5c0,-1 0.3,-1.3 1.3,-1.4c0.6,0 1.1,0 1.7,0c8.9,-0.1 17.6,-0.1 26.4,-0.1Z" style="fill:#f7f7f7;fill-rule:nonzero;"/><path d="M531.23,277.813c-1.5,0 -3.1,-0.1 -4.6,0c-1.3,0.1 -2.3,-0.4 -3.1,-1.5c-0.5,-0.7 -1.1,-1.4 -1.7,-2.2c-2,-2.6 -4,-5.2 -6,-7.8c-0.1,-0.1 -0.2,-0.3 -0.3,-0.4c-0.7,-0.9 -0.3,-1.9 0.8,-2.2c0.3,-0.1 0.6,-0.1 0.9,-0.1c3.2,0 6.4,0 9.6,0c1.2,0 1.9,0.6 2.6,1.4c1.4,1.8 2.8,3.6 4.2,5.4c1.3,1.6 2.5,3.3 3.8,4.9c0.2,0.3 0.5,0.6 0.7,1c0.3,0.5 0,1.1 -0.5,1.3c-0.4,0.1 -0.9,0.2 -1.4,0.2c-1.7,0 -3.3,0 -5,0Z" style="fill:#f7f7f7;fill-rule:nonzero;"/><path d="M366.53,328.213l0,-10.7c0,-0.8 0.3,-1.1 1.1,-1.3c2.2,-0.4 4.5,-0.5 6.7,-0.2c2.8,0.4 4.8,2.1 5.9,4.7c0.6,1.4 1,2.9 1.1,4.5c0,0.4 0.1,0.8 0.2,1.2c0.2,0.8 0.2,1.6 0,2.4c-0.2,1.1 -0.3,2.3 -0.4,3.4c-0.3,2 -1.1,3.8 -2.3,5.3c-1.4,1.8 -3.3,2.8 -5.6,2.8c-1.8,0 -3.7,0 -5.5,-0.3c-0.8,-0.1 -1,-0.4 -1.1,-1.1c0,-0.5 0,-0.9 0,-1.4c-0.1,-3.2 -0.1,-6.2 -0.1,-9.3Zm3.1,-0.1c0,2.4 0,4.8 0,7.2c0,1.1 0.4,1.5 1.4,1.6c0.7,0.1 1.4,0.1 2.1,0c1.6,-0.1 2.8,-0.8 3.7,-2.2c0.8,-1.3 1.2,-2.8 1.2,-4.3c0.1,-1.5 0.2,-3 0.1,-4.4c-0.1,-1.3 -0.4,-2.5 -0.8,-3.7c-0.5,-1.3 -1.3,-2.3 -2.7,-2.8c-1.3,-0.5 -2.7,-0.4 -4.1,-0.2c-0.6,0.1 -0.9,0.5 -0.9,1.1l0,7.7Z" style="fill:#f7f7f7;fill-rule:nonzero;"/><path d="M188.73,328.113l0,-10.4c0,-1.4 0.1,-1.4 1.6,-1.7c1.7,-0.3 3.3,-0.3 5,-0.2c3.2,0 5.4,1.6 6.8,4.4c0.7,1.4 1,3 1.3,4.6c0.1,0.7 0.2,1.5 0.2,2.2c0,0.2 0.1,0.3 0,0.5c-0.4,1.9 -0.3,3.9 -0.8,5.8c-0.6,2.2 -1.7,4 -3.4,5.4c-1,0.8 -2.2,1.4 -3.4,1.4c-2.1,0.1 -4.1,0.1 -6.2,-0.3c-0.7,-0.1 -1,-0.4 -1,-1.1c0,-0.6 0,-1.3 0,-1.9c-0.1,-2.8 -0.1,-5.7 -0.1,-8.7Zm3,-0.2l0,7.9c0.1,0.5 0.3,0.9 0.8,1c1.3,0.2 2.6,0.4 3.9,-0.1c1.8,-0.6 2.6,-2.1 3.2,-3.8c0.5,-1.5 0.2,-3.2 0.7,-4.7c0,-0.1 0,-0.2 0,-0.3c-0.3,-0.9 -0.2,-1.9 -0.4,-2.9c-0.1,-0.8 -0.3,-1.6 -0.6,-2.3c-0.6,-1.4 -1.4,-2.7 -3,-3.1c-1.3,-0.4 -2.6,-0.3 -3.9,-0.1c-0.5,0.1 -0.8,0.4 -0.8,0.9c0,0.4 0,0.8 0,1.2c0.1,2.1 0.1,4.2 0.1,6.3Z" style="fill:#f7f7f7;fill-rule:nonzero;"/><path d="M530.23,324.513c0.1,0.4 0.1,0.8 0.2,1.2c0.4,1.7 0.2,3.4 -0.6,5c-1,1.9 -2.6,2.5 -4.6,2.5c-0.1,0 -0.2,0 -0.3,-0.1c-1.2,-0.1 -2,0.8 -1.8,2c0.1,0.5 0.4,0.8 0.9,0.9c0.4,0.1 0.8,0.1 1.2,0.1c1.1,0 2.2,0 3.3,0c2.1,0.1 3.4,1.4 3.5,3.4c0,0.9 0.1,1.7 0,2.6c-0.1,1.9 -0.9,3.4 -2.6,4.4c-2.3,1.3 -4.7,1.4 -7.1,0.3c-1.5,-0.7 -2.3,-1.9 -2.5,-3.5c-0.1,-0.8 -0.1,-1.7 0,-2.6c0.1,-0.6 0.4,-1.2 0.7,-1.7c0.3,-0.6 0.5,-1.2 0.1,-1.8c-0.7,-1.3 -0.2,-2.6 0.3,-3.8c0.1,-0.2 0.2,-0.4 0.3,-0.6c0.3,-0.6 0.4,-1.2 0,-1.8c-0.8,-1.1 -0.9,-2.4 -0.9,-3.8c0,-1 0,-1.9 0.4,-2.9c0.4,-1 1,-1.8 1.8,-2.5c0.7,-0.5 1.5,-0.9 2.4,-0.8c0.9,0.1 1.7,0.1 2.6,0.2c0.5,0 0.9,0.1 1.4,0.1c0.6,0 1.1,0 1.7,0c1.5,0 1.6,0.8 1.4,1.7c0,0.3 -0.3,0.6 -0.6,0.8c-0.4,0.4 -0.8,0.5 -1.2,0.7Zm-4.3,14.9c-0.7,0 -1.4,0 -2.1,0c-1,0.1 -1.6,0.6 -1.6,1.6c0,0.4 -0.1,0.8 0,1.2c0.2,0.8 0.5,1.7 1.4,2c1.3,0.4 2.6,0.5 3.9,0c1.2,-0.5 2.2,-2.2 1.9,-3.5c-0.2,-0.8 -0.7,-1.2 -1.6,-1.3c-0.6,-0.1 -1.2,0 -1.9,0Zm1.9,-12.3c0,-0.4 0,-0.8 0,-1.2c-0.1,-0.8 -0.5,-1.6 -1.2,-1.9c-1.6,-0.7 -3.4,-0.1 -3.6,2.1c-0.1,0.6 0,1.3 0,1.9c0,1.3 1.1,2.5 2.3,2.5c1.2,0 2.4,-1.1 2.5,-2.4c0.1,-0.3 0,-0.6 0,-1Z" style="fill:#f7f7f7;fill-rule:nonzero;"/><path d="M352.53,339.313c-0.5,0.2 -0.8,0.4 -1.2,0.6c-2.7,1.2 -5.8,-0.2 -6.6,-3c-0.8,-2.6 -1.1,-5.2 -0.7,-8c0.2,-1.6 0.5,-3.2 1.2,-4.6c1.1,-2 2.7,-3.2 5.1,-3.1c0.6,0 1.1,0.1 1.7,0.1c0.6,0 0.9,-0.2 0.9,-0.8c0.1,-0.5 0.1,-0.9 0.1,-1.4c0,-1.3 0,-2.6 0,-4c0,-1 0.4,-1.4 1.5,-1.5c0.2,0 0.5,0 0.7,0.1c0.5,0.1 0.8,0.4 0.9,0.9l0,23.9c-0.1,1 -0.4,1.3 -1.4,1.3c-0.9,0.2 -1.5,-0.1 -2.2,-0.5Zm0.5,-8.9c0,-1.2 0,-2.4 0,-3.6c0,-0.4 0,-0.8 -0.1,-1.2c-0.1,-0.3 -0.3,-0.7 -0.5,-0.8c-1.7,-1.2 -4.1,-0.5 -4.9,1.4c-0.2,0.5 -0.3,1.1 -0.4,1.7c-0.1,0.5 -0.1,1 -0.2,1.5c-0.4,1.8 -0.1,3.7 0.4,5.4c0.5,2.1 2.2,2.9 4.2,2c0.9,-0.4 1.5,-1 1.4,-2.1c0,-1.4 0.1,-2.9 0.1,-4.3Z" style="fill:#f7f7f7;fill-rule:nonzero;"/><path d="M476.53,322.513c0.5,-0.3 0.8,-0.4 1.1,-0.6c0.9,-0.6 1.9,-0.8 2.9,-0.8c2.6,-0.1 3.9,1.9 4.2,3.8c0.2,1.3 0.2,2.7 0.3,4.1l0,10.1c-0.1,0.4 -0.3,0.7 -0.8,0.8c-0.2,0 -0.3,0 -0.5,0c-1.4,0 -1.7,-0.1 -1.7,-1.6l0,-12.2c-0.2,-1.3 -1.4,-2.1 -2.6,-1.8c-0.4,0.1 -0.8,0.2 -1.2,0.4c-1.4,0.5 -1.8,1 -1.8,2.5l0,11.2c0.1,1.5 -0.3,1.6 -1.7,1.6c-0.9,0 -1.2,-0.3 -1.3,-1.3l0,-23.4c0.1,-0.9 0.4,-1.4 1.3,-1.5c1.3,-0.2 1.7,0.2 1.7,1.4c0,1.9 0,3.9 0,5.8c0,0.4 0.1,0.8 0.1,1.5Z" style="fill:#f7f7f7;fill-rule:nonzero;"/><path d="M431.23,328.013c0,-3.3 0,-6.7 0,-10c0,-1.6 0.2,-1.8 1.8,-1.8c2.5,0 5,0 7.6,0c0.2,0 0.5,0 0.7,0.1c0.4,0.1 0.7,0.4 0.8,0.8c0,0.2 0,0.3 0,0.5c0.1,1.8 -0.1,2 -1.9,2c-1.5,0 -3,0 -4.5,0c-0.9,0 -1.1,0.3 -1.1,1.1c0,1.3 0,2.6 0,4c0,1 0.2,1.2 1.3,1.2c0.9,0 1.7,0 2.6,0c0.3,0 0.7,0 1,0.1c0.2,0.1 0.5,0.3 0.6,0.6c0.1,0.2 0.1,0.6 0.1,0.8c0,1.5 -0.2,1.7 -1.6,1.7c-0.9,0 -1.8,0 -2.8,0c-0.9,0 -1.1,0.3 -1.1,1.1c0,1.8 0,3.6 0,5.3c0,0.6 0.3,1 0.9,1l6.2,0c0.7,0.1 1,0.5 0.9,1.2c0,0.3 -0.1,0.6 -0.2,0.8c-0.3,1.1 -0.4,1.2 -1.5,1.2c-2.7,0 -5.4,0 -8.1,0c-0.3,0 -0.6,0 -0.9,-0.1c-0.4,-0.1 -0.6,-0.3 -0.7,-0.7c0,-0.5 -0.1,-0.9 -0.1,-1.4c0,-3 0,-6.2 0,-9.5Z" style="fill:#f7f7f7;fill-rule:nonzero;"/><path d="M386.03,324.713c-0.6,-0.6 -0.6,-1.4 -0.6,-2.2c0,-0.2 0.2,-0.5 0.4,-0.7c0.3,-0.2 0.7,-0.4 1.1,-0.5c2.1,-0.3 4.2,-0.3 6.2,0.5c0.3,0.1 0.5,0.3 0.7,0.4c0.5,0.3 0.8,0.8 0.8,1.4l0,12.1c0.1,0.7 0.3,1 1,1.2c0.1,0 0.2,0 0.3,0c1.2,0 1.3,0.8 1.1,1.7c-0.2,1 -0.6,1.4 -1.6,1.6c-1,0.2 -1.8,0 -2.6,-0.7c-0.6,-0.6 -1.2,-0.6 -1.8,-0.1c-0.9,0.7 -2,0.9 -3.1,0.9c-1.9,0 -3.2,-1.1 -3.8,-2.9c-0.6,-1.6 -0.5,-3.1 0,-4.7c0.5,-1.6 1.6,-2.6 3.3,-2.9c1,-0.2 2.1,-0.2 3.1,-0.2c0.9,-0.1 1.2,-0.3 1.2,-1.1c0,-0.9 0,-1.8 0,-2.8c0,-0.5 -0.3,-0.9 -0.8,-1c-1,-0.3 -2.1,-0.6 -3.2,-0.3c-0.3,0.2 -0.9,0.4 -1.7,0.3Zm5.9,7.5c-0.3,-0.1 -0.6,-0.2 -1,-0.3c-0.5,0 -0.9,0.1 -1.4,0.2c-2.1,0.3 -2.6,0.8 -2.5,2.9c0,0.2 0,0.5 0,0.7c0.1,0.8 0.5,1.4 1.4,1.6c1.2,0.3 2.2,-0.2 3.2,-0.8c0.2,-0.1 0.3,-0.5 0.4,-0.8c0,-1.1 0.2,-2.3 -0.1,-3.5Z" style="fill:#f7f7f7;fill-rule:nonzero;"/><path d="M287.53,324.813c-1.2,-3 -0.4,-3.4 2,-3.7c1.5,-0.2 3,-0.2 4.4,0.4c0.4,0.1 0.7,0.3 1.1,0.5c1,0.4 1.4,1.2 1.4,2.3c-0.1,3.3 0,6.5 0,9.8c0,0.3 0,0.7 0,1c0.1,1.4 0.1,1.5 1.5,1.8c0.7,0.1 1,0.4 0.9,1.2c0,0.9 -0.5,1.6 -1.3,1.9c-0.8,0.4 -1.8,0.5 -2.4,-0.2c-1,-1 -1.7,-0.8 -2.8,-0.1c-1.3,0.9 -2.9,0.7 -4.3,0.2c-0.7,-0.3 -1.2,-0.8 -1.6,-1.5c-1.1,-2 -1.2,-4.1 -0.3,-6.1c0.7,-1.5 1.8,-2.5 3.6,-2.6c0.9,-0.1 1.8,-0.1 2.7,-0.2c0.9,-0.1 1.2,-0.3 1.2,-1.3c0,-0.9 0,-1.7 0,-2.6c0,-0.5 -0.3,-0.9 -0.8,-1c-1,-0.4 -2,-0.6 -3,-0.3c-0.8,0.2 -1.5,0.4 -2.3,0.5Zm6.1,9.2l0,-1.2c-0.1,-0.6 -0.3,-0.9 -0.9,-0.9c-1,0.1 -1.9,0.2 -2.9,0.4c-0.8,0.2 -1.2,0.8 -1.3,1.6c0,0.6 0,1.1 0,1.7c0.1,1 1,1.8 2,1.7c0.7,-0.1 1.4,-0.4 2.1,-0.7c0.6,-0.3 0.9,-0.8 0.9,-1.5c0,-0.3 0.1,-0.7 0.1,-1.1Z" style="fill:#f7f7f7;fill-rule:nonzero;"/><path d="M420.43,329.913l0,6c0.1,0.5 0.3,0.8 0.8,0.9c0.2,0.1 0.5,0 0.7,0.1c0.8,0.2 1.1,0.5 1,1.3c-0.1,1.1 -0.7,1.8 -1.8,2c-0.9,0.1 -1.7,0 -2.4,-0.7c-0.6,-0.6 -1.2,-0.6 -1.8,-0.1c-1.1,0.8 -2.3,1 -3.6,0.9c-1.5,-0.1 -2.8,-1.2 -3.3,-2.6c-0.6,-1.7 -0.5,-3.4 0,-5c0.5,-1.5 1.5,-2.4 3,-2.8c0.7,-0.2 1.5,-0.2 2.2,-0.3c0.4,0 0.8,0 1.2,0c0.7,-0.1 1.1,-0.3 1.1,-1.1c0,-0.9 0,-1.8 0,-2.7c0,-0.6 -0.3,-1 -0.9,-1.1c-0.9,-0.3 -1.9,-0.6 -2.9,-0.2c-0.4,0.1 -0.8,0.2 -1.2,0.2c-1.1,0.2 -1.4,-0.1 -1.7,-1.1c-0.1,-0.3 -0.1,-0.6 -0.1,-0.9c0,-0.4 0.2,-0.7 0.5,-0.8c0.5,-0.2 1,-0.5 1.5,-0.5c1.8,-0.1 3.6,-0.3 5.3,0.4c0.3,0.1 0.6,0.2 1,0.4c0.8,0.4 1.3,1.1 1.2,2.1c0.1,1.7 0.2,3.7 0.2,5.6Zm-2.9,4.2c0.1,0 0.1,0 0,0c0,-0.3 0,-0.7 0,-1c0,-0.8 -0.4,-1.2 -1.2,-1.1c-0.7,0.1 -1.5,0.2 -2.2,0.3c-0.3,0.1 -0.5,0.2 -0.8,0.3c-1.2,0.7 -1.2,3.7 0,4.5c1,0.6 3.2,0.2 3.9,-0.8c0.2,-0.2 0.2,-0.5 0.3,-0.8c0.1,-0.5 0,-0.9 0,-1.4Z" style="fill:#f7f7f7;fill-rule:nonzero;"/><path d="M501.43,337.113c0.2,0.2 0.2,0.3 0.2,0.3c0.3,1 0.2,1.9 -0.7,2.4c-1,0.6 -2,0.6 -2.9,0c-0.4,-0.2 -0.7,-0.6 -1.1,-0.9c-0.4,0.2 -0.8,0.3 -1.2,0.6c-0.9,0.6 -1.9,0.8 -2.9,0.8c-2.3,-0.1 -3.8,-1.5 -4,-3.8c-0.1,-1 0,-1.9 0,-2.9c0,-1.3 0.7,-2.2 1.6,-2.9c0.7,-0.6 1.4,-1 2.3,-1c0.9,0 1.8,-0.1 2.7,-0.1c0.8,-0.1 1.1,-0.4 1.2,-1.2c0,-0.9 0,-1.7 0,-2.6c0,-0.6 -0.3,-1 -0.9,-1.1c-1,-0.3 -2.1,-0.6 -3.2,-0.2c-0.6,0.2 -1.3,0.4 -2.1,0.3c-0.1,-0.4 -0.2,-0.8 -0.3,-1.1c-0.5,-1.5 0.1,-1.9 1.3,-2.1c2.1,-0.5 4.2,-0.4 6.2,0.4c1.5,0.6 1.7,1.3 1.7,2.5c-0.1,3.3 0,6.6 0,10c0,0.4 0,0.8 0,1.2c0.1,0.9 0.4,1.3 1.4,1.5c0.1,-0.2 0.4,-0.2 0.7,-0.1Zm-4.9,-2.8l0,-1.3c-0.1,-0.5 -0.4,-0.9 -0.9,-0.9c-1,0.1 -1.9,0.2 -2.9,0.4c-0.7,0.2 -1.1,0.7 -1.2,1.5c0,0.6 0,1.3 0,1.9c0.1,0.9 0.8,1.7 1.7,1.6c1,-0.1 1.9,-0.2 2.7,-0.9c0.7,-0.6 0.5,-1.4 0.5,-2.1c0.1,-0.1 0.1,-0.2 0.1,-0.2Z" style="fill:#f7f7f7;fill-rule:nonzero;"/><path d="M336.53,331.413c-1,0 -2.1,0 -3.1,0c-0.8,0 -1.1,0.4 -1.1,1.2c0,1 0.3,2.1 0.8,3c0.4,0.8 1.2,1.2 2.1,1.3c1.1,0.1 2.2,0.1 3.2,-0.4c0.3,-0.1 0.5,-0.2 0.8,-0.3c0.4,-0.1 0.8,0.1 1,0.5c0.2,0.5 0.3,1 0.4,1.5c0.2,0.7 0,1.1 -0.7,1.4c-0.6,0.2 -1.2,0.5 -1.8,0.6c-1.2,0.3 -2.5,0.3 -3.8,0c-2.3,-0.5 -3.6,-2.2 -4.4,-4.4c-0.8,-2.4 -0.7,-4.9 -0.5,-7.3c0.1,-1.8 0.7,-3.6 1.7,-5.1c1.6,-2.4 5.1,-2.6 6.9,-1.5c0.5,0.3 0.9,0.7 1.3,1.1c0.8,1.1 1.4,2.3 1.4,3.8c0,0.9 0.2,1.7 0.2,2.6c0,0.3 0,0.7 -0.1,1c-0.1,0.7 -0.4,1 -1.1,1.1c-1,-0.1 -2.1,-0.2 -3.2,-0.1c0,-0.1 0,0 0,0Zm1.3,-2.7c0.3,-0.9 0.2,-1.8 0.1,-2.6c-0.3,-1.5 -1.4,-2.3 -2.8,-2.2c-1.2,0.1 -1.8,0.9 -2.2,1.9c-0.2,0.5 -0.2,1 -0.3,1.5c-0.3,1.3 -0.1,1.6 1.2,1.6c1,0 2.1,0 3.1,0c0.2,0 0.6,-0.1 0.9,-0.2Z" style="fill:#f7f7f7;fill-rule:nonzero;"/><path d="M217.13,336.013c0.2,0.8 0.4,1.4 0.6,2c0.2,0.9 0,1.2 -0.8,1.6c-1.7,0.7 -3.5,1 -5.2,0.6c-2.2,-0.5 -3.8,-2 -4.4,-4.1c-0.7,-2.3 -1.1,-4.7 -0.6,-7.1c0.1,-0.4 0.1,-0.9 0.1,-1.4c0.3,-2 1,-3.8 2.6,-5.3c2.1,-1.9 6.4,-1.5 7.9,1.7c0.9,2.1 1,4.3 0.9,6.6c0,0.5 -0.3,0.7 -0.8,0.8l-6,0c-1.7,0 -2.1,0.5 -1.6,2.3c0.1,0.3 0.2,0.7 0.3,1c0.4,1.4 1.4,2.2 2.9,2.3c0.9,0.1 1.8,0 2.7,-0.4c0.2,-0.3 0.7,-0.4 1.4,-0.6Zm-4.6,-12.1c-1.1,0 -2.2,0.9 -2.6,2.2c-0.2,0.6 -0.3,1.2 -0.4,1.8c-0.1,0.5 0.1,1 0.6,1c1.4,0 2.8,0 4.3,0c0.5,0 0.8,-0.5 0.8,-1c-0.1,-0.7 -0.1,-1.4 -0.3,-2c-0.2,-1.2 -1.2,-2 -2.4,-2Z" style="fill:#f7f7f7;fill-rule:nonzero;"/><path d="M241.43,331.413c-1,0 -2.1,0 -3.1,0c-0.8,0 -1.1,0.4 -1.1,1.2c0,1.1 0.3,2.1 0.7,3c0.4,0.8 1.2,1.2 2.1,1.4c1,0.1 2.1,0.1 3,-0.3c0.3,-0.1 0.5,-0.2 0.8,-0.3c0.6,-0.2 0.9,0 1.1,0.5c0.1,0.3 0.2,0.7 0.3,1c0.3,1 0.3,1.5 -1,2c-1.6,0.6 -3.3,0.7 -4.9,0.5c-2.1,-0.3 -3.5,-1.6 -4.3,-3.6c-0.6,-1.5 -1.1,-3 -0.9,-4.7c0.1,-0.7 0,-1.4 0,-2.1c-0.1,-2.1 0.5,-4.1 1.4,-5.9c1.1,-2 2.8,-3 5.1,-2.8c2.2,0.2 3.5,1.4 4.4,3.4c0.4,0.9 0.6,1.8 0.5,2.8c-0.1,1 0,2.1 0,3.1c0,0.6 -0.3,0.9 -0.8,0.9c-1.1,-0.2 -2.2,-0.2 -3.3,-0.1c0,-0.1 0,-0.1 0,0Zm-1.4,-2.5c0.6,0 1.3,0 1.9,0c0.4,0 0.7,-0.2 0.8,-0.6c0.2,-1.3 0.2,-2.5 -0.7,-3.6c-0.9,-1.2 -2.6,-1.2 -3.6,-0.1c-0.8,0.9 -1,2.1 -1.2,3.2c-0.1,0.6 0.3,1 0.9,1c0.6,0.1 1.3,0.1 1.9,0.1Z" style="fill:#f7f7f7;fill-rule:nonzero;"/><path d="M541.93,331.413c-1.1,0 -2.2,0 -3.3,0c-0.9,0 -1.2,0.5 -1.1,1.4c0.1,0.7 0.3,1.5 0.5,2.2c0.4,1.2 1.3,1.9 2.5,2c1,0.1 1.9,0 2.9,-0.3c0.3,-0.1 0.6,-0.3 1,-0.4c0.5,-0.1 0.9,0.1 1,0.6c0.6,2 0.3,2.4 -1.7,3.1c-1.3,0.4 -2.6,0.4 -3.9,0.2c-1.8,-0.3 -3.1,-1.3 -4,-2.9c-1.3,-2.5 -1.6,-5.2 -1.3,-8c0.1,-1.2 0.4,-2.4 0.7,-3.5c0.6,-2 1.7,-3.7 3.8,-4.3c2.6,-0.8 5.4,0.1 6.5,3.5c0.6,1.8 0.5,3.6 0.5,5.4c0,0.8 -0.3,1 -1.1,1c-0.9,0 -2,-0.1 -3,0c0,-0.1 0,0 0,0Zm-1.5,-2.5l1.9,0c0.7,-0.1 1,-0.3 1,-1.1c0,-1 -0.2,-1.9 -0.7,-2.8c-0.8,-1.4 -2.5,-1.6 -3.6,-0.5c-1,0.9 -1.1,2.2 -1.3,3.4c-0.1,0.6 0.2,0.9 0.9,1c0.6,0.1 1.2,0 1.8,0Z" style="fill:#f7f7f7;fill-rule:nonzero;"/><path d="M252.93,322.413c0.5,-0.3 0.8,-0.4 1.2,-0.6c1,-0.7 2.2,-0.7 3.3,-0.6c1.6,0.2 3,1.6 3.3,3.3c0.2,1 0.3,1.9 0.3,2.9c0,3.7 0,7.3 0,11c0,1.4 -0.2,1.6 -1.6,1.6c-0.4,0 -0.8,-0.1 -1.3,-0.2c-0.1,-0.5 -0.2,-0.9 -0.2,-1.4l0,-12.1c-0.1,-1.5 -1.5,-2.4 -2.9,-2c-0.4,0.1 -0.9,0.3 -1.3,0.5c-0.9,0.4 -1.4,1.1 -1.4,2.2c0.1,2.6 0,5.3 0,7.9c0,1.1 0,2.2 0,3.3c0,0.3 0,0.7 -0.1,1c-0.1,0.5 -0.4,0.7 -0.8,0.8c-1.4,0.1 -1.9,0 -1.9,-1.6c0.1,-4.7 0,-9.4 0,-14.1c0,-0.5 0,-1 0,-1.5c0,-0.9 0.4,-1.1 1.3,-1.2c1,-0.2 1.5,0.3 2.1,0.8Z" style="fill:#f7f7f7;fill-rule:nonzero;"/><path d="M507.83,322.413c0.7,-0.4 1.1,-0.7 1.7,-0.9c1.5,-0.5 3,-0.7 4.4,0.3c0.9,0.6 1.3,1.5 1.6,2.4c0.2,0.6 0.3,1.3 0.3,2c0,4 0,8 0,12c0,1.6 -0.3,1.8 -2,1.7c-0.6,-0.1 -0.9,-0.4 -1,-1l0,-12.7c-0.1,-1.3 -1,-2.1 -2.3,-1.9c-0.5,0.1 -1,0.2 -1.5,0.4c-1.4,0.5 -1.7,0.9 -1.7,2.4l0,11.4c0,0.5 0.1,1 -0.3,1.3c-0.6,0.4 -1.3,0.3 -2,0.1c-0.2,-0.1 -0.3,-0.3 -0.4,-0.5c-0.1,-0.3 -0.1,-0.7 -0.1,-1l0,-16c0.1,-0.4 0.3,-0.6 0.7,-0.7c0.6,-0.1 1.3,-0.1 1.8,0.3c0.3,0 0.5,0.2 0.8,0.4Z" style="fill:#f7f7f7;fill-rule:nonzero;"/><path d="M451.23,327.913c0.5,-1 0.8,-1.8 1.1,-2.5c0.4,-0.9 0.9,-1.9 1.3,-2.8c0.3,-0.8 0.9,-1.1 1.7,-1.1c0.3,0 0.6,0 0.9,0c0.7,0.1 0.9,0.4 0.6,1c-0.4,0.9 -0.9,1.8 -1.4,2.8c-0.7,1.4 -1.4,2.7 -2.2,4.1c-0.4,0.7 -0.4,1.4 0,2.1c1.2,2.3 2.3,4.6 3.5,6.9c0.1,0.3 0.3,0.5 0.4,0.8c0.1,0.3 0,0.6 -0.3,0.7c-0.5,0.1 -1.1,0.3 -1.7,0.3c-0.6,0 -1,-0.4 -1.3,-1c-0.5,-1 -1,-1.9 -1.4,-2.9c-0.4,-0.8 -0.7,-1.6 -1.1,-2.3c-0.2,-0.4 -0.8,-0.4 -1,0c-0.3,0.7 -0.6,1.3 -0.9,2c-0.5,1.1 -1,2.2 -1.5,3.3c-0.5,0.9 -0.8,1 -1.8,0.9c-0.4,-0.1 -0.9,-0.2 -1.4,-0.3c0.1,-0.4 0.1,-0.7 0.3,-1c1.2,-2.4 2.3,-4.9 3.5,-7.2c0.5,-1 0.5,-1.8 -0.1,-2.7c-1,-1.8 -2,-3.7 -3,-5.6c-0.1,-0.1 -0.1,-0.2 -0.2,-0.3c-0.4,-0.8 -0.1,-1.3 0.8,-1.4c1.2,-0.1 2.1,0.3 2.6,1.5c0.6,1.4 1.3,2.7 1.9,4c0.2,0 0.4,0.2 0.7,0.7Z" style="fill:#f7f7f7;fill-rule:nonzero;"/><path d="M319.53,336.813c2.2,0.4 4.5,-0.1 6.7,0.3c0.5,0.6 0.4,1.3 0.6,2c0.1,0.3 -0.2,0.7 -0.5,0.8c-0.3,0.1 -0.6,0.1 -0.9,0.1c-2.8,0 -5.5,0 -8.3,0c-0.3,0 -0.6,0 -0.8,-0.1c-0.2,-0.1 -0.4,-0.2 -0.5,-0.4c-0.3,-0.9 -0.6,-1.8 0,-2.8c1.3,-2 2.5,-4.1 3.7,-6.2c0.9,-1.5 1.8,-3.1 2.7,-4.6c0.1,-0.2 0.2,-0.4 0.3,-0.6c0.1,-0.2 -0.1,-0.7 -0.3,-0.7c-0.3,0 -0.7,-0.1 -1,-0.1c-1.3,0 -2.5,0 -3.8,0c-0.3,0 -0.6,-0.1 -0.8,-0.1c-0.6,-0.6 -0.5,-1.3 -0.6,-2c0,-0.5 0.3,-0.9 0.8,-0.9c2.9,0 5.8,0 8.8,0.1c0.1,0 0.2,0.1 0.3,0.2c0.4,0.6 0.3,1.3 0.4,2c0,0.4 -0.1,0.8 -0.3,1.1c-0.5,0.9 -1.1,1.8 -1.6,2.7c-1.5,2.6 -3.1,5.1 -4.6,7.7c-0.1,0.3 -0.5,0.7 -0.3,1.5Z" style="fill:#f7f7f7;fill-rule:nonzero;"/><path d="M459.53,330.513c-0.1,-1.5 0.1,-3.4 0.8,-5.1c0.5,-1.1 1.1,-2.1 2,-3c0.7,-0.7 1.5,-1.1 2.4,-1.2c1.4,-0.2 2.8,-0.1 4.1,0.3c0.3,0.1 0.7,0.4 0.7,0.6c0,0.7 -0.1,1.5 -0.2,2.2c-0.1,0.4 -0.6,0.6 -1.1,0.5c-0.8,-0.3 -1.6,-0.3 -2.4,-0.3c-1.3,0 -2.1,0.7 -2.6,1.8c-0.2,0.5 -0.4,1 -0.5,1.5c-0.2,2.3 -0.4,4.6 0.3,6.8c0.5,1.6 1.6,2.3 3.2,2.3c0.8,0 1.6,-0.2 2.3,-0.5c0.7,-0.3 1.1,0 1.2,0.7c0.1,0.3 0.1,0.6 0.1,0.8c0.3,0.9 -0.1,1.4 -0.9,1.7c-2.3,0.8 -4.5,0.9 -6.6,-0.5c-0.7,-0.5 -1.2,-1 -1.6,-1.8c-0.8,-1.6 -1.3,-3.3 -1.3,-5.1c0.1,-0.4 0.1,-0.9 0.1,-1.7Z" style="fill:#f7f7f7;fill-rule:nonzero;"/><path d="M407.23,336.713c0.7,0.7 0.7,1.6 0.7,2.4c0,0.4 -0.3,0.6 -0.7,0.7c-1.2,0.4 -2.4,0.5 -3.6,0.3c-1.2,-0.2 -1.9,-1.1 -2.4,-2.1c-0.4,-0.8 -0.6,-1.7 -0.6,-2.7l0,-10.5c-0.4,-0.2 -0.7,-0.3 -1,-0.4c-0.8,-0.2 -0.9,-0.9 -1,-1.6c0,-0.6 0.2,-1.2 0.9,-1.3c1,-0.2 1.2,-0.8 1.1,-1.6c0,-0.5 0,-0.9 0,-1.4c0,-0.8 0.3,-1.1 1.1,-1.3c0.3,-0.1 0.6,-0.1 0.8,-0.1c0.4,0 0.8,0.3 0.8,0.7l0,2.5c0.1,0.7 0.3,1 1.1,1.1c0.5,0 1,0 1.5,0c0.7,0.1 1,0.4 1,1.1c0,0.2 0,0.3 0,0.5c-0.1,1 -0.4,1.3 -1.3,1.4c-0.5,0 -0.9,0 -1.4,0c-0.6,0 -0.8,0.3 -0.9,0.8l0,9.4c0.1,1.7 0.6,2.2 2.4,2.1c0.6,0.2 1,0.1 1.5,0Z" style="fill:#f7f7f7;fill-rule:nonzero;"/><path d="M231.03,322.013c0.2,0.9 0.2,1.6 -0.1,2.3c-0.2,0.4 -0.5,0.6 -0.9,0.6c-0.3,0 -0.7,-0.2 -1,-0.2c-0.6,-0.1 -1.3,-0.1 -1.9,-0.1c-1.3,0 -2.1,0.7 -2.4,1.8c-0.4,1.3 -0.7,2.7 -0.7,4c0,1.5 0.3,3 0.7,4.4c0.3,1.4 1.3,2.1 2.8,2.1c0.7,0 1.4,0 2,-0.3c0.3,-0.1 0.5,-0.2 0.8,-0.3c0.4,-0.1 0.8,0.1 0.9,0.5c0.1,0.3 0.1,0.6 0.2,0.8c0.3,1.4 0.1,1.8 -1.3,2.2c-1.9,0.5 -3.8,0.7 -5.7,-0.4c-0.9,-0.5 -1.5,-1.2 -2,-2.1c-0.8,-1.4 -1.2,-3 -1.3,-4.6c-0.1,-1.3 -0.1,-2.6 0,-3.9c0.1,-1.7 0.5,-3.3 1.3,-4.8c0.6,-1.2 1.6,-2.1 2.8,-2.6c0.2,-0.1 0.4,-0.2 0.6,-0.2c1.8,-0.1 3.5,-0.3 5.2,0.8Z" style="fill:#f7f7f7;fill-rule:nonzero;"/><path d="M264.73,324.113c0,-0.7 0,-1.5 0,-2.1c1.6,-1 1.6,-1 1.6,-2.9c0,-0.2 0,-0.5 0,-0.7c0,-0.5 0.3,-0.9 0.7,-1.1c0.2,-0.1 0.4,-0.2 0.7,-0.2c0.8,-0.2 1.3,0.1 1.3,1.1c0,0.5 0,0.9 0,1.4c0,1.7 0.1,1.9 1.9,1.9c1.8,0 1.8,0.6 1.7,2c-0.1,0.9 -0.3,1.1 -1.2,1.1c-0.6,0 -1.1,0 -1.7,0.1c-0.4,0 -0.6,0.3 -0.7,0.7l0,9.3c0,0.6 0.1,1.1 0.4,1.7c0.2,0.4 0.6,0.7 1.1,0.7c0.6,0 1.1,-0.1 1.7,-0.1c0.2,0 0.4,0 0.7,0c0.4,0.5 0.5,1.2 0.6,1.8c0.1,0.7 -0.2,1.1 -0.9,1.3c-1,0.4 -2.1,0.5 -3.2,0.2c-1.3,-0.3 -2.2,-1.2 -2.6,-2.5c-0.3,-0.8 -0.4,-1.6 -0.4,-2.5l0,-9.3c0,-0.7 -0.3,-1.2 -1,-1.4c-0.2,-0.2 -0.4,-0.3 -0.7,-0.5Z" style="fill:#f7f7f7;fill-rule:nonzero;"/><path d="M304.43,326.913l0,12.2c0,0.2 -0.1,0.5 -0.3,0.6c-0.6,0.3 -1.3,0.3 -2,0.1c-0.2,-0.1 -0.3,-0.3 -0.4,-0.5c-0.1,-0.4 -0.1,-0.8 -0.1,-1.2l0,-23.2c0.1,-0.7 0.4,-1 1.1,-1.1c1.4,-0.1 1.7,0.2 1.7,1.5l0,11.6Z" style="fill:#f7f7f7;fill-rule:nonzero;"/><path d="M279.63,322.813c0.5,-0.4 0.9,-0.7 1.2,-1c0.7,-0.6 1.5,-0.8 2.4,-0.7c0.5,0.1 0.8,0.3 0.9,0.9c0,0.1 0,0.2 0,0.3c0.1,1.9 -0.1,2.2 -2,2.3c-1.7,0.1 -2.7,1.1 -2.7,2.9l0,10.7c0.2,1.6 -0.5,1.7 -1.7,1.6c-0.7,0 -0.9,-0.3 -1,-0.9l0,-16c0,-0.6 0,-1.2 0.7,-1.4c0.4,-0.1 0.9,-0.1 1.3,0c0.3,0.1 0.5,0.4 0.7,0.7c0.1,0.2 0.1,0.4 0.2,0.6Z" style="fill:#f7f7f7;fill-rule:nonzero;"/><path d="M312.13,330.613l0,8.2c-0.1,0.8 -0.3,1 -1,1.1c-0.2,0 -0.5,0 -0.7,0c-0.7,0 -0.9,-0.3 -1,-0.9l0,-16.6c0,-0.4 0.3,-0.8 0.8,-0.8c0.4,-0.1 0.8,0 1.2,0c0.4,0.1 0.7,0.4 0.7,0.8l0,8.2Z" style="fill:#f7f7f7;fill-rule:nonzero;"/><path d="M312.53,316.613c0,0.1 0,0.2 0,0.3c-0.1,0.9 -0.9,1.7 -1.6,1.7c-0.6,0.1 -1.3,-0.4 -1.6,-1.3c-0.4,-1.1 0,-2.2 1,-2.8c0.4,-0.2 0.8,-0.2 1.1,0c0.6,0.6 1.1,1.2 1.1,2.1Z" style="fill:#f7f7f7;fill-rule:nonzero;"/></svg>