<?xml version="1.0" encoding="utf-8"?>
<!-- Generator: Adobe Illustrator 22.1.0, SVG Export Plug-In . SVG Version: 6.00 Build 0)  -->
<svg version="1.1" id="图层_1" xmlns="http://www.w3.org/2000/svg" xmlns:xlink="http://www.w3.org/1999/xlink" x="0px" y="0px"
	 viewBox="0 0 595.3 627" style="enable-background:new 0 0 595.3 627;" xml:space="preserve">
<style type="text/css">
	.st0{fill:#6699FF;}
</style>
<g>
	<path class="st0" d="M157,327.4c13.6,13.6,26.9,26.9,41.3,41.3c-1.4,0.8-3.2,1.6-4.4,2.8c-30.1,30-60.2,60-90.2,90.1
		c-10.5,10.6-13.8,23.5-9.6,37.7c4.2,14,13.9,23,28.3,26c12.5,2.7,24.2,0,33.3-9c35.9-35.5,71.5-71.3,107.2-107
		c0.5-0.5,0.8-1,1.9-2.6c-1.6-1.1-3.4-2.1-4.8-3.5c-65.6-65.5-131.3-130.8-196.5-196.6c-27.7-28-35.6-61.9-22.9-99
		C53.4,70.4,81,49,120,44.4c31.2-3.7,57.9,7,80.1,29.3c33.6,33.8,67.4,67.4,101,101.2c1.3,1.3,1.9,3.2,2.9,4.8
		c0.7-0.2,1.4-0.3,2.1-0.5c1-1.4,1.8-2.9,2.9-4.1c34.1-34.2,68.2-68.5,102.5-102.5C438.4,46,470.9,37.3,507,48
		c36.5,10.8,59,36.1,66.1,73.5c6.1,32.2-2.6,60.9-25.7,84.4c-34.3,34.8-69,69.1-103.5,103.6c-1.3,1.3-2.8,2.3-5.4,4.4
		c2.4,1.7,4.2,2.7,5.6,4.1c33.7,33.7,67.5,67.3,101.1,101.1c32.2,32.3,39,79.2,17.1,117c-31.4,54.2-105.7,64-150,19.7
		c-34.4-34.4-68.8-68.8-103.2-103.2c-1.3-1.3-2.6-2.5-4.1-3.9c-1.5,1.4-2.9,2.7-4.1,3.9c-34.3,34.3-68.3,68.8-103,102.8
		c-27.7,27.2-61,35.2-97.6,23.3c-36.4-11.8-58.1-38.2-64.1-75.9c-4.9-30.6,3.8-58,25.5-80.3c30.8-31.6,62.4-62.6,93.6-93.8
		C156,328.2,156.5,327.8,157,327.4z M399.7,273.5c1.3-1.7,2.3-3.1,3.5-4.2c34.1-34.2,68.3-68.3,102.5-102.5
		c15.9-15.9,16.4-39.2,1.2-54.5c-15.3-15.3-38.6-15-54.5,0.8c-65.7,65.7-131.5,131.5-197.2,197.2c-1.1,1.1-2.1,2.4-2.5,2.8
		c18,18,35.6,35.6,53.7,53.7c12.9-12.9,26.1-26.1,38.9-38.9c13.4,13.3,26.8,26.6,40.8,40.5c-13.1,13.1-26.4,26.4-39.9,39.8
		c0.7,0.8,1.5,1.7,2.3,2.5c34.4,34.4,68.8,68.8,103.2,103.2c1.6,1.6,3.4,3.2,5.2,4.6c15.4,12.2,38.6,9.9,51.4-4.9
		c13.8-16,12.6-37.7-3.2-53.5c-60.8-60.8-121.6-121.6-182.4-182.4c-1.4-1.4-3.3-2.3-4.4-3c14.3-14.4,27.7-27.8,41.4-41.6
		C372.8,246.2,386,259.6,399.7,273.5z M264,219.1c-0.6-0.7-1.4-1.7-2.4-2.6c-34.5-34.5-69-69-103.5-103.5c-1.6-1.6-3.4-3.2-5.3-4.6
		c-16.2-12.1-39.4-9-51.9,6.8c-12.6,15.9-10.9,36.9,4.5,52.3c34.1,34.2,68.3,68.3,102.4,102.4c1,1,2.2,1.9,2.8,2.5
		C228.5,254.5,246.2,236.9,264,219.1z"/>
</g>
</svg>
