<?xml version="1.0" encoding="UTF-8" standalone="no"?><!DOCTYPE svg PUBLIC "-//W3C//DTD SVG 1.1//EN" "http://www.w3.org/Graphics/SVG/1.1/DTD/svg11.dtd"><svg width="100%" height="100%" viewBox="0 0 227 229" version="1.1" xmlns="http://www.w3.org/2000/svg" xmlns:xlink="http://www.w3.org/1999/xlink" xml:space="preserve" xmlns:serif="http://www.serif.com/" style="fill-rule:evenodd;clip-rule:evenodd;stroke-linejoin:round;stroke-miterlimit:1.41421;"><path d="M105.468,4.007c-0.1,0.2 -0.1,0.3 -0.2,0.3c-5.4,3.5 -9.8,8.2 -14.1,12.9c-0.8,0.8 -1.6,1.1 -2.7,1c-13.5,-0.7 -24.1,4.7 -31.7,15.7c-3.3,4.8 -5,10.1 -5.7,15.9c-0.2,1.6 0.4,2.5 1.7,3.3c4.3,2.5 9.6,1.9 13.1,-1.9c11.1,-11.6 22.2,-23.3 33.2,-34.9c8.1,-8.6 18.1,-13.7 29.6,-15.6c21.5,-3.5 42.4,6.2 53.9,24.7c19.3,31.1 1.7,72.4 -34.1,79.9c-9.9,2.1 -19.5,1.5 -29,-1.9c-0.3,-0.1 -0.6,-0.2 -0.9,-0.3c-0.2,-0.1 -0.4,-0.2 -0.7,-0.3c0.1,-0.2 0.1,-0.5 0.3,-0.6c5.1,-3.3 9.3,-7.6 13.3,-12c1.2,-1.3 2.4,-1.7 4.1,-1.7c17.6,0.6 32.4,-10.8 36.1,-27.9c0.2,-1 0.4,-2 0.5,-3.1c0.4,-2.7 0.2,-3.1 -2.2,-4.3c-4.3,-2.2 -9.1,-1.3 -12.7,2.4c-11.1,11.6 -22.1,23.4 -33.2,34.9c-10.9,11.3 -24.4,16.6 -39.9,16c-24.9,-0.9 -45.4,-18.3 -50.2,-42.8c-5.9,-29.7 13.8,-57 41.7,-62.5c9.5,-1.9 18.8,-1.3 27.9,1.9c0.5,0.2 1.1,0.4 1.6,0.6c-0.1,-0.1 0,0.1 0.3,0.3Zm60.6,29.6c-0.3,-0.6 -0.5,-1 -0.8,-1.3c-1.6,-1.8 -3.1,-3.7 -4.9,-5.3c-14.6,-13.1 -36.5,-11.1 -48.7,2c-10.9,11.7 -22,23.2 -33,34.8c-5.4,5.7 -12.1,8.5 -19.8,8.8c-0.6,0 -1.2,0.1 -2,0.2c1.7,2.8 3.8,4.9 6,6.9c14.1,12.4 35.5,11.4 48.3,-2.2c11.1,-11.7 22.1,-23.3 33.2,-35c4.5,-4.8 10.1,-7.5 16.5,-8.5c1.7,-0.1 3.3,-0.2 5.2,-0.4Z" style="fill:#ffd700;fill-opacity:0.8;fill-rule:nonzero;"/><path d="M188.968,197.907c0,1.4 0,2.3 0,3.6c-2.3,0 -4.6,0 -7,0c0,0.9 -0.1,1.4 0,1.9c0.8,5.5 2.7,10.5 6.5,14.7c1.4,1.5 1.9,3 1.3,5.2c-2.6,-1.4 -4.6,-3.4 -6.5,-5.5c-2,-2.2 -3.6,-4.7 -4.5,-7.6c-0.9,-2.7 -1.5,-5.5 -2.2,-8.5c-0.4,0 -1,-0.1 -1.8,-0.2c0,5.6 0,11.1 0,16.9c2.3,0 4.5,0 6.9,0c0,1.2 0,2.2 0,3.4c-2.2,0 -4.5,0 -7.1,0c0,2.4 0,4.5 0,6.8c-1.9,0 -3.4,0 -5.2,0c0,-2.1 0,-4.2 0,-6.5c-2.5,0 -4.8,0 -7.2,0c0,-1.3 0,-2.3 0,-3.6c2.3,0 4.6,0 7,0c0,-5.7 0,-11.1 0,-16.7c-0.6,-0.1 -1.1,-0.2 -2,-0.3c-0.8,9.4 -4.9,16.6 -13,21.9c-0.4,-2 -0.3,-3.5 1.1,-5c4.2,-4.7 6.3,-10.3 6.8,-16.8c-2.4,0 -4.7,0 -7,0c0,-1.3 0,-2.3 0,-3.6c4.7,0 9.3,0 14.2,0c0,-2 0,-3.7 0,-5.6c1.8,0 3.4,0 5.2,0c0,1.8 0,3.5 0,5.5c4.9,0 9.6,0 14.5,0Z" style="fill:#ffd700;fill-opacity:0.894118;fill-rule:nonzero;"/><path d="M37.868,228.107c0,-4.3 0,-8.3 0,-12.6c-1.9,0.4 -3.5,0.8 -5.5,1.3c-0.1,-1 -0.1,-1.9 -0.2,-2.9c5.3,-1.6 10.3,-3.6 14.3,-7.8c-1.8,-0.6 -3,-0.5 -4.1,1c-2.3,2.8 -5.5,3.6 -9.2,4c0,-0.8 -0.1,-1.6 -0.1,-2c2.6,-1.4 5,-2.6 7.5,-3.9c0.1,-0.4 0.2,-1 0.4,-1.8c6.4,0 12.8,0 19.4,0c0.2,0.6 0.3,1.2 0.5,1.9c2.2,1.2 4.5,2.4 7.2,3.8c0,0.3 0,1 0.1,2c-3.7,-0.3 -7,-1.2 -9.3,-3.9c-1.1,-1.3 -2.2,-1.6 -4.1,-1c4,4.2 8.9,6.2 14.1,7.7c0,1 0,1.9 0,3c-1.7,-0.4 -3.2,-0.8 -5.1,-1.2c0,1.4 -0.1,2.7 -0.1,4.1c0,1.4 0.1,2.9 0,4.3c-0.2,2.8 -1.5,4 -4.3,4.1c-2.6,0.1 -5.3,0 -7.9,0c-4.4,-0.1 -8.8,-0.1 -13.6,-0.1Zm20.9,-8.7c-5.4,0 -10.7,0 -16.2,0c0.1,0.8 0.2,1.3 0.2,1.9c5.5,0 10.7,0 16,0c0,-0.7 0,-1.2 0,-1.9Zm-16.1,-2.5c5.5,0 10.7,0 16.1,0c0,-0.6 0,-1.1 0,-1.7c-5.4,0 -10.7,0 -16.1,0c0,0.6 0,1.1 0,1.7Zm16,7c-5.5,0 -10.7,0 -16,0c-0.3,1.2 0.3,1.4 1.1,1.4c4.4,0 8.8,0 13.1,0c0.9,0 1.7,-0.1 1.8,-1.4Zm-8,-15.4c-1.6,1.2 -3.1,2.3 -4.9,3.6c3.4,0 6.4,0 9.9,0c-2,-1.4 -3.5,-2.5 -5,-3.6Z" style="fill:#ffd700;fill-opacity:0.894118;fill-rule:nonzero;"/><path d="M0.068,160.707c1.3,0 2.4,0 3.6,0c0.2,0.8 0.4,1.6 0.5,2.4c0.6,2.7 2.3,4.3 4.9,5.1c2.5,0.7 5.1,0.6 7.5,-0.3c2.4,-0.8 3.6,-2.5 3.7,-5c0.1,-2.4 -1.1,-4 -3.2,-4.8c-1.9,-0.7 -4,-1.2 -6,-1.8c-1.5,-0.4 -3.1,-0.7 -4.6,-1.2c-3.9,-1.3 -5.8,-4.1 -5.7,-8.2c0.2,-5.9 3.7,-9.6 9.5,-10c1.1,-0.1 2.2,-0.1 3.4,0.1c5.9,0.6 9.3,4.2 9.5,10.4c-1.2,0 -2.3,0 -3.6,0c-0.1,-0.4 -0.3,-0.9 -0.4,-1.3c-1.4,-4.9 -8,-7.1 -12.1,-4c-1.8,1.3 -2.7,4.7 -1.7,6.7c0.6,1.3 1.8,1.7 3.1,2.1c2.7,0.7 5.4,1.3 8.1,2c2,0.5 3.7,1.3 5.2,2.8c3.3,3.3 3.6,12.2 -2.7,15c-4.3,1.9 -8.7,2 -13.1,0.6c-4.1,-1.5 -6.4,-5.8 -5.9,-10.6Z" style="fill:#ffd700;fill-opacity:0.894118;fill-rule:nonzero;"/><path d="M90.068,223.007c0,-1.1 0,-2 0,-2.8c0.2,-0.1 0.4,-0.3 0.5,-0.3c3,-0.3 3,-0.3 3,-3.3c0,-1.5 0,-3 0,-4.8c-3.5,0 -6.7,0 -10.1,0c0,-1.1 0,-2 0,-3.1c3.2,-0.3 6.5,0 9.9,-0.2c0,-1.1 0,-2.2 0,-3.6c-2,0 -4,0 -6.1,0c-0.2,-0.8 -0.4,-1.4 -0.6,-2.1c-1.2,0.3 -2.3,0.7 -3.6,1c0,-1 0,-1.8 0,-2.7c0.8,-0.4 1.7,-0.9 2.5,-1.3c2.8,-1.5 5.3,-3.4 6.9,-6.1c0.7,-1.2 1.6,-1.7 2.9,-1.5c0.7,0.1 1.4,0 2.2,0c0.4,0.1 1,0.2 1.2,0.6c2.5,3.9 6.1,6.4 10.4,8.2c0,1 0,1.8 0,3c-1.4,-0.5 -2.7,-0.9 -4,-1.4c-0.2,0.7 -0.4,1.2 -0.6,2.1c-1.8,0 -3.8,0 -6,0c0,1.3 0,2.4 0,3.8c3.2,0 6.3,0 9.6,0c0,1.2 0,2.1 0,3.2c-3.2,0 -6.3,0 -9.6,0c-0.1,0.8 -0.2,1.4 -0.2,2c0,1.8 0,3.5 -0.1,5.3c-0.2,2.5 -1.4,3.8 -3.9,4c-1.3,0 -2.7,0 -4.3,0Zm-0.3,-21.2c2.4,0 4.3,0 6.2,0c1.9,0 3.9,0 6.2,-0.1c-2.4,-1.8 -4.3,-3.3 -6.2,-4.7c-1.9,1.5 -3.8,2.9 -6.2,4.8Z" style="fill:#ffd700;fill-opacity:0.894118;fill-rule:nonzero;"/><path d="M93.568,169.507c0,3.8 0,7.5 0,11.3c-1.2,0 -2.3,0 -3.4,0c-0.5,-1.7 -0.7,-27.4 -0.3,-33.9c1,-0.1 2.1,-0.1 3.3,-0.2c0.1,1 0.2,1.7 0.4,2.7c0.4,-0.3 0.6,-0.5 0.9,-0.7c3.7,-3.9 9.2,-3.5 12.4,0.9c1.4,1.9 2,4.2 2.3,6.5c0.5,3.9 0,7.7 -1.8,11.2c-2,3.9 -6.4,5.6 -10.4,4.2c-1,-0.4 -2,-1.2 -3.4,-2Zm-0.3,-9.9c0.2,2.2 0.4,4.2 1.4,6.1c1.1,2 2.8,3 5.1,3c2.2,0 3.6,-1.2 4.5,-3.1c1.7,-3.9 1.9,-7.9 0.5,-11.9c-0.9,-2.5 -2.9,-3.8 -5.3,-3.8c-2.4,0.1 -4.1,1.4 -4.8,3.6c-0.7,2.1 -1,4.1 -1.4,6.1Z" style="fill:#ffd700;fill-opacity:0.894118;fill-rule:nonzero;"/><path d="M187.668,160.607c-0.1,4.5 1.4,7.1 4.3,7.9c3.5,0.9 5.9,-0.5 7.9,-4.6c1.1,0 2.3,0 3.4,0c-0.5,4.3 -3.4,7.8 -8.4,8c-6.3,0.3 -10.2,-2.8 -11.2,-9c-0.6,-3.7 -0.2,-7.3 1.2,-10.8c1.6,-3.9 4.6,-5.9 8.7,-6.1c3.6,-0.2 6.3,1.4 8.1,4.5c1.7,3 1.9,6.3 2.2,10c-5.5,0.1 -10.8,0.1 -16.2,0.1Zm0.1,-3.6c2.3,0.5 10.3,0.4 12,-0.1c-0.3,-4.4 -2.6,-7.1 -6,-6.9c-3.5,0.1 -6,3 -6,7Z" style="fill:#ffd700;fill-opacity:0.894118;fill-rule:nonzero;"/><path d="M70.068,168.507c0.9,0.1 1.5,0.2 2.3,0.3c0,0.9 0,1.7 0,2.5c-3.6,0.9 -4.7,0.5 -6.2,-2.5c-0.6,0.5 -1.2,0.9 -1.9,1.3c-2.6,1.7 -5.4,2.3 -8.5,1.3c-2.1,-0.6 -3.4,-1.9 -4.1,-4c-1.5,-4.8 0.7,-8.9 5.6,-10c1.9,-0.4 3.9,-0.6 5.9,-0.8c1.4,-0.1 2.5,-0.4 2.9,-2c0.4,-1.6 -0.2,-3.4 -1.6,-4.2c-2.7,-1.6 -7.7,-1.4 -8.4,3c0,0.2 -0.2,0.4 -0.3,0.7c-0.5,0 -1.1,0.1 -1.6,0.1c-0.5,0 -1.1,-0.1 -1.6,-0.2c-0.3,-3.6 1.7,-7.1 6.3,-7.8c1.8,-0.3 3.8,-0.2 5.7,0.2c3.5,0.8 5.1,2.9 5.2,6.5c0.1,1.8 0,3.7 0,5.5c0,2.4 0,4.8 0,7.2c0,1 0.2,1.9 0.3,2.9Zm-4,-9c-2.8,0.6 -5.5,1.1 -8.1,1.7c-0.5,0.1 -0.9,0.4 -1.3,0.6c-1.4,0.9 -1.5,2.3 -1.3,3.8c0.2,1.4 0.8,2.4 2.1,2.9c3.7,1.3 8.1,-1.4 8.6,-5.3c0.1,-1.2 0,-2.4 0,-3.7Z" style="fill:#ffd700;fill-opacity:0.894118;fill-rule:nonzero;"/><path d="M46.968,171.407c-1.4,0 -2.4,0 -3.8,0l0,-15.7c0,-0.8 0,-1.6 -0.1,-2.4c-0.3,-2.2 -1.8,-3.4 -4,-3.4c-2.8,-0.1 -5.2,1.5 -5.9,4.3c-0.4,1.4 -0.5,2.8 -0.5,4.3c-0.1,4.2 0,8.5 0,12.9c-1.3,0 -2.4,0 -3.7,0c0,-11 0,-22.1 0,-33.5c1.1,-0.1 2.3,-0.1 3.7,-0.2c0,4 0,7.8 0,12.1c0.8,-0.8 1.2,-1.2 1.7,-1.6c4.2,-4.1 10.8,-2.2 12.3,3.4c0.2,0.6 0.3,1.3 0.3,1.9c0,5.2 0,10.4 0.1,15.6c-0.1,0.7 -0.1,1.4 -0.1,2.3Z" style="fill:#ffd700;fill-opacity:0.894118;fill-rule:nonzero;"/><path d="M170.068,159.307c-2.2,1.6 -3.4,3.3 -3.1,6c0.2,2 0,4 0,6.1c-1.2,0 -2.3,0 -3.6,0c0,-11.1 0,-22.3 0,-33.5c1.1,0 2.1,0 3.5,0c0,2 0,4.1 0.1,6.1l0,12.8c0.6,-0.5 1.1,-0.8 1.4,-1.1c2.1,-2.2 4.3,-4.3 6.1,-6.7c1.7,-2.2 3.7,-2.5 6.5,-1.9c-2.8,3.1 -5.4,6 -8.2,9c3,5.1 5.8,10.1 8.8,15.2c-0.5,0.1 -0.7,0.2 -1,0.3c-3.7,0.2 -3.7,0.2 -5.5,-3.1c-1.5,-3 -3.2,-6 -5,-9.2Z" style="fill:#ffd700;fill-opacity:0.894118;fill-rule:nonzero;"/><path d="M158.968,159.207c-0.1,2.7 -0.6,5.2 -1.8,7.6c-1.8,3.5 -4.8,5.1 -8.6,5.1c-3.8,0 -6.8,-1.7 -8.5,-5.2c-2.4,-5.1 -2.3,-10.4 0.1,-15.5c1.7,-3.5 4.7,-5.2 8.5,-5.2c3.7,0 6.6,1.8 8.3,5.1c1.4,2.6 1.9,5.3 2,8.1Zm-3.6,0.3c-0.3,-2.3 -0.6,-4.4 -1.6,-6.3c-1.1,-2.1 -2.7,-3.4 -5.1,-3.4c-2.5,0 -4.3,1.3 -5.2,3.5c-1.7,3.9 -1.7,7.9 0.1,11.8c1,2.2 2.8,3.3 5.1,3.3c2.4,0 4.2,-1.1 5.1,-3.3c0.7,-1.7 1.1,-3.7 1.6,-5.6Z" style="fill:#ffd700;fill-opacity:0.894118;fill-rule:nonzero;"/><path d="M72.968,228.407c-0.5,-1.6 -0.3,-2.8 1.2,-3.6c1.3,-0.7 2,-2.1 2,-3.6c0,-4.5 0,-8.9 0,-13.5c-1.1,-0.1 -2.1,-0.3 -3.2,-0.4c0,-0.9 0,-1.8 0,-2.8c2.6,0 5.1,0 7.9,0c0,0.9 0.1,1.6 0.1,2.4c0,4.1 0,8.1 0,12.2c0,4.2 1.6,5.8 5.8,5.8l22.3,0c0,1.1 0,2 0,2.9c-0.6,0.1 -1.1,0.2 -1.7,0.2c-7,0 -14.1,0 -21.1,0c-2.6,0 -5.1,-0.4 -7,-2.8c-1.7,1.5 -3.7,2.9 -6.3,3.2Z" style="fill:#ffd700;fill-opacity:0.894118;fill-rule:nonzero;"/><path d="M208.268,146.907c1.1,0 2.1,0 3.3,0c0.1,0.7 0.2,1.5 0.3,2.5c0.5,-0.4 0.9,-0.7 1.2,-1c2.4,-2.4 5.2,-3 8.4,-1.9c3,1.1 4.3,3.4 4.6,6.4c0.2,1.8 0.1,3.7 0.2,5.5l0,12.9c-1.3,0 -2.3,0 -3.5,0c0,-0.7 -0.1,-1.4 -0.1,-2.1c0,-4.3 0,-8.6 0,-12.9c0,-1.1 -0.1,-2.2 -0.4,-3.3c-0.7,-2.4 -2.7,-3.6 -5.2,-3.1c-2.6,0.5 -4.3,2.4 -4.8,5.3c-0.2,1.3 -0.2,2.5 -0.2,3.8c0,4 0,8 0,12.2c-1.3,0 -2.4,0 -3.7,0c-0.1,-7.9 -0.1,-16 -0.1,-24.3Z" style="fill:#ffd700;fill-opacity:0.894118;fill-rule:nonzero;"/><path d="M126.168,171.407c-1.6,0 -2.7,0 -4.2,0c0,-9.9 0,-19.7 0,-29.8c-3.5,0 -6.7,0 -10.1,0c0,-1.3 0,-2.4 0,-3.5c1.7,-0.5 19.7,-0.7 24.3,-0.2c0,1.1 0,2.3 0,3.7c-3.2,0 -6.5,0 -10,0c0,10 0,19.8 0,29.8Z" style="fill:#ffd700;fill-opacity:0.894118;fill-rule:nonzero;"/><path d="M52.468,196.807c-0.6,1.7 0.3,1.9 1.4,1.9l14.1,0c0,2 0,3.9 0,6c-1.4,0 -2.9,0 -4.5,0c-0.1,-1 -0.2,-1.8 -0.2,-2.7c-1.7,-0.5 -21.8,-0.6 -25,-0.2c-0.1,0.9 -0.2,1.8 -0.4,2.8c-0.6,0.1 -1.1,0.2 -1.7,0.2c-0.9,0 -1.7,0 -2.8,0c0,-2.1 0,-4 0,-6.1c4.5,0 8.9,0 13.6,0c0,-2.3 0,-4.2 0,-6.4c1.7,0 3.2,0 4.8,0c0.2,0.5 0.4,1.1 0.7,1.9c4.3,0 8.7,0 13.2,0c0,0.9 0,1.6 0,2.6c-4.5,0 -8.9,0 -13.2,0Z" style="fill:#ffd700;fill-opacity:0.894118;fill-rule:nonzero;"/><path d="M140.368,213.507c-6,0 -11.6,0 -17.5,0c0,2.7 0,5.4 0,8.2c-1.8,0 -3.3,0 -5,0c-0.2,-3.7 -0.1,-7.4 -0.1,-11.3c9.2,0 18.2,0 27.4,0c0,3.7 0,7.4 0,11.3c-1.5,0 -3,0 -4.8,0c0,-2.8 0,-5.4 0,-8.2Z" style="fill:#ffd700;fill-opacity:0.894118;fill-rule:nonzero;"/><path d="M129.168,215.207c1.6,0 3.2,0 4.9,0c0.1,0.5 0.2,1 0.2,1.4c-0.2,2.6 1.2,4.2 3.2,5.5c2.8,1.7 5.9,2.4 9,3.1c0.8,0.2 1.6,0.3 2.5,0.5c0,0.9 0,1.7 0,2.8c-6.1,-0.5 -11.9,-1.6 -17.2,-5c-5.3,3.6 -11.4,4.5 -17.8,5.1c0,-1.1 0,-2 0,-3c1.4,-0.3 2.8,-0.4 4.2,-0.8c2.3,-0.6 4.6,-1.3 6.8,-2.2c2.7,-1.2 4.3,-3.2 4.1,-6.4c-0.1,-0.3 0,-0.6 0.1,-1Z" style="fill:#ffd700;fill-opacity:0.894118;fill-rule:nonzero;"/><path d="M76.768,146.907c1.1,0 2.1,0 3.3,0c0.1,1 0.2,1.9 0.3,3c4.4,-4.1 4.4,-4.1 7.1,-3.5c0,1.3 0,2.6 0,4c-0.5,0.1 -0.8,0.2 -1.2,0.2c-4,0.2 -5.8,3.1 -5.8,6.3l0,14.3c-1.3,0 -2.4,0 -3.7,0c0,-7.9 0,-16 0,-24.3Z" style="fill:#ffd700;fill-opacity:0.894118;fill-rule:nonzero;"/><path d="M122.468,209.407c0,-1 0,-1.6 0,-2.2c0.2,-0.2 0.4,-0.3 0.6,-0.4c1.7,-0.6 3.5,-1 5.2,-1.7c2.8,-1.1 5,-2.9 5,-6.4c1.6,0 3.1,0 4.7,0c0.3,4.4 3.6,5.9 7.2,7.1c1.3,0.5 2.7,0.8 4.2,1.3c0,0.8 0,1.5 0,2.4c-5,-0.2 -9.6,-1.5 -13.7,-4.5c-3.8,2.9 -8.2,4.1 -13.2,4.4Z" style="fill:#ffd700;fill-opacity:0.894118;fill-rule:nonzero;"/><path d="M123.168,201.207c-0.4,-1.5 -0.4,-2.5 1,-3.2c2.3,-1.2 3.5,-3.2 4.2,-5.7c1.5,0 2.9,0 4.4,0c0,0.6 -0.1,1.2 -0.1,2.1c5.1,0 10.2,0 15.4,0c0,2.3 0,4.4 0,6.7c-1.3,0 -2.6,0 -4.1,0c-0.1,-1.1 -0.2,-2.2 -0.3,-3.5c-0.8,-0.1 -1.5,-0.1 -2.1,-0.2c-3.1,0 -6.2,0 -9.3,0c-1,0 -1.8,0.2 -2.6,0.9c-1.9,1.5 -4,2.3 -6.5,2.9Z" style="fill:#ffd700;fill-opacity:0.894118;fill-rule:nonzero;"/><path d="M118.268,209.307c-1.6,0 -3.1,0 -4.6,0c1.4,-3 2.7,-5.9 4.1,-9c1,0 2.2,0 3.3,0c0.3,2.6 -0.7,5.7 -2.8,9Z" style="fill:#ffd700;fill-opacity:0.894118;fill-rule:nonzero;"/><path d="M81.868,201.007c-1.6,0 -3,0 -4.3,0c-0.1,-0.2 -0.3,-0.3 -0.3,-0.4c-0.7,-2.3 -1.4,-4.7 -2.2,-7.2c1.4,0 2.6,0 4,0c1.4,2.2 2.3,4.7 2.8,7.6Z" style="fill:#ffd700;fill-opacity:0.894118;fill-rule:nonzero;"/><path d="M87.968,213.307c0.8,0 2.1,0 3.3,0c-0.4,4.2 -4.1,8 -8.1,8.6c-0.4,-1.4 -0.1,-2.4 1.1,-3.5c1.4,-1.4 2.3,-3.2 3.7,-5.1Z" style="fill:#ffd700;fill-opacity:0.894118;fill-rule:nonzero;"/><path d="M104.168,213.307c0.7,2.4 1.8,4.2 3.6,5.7c0.7,0.6 0.6,0.7 0.4,2.6c-3.9,-0.5 -7.1,-4 -7.5,-8.4c1.1,0.1 2.2,0.1 3.5,0.1Z" style="fill:#ffd700;fill-opacity:0.894118;fill-rule:nonzero;"/><path d="M122.868,195.607c0,1.9 -1.4,3.5 -3.3,3.6c-2,0.1 -3.7,-1.5 -3.7,-3.6c0,-2 1.5,-3.5 3.4,-3.5c2,0.1 3.6,1.6 3.6,3.5Zm-1.6,0.1c-0.7,-0.6 -1.2,-1.2 -1.9,-1.8c-0.6,0.6 -1.1,1.2 -1.4,1.5c0.5,0.6 1,1.2 1.7,1.9c0.2,-0.2 0.4,-0.5 0.6,-0.7c0.2,-0.2 0.5,-0.5 1,-0.9Z" style="fill:#ffd700;fill-opacity:0.894118;fill-rule:nonzero;"/><path d="M111.568,66.307c-2.5,-6.4 -6.6,-10.6 -13.1,-13.1c6.3,-2.5 10.5,-6.6 13,-13c2.5,6.2 6.6,10.5 13,12.9c-6.1,2.7 -10.4,6.7 -12.9,13.2Z" style="fill:#ffd700;fill-opacity:0.8;fill-rule:nonzero;"/></svg>