<?xml version="1.0" encoding="utf-8"?>
<!-- Generator: Adobe Illustrator 22.1.0, SVG Export Plug-In . SVG Version: 6.00 Build 0)  -->
<svg version="1.1" id="图层_1" xmlns="http://www.w3.org/2000/svg" xmlns:xlink="http://www.w3.org/1999/xlink" x="0px" y="0px"
	 viewBox="0 0 280 310" style="enable-background:new 0 0 280 310;" xml:space="preserve">
<g>
	<path d="M135.6,42.5c-0.1,0.2-0.1,0.3-0.2,0.3c-5.4,3.5-9.8,8.2-14.1,12.9c-0.8,0.8-1.6,1.1-2.7,1c-13.5-0.7-24.1,4.7-31.7,15.7
		c-3.3,4.8-5,10.1-5.7,15.9c-0.2,1.6,0.4,2.5,1.7,3.3c4.3,2.5,9.6,1.9,13.1-1.9c11.1-11.6,22.2-23.3,33.2-34.9
		c8.1-8.6,18.1-13.7,29.6-15.6c21.5-3.5,42.4,6.2,53.9,24.7c19.3,31.1,1.7,72.4-34.1,79.9c-9.9,2.1-19.5,1.5-29-1.9
		c-0.3-0.1-0.6-0.2-0.9-0.3c-0.2-0.1-0.4-0.2-0.7-0.3c0.1-0.2,0.1-0.5,0.3-0.6c5.1-3.3,9.3-7.6,13.3-12c1.2-1.3,2.4-1.7,4.1-1.7
		c17.6,0.6,32.4-10.8,36.1-27.9c0.2-1,0.4-2,0.5-3.1c0.4-2.7,0.2-3.1-2.2-4.3c-4.3-2.2-9.1-1.3-12.7,2.4
		c-11.1,11.6-22.1,23.4-33.2,34.9c-10.9,11.3-24.4,16.6-39.9,16c-24.9-0.9-45.4-18.3-50.2-42.8c-5.9-29.7,13.8-57,41.7-62.5
		c9.5-1.9,18.8-1.3,27.9,1.9c0.5,0.2,1.1,0.4,1.6,0.6C135.2,42.1,135.3,42.3,135.6,42.5z M196.2,72.1c-0.3-0.6-0.5-1-0.8-1.3
		c-1.6-1.8-3.1-3.7-4.9-5.3c-14.6-13.1-36.5-11.1-48.7,2c-10.9,11.7-22,23.2-33,34.8c-5.4,5.7-12.1,8.5-19.8,8.8
		c-0.6,0-1.2,0.1-2,0.2c1.7,2.8,3.8,4.9,6,6.9c14.1,12.4,35.5,11.4,48.3-2.2c11.1-11.7,22.1-23.3,33.2-35c4.5-4.8,10.1-7.5,16.5-8.5
		C192.7,72.4,194.3,72.3,196.2,72.1z"/>
	<path d="M219.1,236.4c0,1.4,0,2.3,0,3.6c-2.3,0-4.6,0-7,0c0,0.9-0.1,1.4,0,1.9c0.8,5.5,2.7,10.5,6.5,14.7c1.4,1.5,1.9,3,1.3,5.2
		c-2.6-1.4-4.6-3.4-6.5-5.5c-2-2.2-3.6-4.7-4.5-7.6c-0.9-2.7-1.5-5.5-2.2-8.5c-0.4,0-1-0.1-1.8-0.2c0,5.6,0,11.1,0,16.9
		c2.3,0,4.5,0,6.9,0c0,1.2,0,2.2,0,3.4c-2.2,0-4.5,0-7.1,0c0,2.4,0,4.5,0,6.8c-1.9,0-3.4,0-5.2,0c0-2.1,0-4.2,0-6.5
		c-2.5,0-4.8,0-7.2,0c0-1.3,0-2.3,0-3.6c2.3,0,4.6,0,7,0c0-5.7,0-11.1,0-16.7c-0.6-0.1-1.1-0.2-2-0.3c-0.8,9.4-4.9,16.6-13,21.9
		c-0.4-2-0.3-3.5,1.1-5c4.2-4.7,6.3-10.3,6.8-16.8c-2.4,0-4.7,0-7,0c0-1.3,0-2.3,0-3.6c4.7,0,9.3,0,14.2,0c0-2,0-3.7,0-5.6
		c1.8,0,3.4,0,5.2,0c0,1.8,0,3.5,0,5.5C209.5,236.4,214.2,236.4,219.1,236.4z"/>
	<path d="M68,266.6c0-4.3,0-8.3,0-12.6c-1.9,0.4-3.5,0.8-5.5,1.3c-0.1-1-0.1-1.9-0.2-2.9c5.3-1.6,10.3-3.6,14.3-7.8
		c-1.8-0.6-3-0.5-4.1,1c-2.3,2.8-5.5,3.6-9.2,4c0-0.8-0.1-1.6-0.1-2c2.6-1.4,5-2.6,7.5-3.9c0.1-0.4,0.2-1,0.4-1.8
		c6.4,0,12.8,0,19.4,0c0.2,0.6,0.3,1.2,0.5,1.9c2.2,1.2,4.5,2.4,7.2,3.8c0,0.3,0,1,0.1,2c-3.7-0.3-7-1.2-9.3-3.9
		c-1.1-1.3-2.2-1.6-4.1-1c4,4.2,8.9,6.2,14.1,7.7c0,1,0,1.9,0,3c-1.7-0.4-3.2-0.8-5.1-1.2c0,1.4-0.1,2.7-0.1,4.1s0.1,2.9,0,4.3
		c-0.2,2.8-1.5,4-4.3,4.1c-2.6,0.1-5.3,0-7.9,0C77.2,266.6,72.8,266.6,68,266.6z M88.9,257.9c-5.4,0-10.7,0-16.2,0
		c0.1,0.8,0.2,1.3,0.2,1.9c5.5,0,10.7,0,16,0C88.9,259.1,88.9,258.6,88.9,257.9z M72.8,255.4c5.5,0,10.7,0,16.1,0c0-0.6,0-1.1,0-1.7
		c-5.4,0-10.7,0-16.1,0C72.8,254.3,72.8,254.8,72.8,255.4z M88.8,262.4c-5.5,0-10.7,0-16,0c-0.3,1.2,0.3,1.4,1.1,1.4
		c4.4,0,8.8,0,13.1,0C87.9,263.8,88.7,263.7,88.8,262.4z M80.8,247c-1.6,1.2-3.1,2.3-4.9,3.6c3.4,0,6.4,0,9.9,0
		C83.8,249.2,82.3,248.1,80.8,247z"/>
	<path d="M30.2,199.2c1.3,0,2.4,0,3.6,0c0.2,0.8,0.4,1.6,0.5,2.4c0.6,2.7,2.3,4.3,4.9,5.1c2.5,0.7,5.1,0.6,7.5-0.3
		c2.4-0.8,3.6-2.5,3.7-5c0.1-2.4-1.1-4-3.2-4.8c-1.9-0.7-4-1.2-6-1.8c-1.5-0.4-3.1-0.7-4.6-1.2c-3.9-1.3-5.8-4.1-5.7-8.2
		c0.2-5.9,3.7-9.6,9.5-10c1.1-0.1,2.2-0.1,3.4,0.1c5.9,0.6,9.3,4.2,9.5,10.4c-1.2,0-2.3,0-3.6,0c-0.1-0.4-0.3-0.9-0.4-1.3
		c-1.4-4.9-8-7.1-12.1-4c-1.8,1.3-2.7,4.7-1.7,6.7c0.6,1.3,1.8,1.7,3.1,2.1c2.7,0.7,5.4,1.3,8.1,2c2,0.5,3.7,1.3,5.2,2.8
		c3.3,3.3,3.6,12.2-2.7,15c-4.3,1.9-8.7,2-13.1,0.6C32,208.3,29.7,204,30.2,199.2z"/>
	<path d="M120.2,261.5c0-1.1,0-2,0-2.8c0.2-0.1,0.4-0.3,0.5-0.3c3-0.3,3-0.3,3-3.3c0-1.5,0-3,0-4.8c-3.5,0-6.7,0-10.1,0
		c0-1.1,0-2,0-3.1c3.2-0.3,6.5,0,9.9-0.2c0-1.1,0-2.2,0-3.6c-2,0-4,0-6.1,0c-0.2-0.8-0.4-1.4-0.6-2.1c-1.2,0.3-2.3,0.7-3.6,1
		c0-1,0-1.8,0-2.7c0.8-0.4,1.7-0.9,2.5-1.3c2.8-1.5,5.3-3.4,6.9-6.1c0.7-1.2,1.6-1.7,2.9-1.5c0.7,0.1,1.4,0,2.2,0
		c0.4,0.1,1,0.2,1.2,0.6c2.5,3.9,6.1,6.4,10.4,8.2c0,1,0,1.8,0,3c-1.4-0.5-2.7-0.9-4-1.4c-0.2,0.7-0.4,1.2-0.6,2.1c-1.8,0-3.8,0-6,0
		c0,1.3,0,2.4,0,3.8c3.2,0,6.3,0,9.6,0c0,1.2,0,2.1,0,3.2c-3.2,0-6.3,0-9.6,0c-0.1,0.8-0.2,1.4-0.2,2c0,1.8,0,3.5-0.1,5.3
		c-0.2,2.5-1.4,3.8-3.9,4C123.2,261.5,121.8,261.5,120.2,261.5z M119.9,240.3c2.4,0,4.3,0,6.2,0c1.9,0,3.9,0,6.2-0.1
		c-2.4-1.8-4.3-3.3-6.2-4.7C124.2,237,122.3,238.4,119.9,240.3z"/>
	<path d="M123.7,208c0,3.8,0,7.5,0,11.3c-1.2,0-2.3,0-3.4,0c-0.5-1.7-0.7-27.4-0.3-33.9c1-0.1,2.1-0.1,3.3-0.2
		c0.1,1,0.2,1.7,0.4,2.7c0.4-0.3,0.6-0.5,0.9-0.7c3.7-3.9,9.2-3.5,12.4,0.9c1.4,1.9,2,4.2,2.3,6.5c0.5,3.9,0,7.7-1.8,11.2
		c-2,3.9-6.4,5.6-10.4,4.2C126.1,209.6,125.1,208.8,123.7,208z M123.4,198.1c0.2,2.2,0.4,4.2,1.4,6.1c1.1,2,2.8,3,5.1,3
		c2.2,0,3.6-1.2,4.5-3.1c1.7-3.9,1.9-7.9,0.5-11.9c-0.9-2.5-2.9-3.8-5.3-3.8c-2.4,0.1-4.1,1.4-4.8,3.6
		C124.1,194.1,123.8,196.1,123.4,198.1z"/>
	<path d="M217.8,199.1c-0.1,4.5,1.4,7.1,4.3,7.9c3.5,0.9,5.9-0.5,7.9-4.6c1.1,0,2.3,0,3.4,0c-0.5,4.3-3.4,7.8-8.4,8
		c-6.3,0.3-10.2-2.8-11.2-9c-0.6-3.7-0.2-7.3,1.2-10.8c1.6-3.9,4.6-5.9,8.7-6.1c3.6-0.2,6.3,1.4,8.1,4.5c1.7,3,1.9,6.3,2.2,10
		C228.5,199.1,223.2,199.1,217.8,199.1z M217.9,195.5c2.3,0.5,10.3,0.4,12-0.1c-0.3-4.4-2.6-7.1-6-6.9
		C220.4,188.6,217.9,191.5,217.9,195.5z"/>
	<path d="M100.2,207c0.9,0.1,1.5,0.2,2.3,0.3c0,0.9,0,1.7,0,2.5c-3.6,0.9-4.7,0.5-6.2-2.5c-0.6,0.5-1.2,0.9-1.9,1.3
		c-2.6,1.7-5.4,2.3-8.5,1.3c-2.1-0.6-3.4-1.9-4.1-4c-1.5-4.8,0.7-8.9,5.6-10c1.9-0.4,3.9-0.6,5.9-0.8c1.4-0.1,2.5-0.4,2.9-2
		s-0.2-3.4-1.6-4.2c-2.7-1.6-7.7-1.4-8.4,3c0,0.2-0.2,0.4-0.3,0.7c-0.5,0-1.1,0.1-1.6,0.1s-1.1-0.1-1.6-0.2
		c-0.3-3.6,1.7-7.1,6.3-7.8c1.8-0.3,3.8-0.2,5.7,0.2c3.5,0.8,5.1,2.9,5.2,6.5c0.1,1.8,0,3.7,0,5.5c0,2.4,0,4.8,0,7.2
		C99.9,205.1,100.1,206,100.2,207z M96.2,198c-2.8,0.6-5.5,1.1-8.1,1.7c-0.5,0.1-0.9,0.4-1.3,0.6c-1.4,0.9-1.5,2.3-1.3,3.8
		c0.2,1.4,0.8,2.4,2.1,2.9c3.7,1.3,8.1-1.4,8.6-5.3C96.3,200.5,96.2,199.3,96.2,198z"/>
	<path d="M77.1,209.9c-1.4,0-2.4,0-3.8,0c0-0.9,0-1.7,0-2.5c0-4.4,0-8.8,0-13.2c0-0.8,0-1.6-0.1-2.4c-0.3-2.2-1.8-3.4-4-3.4
		c-2.8-0.1-5.2,1.5-5.9,4.3c-0.4,1.4-0.5,2.8-0.5,4.3c-0.1,4.2,0,8.5,0,12.9c-1.3,0-2.4,0-3.7,0c0-11,0-22.1,0-33.5
		c1.1-0.1,2.3-0.1,3.7-0.2c0,4,0,7.8,0,12.1c0.8-0.8,1.2-1.2,1.7-1.6c4.2-4.1,10.8-2.2,12.3,3.4c0.2,0.6,0.3,1.3,0.3,1.9
		c0,5.2,0,10.4,0.1,15.6C77.1,208.3,77.1,209,77.1,209.9z"/>
	<path d="M200.2,197.8c-2.2,1.6-3.4,3.3-3.1,6c0.2,2,0,4,0,6.1c-1.2,0-2.3,0-3.6,0c0-11.1,0-22.3,0-33.5c1.1,0,2.1,0,3.5,0
		c0,2,0,4.1,0.1,6.1c0,2.1,0,4.2,0,6.2c0,2.1,0,4.1,0,6.6c0.6-0.5,1.1-0.8,1.4-1.1c2.1-2.2,4.3-4.3,6.1-6.7c1.7-2.2,3.7-2.5,6.5-1.9
		c-2.8,3.1-5.4,6-8.2,9c3,5.1,5.8,10.1,8.8,15.2c-0.5,0.1-0.7,0.2-1,0.3c-3.7,0.2-3.7,0.2-5.5-3.1C203.7,204,202,201,200.2,197.8z"
		/>
	<path d="M189.1,197.7c-0.1,2.7-0.6,5.2-1.8,7.6c-1.8,3.5-4.8,5.1-8.6,5.1s-6.8-1.7-8.5-5.2c-2.4-5.1-2.3-10.4,0.1-15.5
		c1.7-3.5,4.7-5.2,8.5-5.2c3.7,0,6.6,1.8,8.3,5.1C188.5,192.2,189,194.9,189.1,197.7z M185.5,198c-0.3-2.3-0.6-4.4-1.6-6.3
		c-1.1-2.1-2.7-3.4-5.1-3.4c-2.5,0-4.3,1.3-5.2,3.5c-1.7,3.9-1.7,7.9,0.1,11.8c1,2.2,2.8,3.3,5.1,3.3c2.4,0,4.2-1.1,5.1-3.3
		C184.6,201.9,185,199.9,185.5,198z"/>
	<path d="M103.1,266.9c-0.5-1.6-0.3-2.8,1.2-3.6c1.3-0.7,2-2.1,2-3.6c0-4.5,0-8.9,0-13.5c-1.1-0.1-2.1-0.3-3.2-0.4
		c0-0.9,0-1.8,0-2.8c2.6,0,5.1,0,7.9,0c0,0.9,0.1,1.6,0.1,2.4c0,4.1,0,8.1,0,12.2c0,4.2,1.6,5.8,5.8,5.8c6.5,0,13.1,0,19.6,0
		c0.9,0,1.7,0,2.7,0c0,1.1,0,2,0,2.9c-0.6,0.1-1.1,0.2-1.7,0.2c-7,0-14.1,0-21.1,0c-2.6,0-5.1-0.4-7-2.8
		C107.7,265.2,105.7,266.6,103.1,266.9z"/>
	<path d="M238.4,185.4c1.1,0,2.1,0,3.3,0c0.1,0.7,0.2,1.5,0.3,2.5c0.5-0.4,0.9-0.7,1.2-1c2.4-2.4,5.2-3,8.4-1.9
		c3,1.1,4.3,3.4,4.6,6.4c0.2,1.8,0.1,3.7,0.2,5.5c0,3.5,0,7,0,10.5c0,0.8,0,1.6,0,2.4c-1.3,0-2.3,0-3.5,0c0-0.7-0.1-1.4-0.1-2.1
		c0-4.3,0-8.6,0-12.9c0-1.1-0.1-2.2-0.4-3.3c-0.7-2.4-2.7-3.6-5.2-3.1c-2.6,0.5-4.3,2.4-4.8,5.3c-0.2,1.3-0.2,2.5-0.2,3.8
		c0,4,0,8,0,12.2c-1.3,0-2.4,0-3.7,0C238.4,201.8,238.4,193.7,238.4,185.4z"/>
	<path d="M156.3,209.9c-1.6,0-2.7,0-4.2,0c0-9.9,0-19.7,0-29.8c-3.5,0-6.7,0-10.1,0c0-1.3,0-2.4,0-3.5c1.7-0.5,19.7-0.7,24.3-0.2
		c0,1.1,0,2.3,0,3.7c-3.2,0-6.5,0-10,0C156.3,190.1,156.3,199.9,156.3,209.9z"/>
	<path d="M82.6,235.3c-0.6,1.7,0.3,1.9,1.4,1.9c3.8,0,7.5,0,11.3,0c0.9,0,1.7,0,2.8,0c0,2,0,3.9,0,6c-1.4,0-2.9,0-4.5,0
		c-0.1-1-0.2-1.8-0.2-2.7c-1.7-0.5-21.8-0.6-25-0.2c-0.1,0.9-0.2,1.8-0.4,2.8c-0.6,0.1-1.1,0.2-1.7,0.2c-0.9,0-1.7,0-2.8,0
		c0-2.1,0-4,0-6.1c4.5,0,8.9,0,13.6,0c0-2.3,0-4.2,0-6.4c1.7,0,3.2,0,4.8,0c0.2,0.5,0.4,1.1,0.7,1.9c4.3,0,8.7,0,13.2,0
		c0,0.9,0,1.6,0,2.6C91.3,235.3,86.9,235.3,82.6,235.3z"/>
	<path d="M170.5,252c-6,0-11.6,0-17.5,0c0,2.7,0,5.4,0,8.2c-1.8,0-3.3,0-5,0c-0.2-3.7-0.1-7.4-0.1-11.3c9.2,0,18.2,0,27.4,0
		c0,3.7,0,7.4,0,11.3c-1.5,0-3,0-4.8,0C170.5,257.4,170.5,254.8,170.5,252z"/>
	<path d="M159.3,253.7c1.6,0,3.2,0,4.9,0c0.1,0.5,0.2,1,0.2,1.4c-0.2,2.6,1.2,4.2,3.2,5.5c2.8,1.7,5.9,2.4,9,3.1
		c0.8,0.2,1.6,0.3,2.5,0.5c0,0.9,0,1.7,0,2.8c-6.1-0.5-11.9-1.6-17.2-5c-5.3,3.6-11.4,4.5-17.8,5.1c0-1.1,0-2,0-3
		c1.4-0.3,2.8-0.4,4.2-0.8c2.3-0.6,4.6-1.3,6.8-2.2c2.7-1.2,4.3-3.2,4.1-6.4C159.1,254.4,159.2,254.1,159.3,253.7z"/>
	<path d="M106.9,185.4c1.1,0,2.1,0,3.3,0c0.1,1,0.2,1.9,0.3,3c4.4-4.1,4.4-4.1,7.1-3.5c0,1.3,0,2.6,0,4c-0.5,0.1-0.8,0.2-1.2,0.2
		c-4,0.2-5.8,3.1-5.8,6.3c0,3.4,0,6.9,0,10.3c0,1.3,0,2.5,0,4c-1.3,0-2.4,0-3.7,0C106.9,201.8,106.9,193.7,106.9,185.4z"/>
	<path d="M152.6,247.9c0-1,0-1.6,0-2.2c0.2-0.2,0.4-0.3,0.6-0.4c1.7-0.6,3.5-1,5.2-1.7c2.8-1.1,5-2.9,5-6.4c1.6,0,3.1,0,4.7,0
		c0.3,4.4,3.6,5.9,7.2,7.1c1.3,0.5,2.7,0.8,4.2,1.3c0,0.8,0,1.5,0,2.4c-5-0.2-9.6-1.5-13.7-4.5C162,246.4,157.6,247.6,152.6,247.9z"
		/>
	<path d="M153.3,239.7c-0.4-1.5-0.4-2.5,1-3.2c2.3-1.2,3.5-3.2,4.2-5.7c1.5,0,2.9,0,4.4,0c0,0.6-0.1,1.2-0.1,2.1
		c5.1,0,10.2,0,15.4,0c0,2.3,0,4.4,0,6.7c-1.3,0-2.6,0-4.1,0c-0.1-1.1-0.2-2.2-0.3-3.5c-0.8-0.1-1.5-0.1-2.1-0.2c-3.1,0-6.2,0-9.3,0
		c-1,0-1.8,0.2-2.6,0.9C157.9,238.3,155.8,239.1,153.3,239.7z"/>
	<path d="M148.4,247.8c-1.6,0-3.1,0-4.6,0c1.4-3,2.7-5.9,4.1-9c1,0,2.2,0,3.3,0C151.5,241.4,150.5,244.5,148.4,247.8z"/>
	<path d="M112,239.5c-1.6,0-3,0-4.3,0c-0.1-0.2-0.3-0.3-0.3-0.4c-0.7-2.3-1.4-4.7-2.2-7.2c1.4,0,2.6,0,4,0
		C110.6,234.1,111.5,236.6,112,239.5z"/>
	<path d="M118.1,251.8c0.8,0,2.1,0,3.3,0c-0.4,4.2-4.1,8-8.1,8.6c-0.4-1.4-0.1-2.4,1.1-3.5C115.8,255.5,116.7,253.7,118.1,251.8z"/>
	<path d="M134.3,251.8c0.7,2.4,1.8,4.2,3.6,5.7c0.7,0.6,0.6,0.7,0.4,2.6c-3.9-0.5-7.1-4-7.5-8.4C131.9,251.8,133,251.8,134.3,251.8z
		"/>
	<path d="M153,234.1c0,1.9-1.4,3.5-3.3,3.6c-2,0.1-3.7-1.5-3.7-3.6c0-2,1.5-3.5,3.4-3.5C151.4,230.7,153,232.2,153,234.1z
		 M151.4,234.2c-0.7-0.6-1.2-1.2-1.9-1.8c-0.6,0.6-1.1,1.2-1.4,1.5c0.5,0.6,1,1.2,1.7,1.9c0.2-0.2,0.4-0.5,0.6-0.7
		C150.6,234.9,150.9,234.6,151.4,234.2z"/>
	<path d="M141.7,104.8c-2.5-6.4-6.6-10.6-13.1-13.1c6.3-2.5,10.5-6.6,13-13c2.5,6.2,6.6,10.5,13,12.9
		C148.5,94.3,144.2,98.3,141.7,104.8z"/>
</g>
</svg>
