<?xml version="1.0" encoding="UTF-8" standalone="no"?><!DOCTYPE svg PUBLIC "-//W3C//DTD SVG 1.1//EN" "http://www.w3.org/Graphics/SVG/1.1/DTD/svg11.dtd"><svg width="100%" height="100%" viewBox="0 0 320 320" version="1.1" xmlns="http://www.w3.org/2000/svg" xmlns:xlink="http://www.w3.org/1999/xlink" xml:space="preserve" xmlns:serif="http://www.serif.com/" style="fill-rule:evenodd;clip-rule:evenodd;stroke-linejoin:round;stroke-miterlimit:1.41421;"><path d="M0,320c0,-106.7 0,-213.3 0,-320c106.7,0 213.3,0 320,0c0,106.7 0,213.3 0,320c-106.7,0 -213.3,0 -320,0Zm159,-192.6c-16.9,-0.4 -32.4,13.5 -32.8,31.9c-0.4,18.9 14.5,33.7 33.1,33.6c18.1,-0.1 32.7,-14.9 32.6,-32.9c-0.1,-18.1 -14.8,-32.7 -32.9,-32.6Zm-98,32.9c0,9.1 0,18.2 0,27.2c0,2.2 0.8,3.2 3.1,3.2c8.2,0 16.3,0 24.5,0c1.9,0 3,-0.8 3,-2.8c0,-0.8 0.1,-1.7 0.1,-2.5c0,-5.7 0,-5.8 5.7,-5.7c15,0.3 28,-13.3 25.4,-29c-1.9,-11.6 -12,-20.9 -23.8,-21c-11.5,-0.1 -23,0 -34.5,0c-3,0 -3.5,0.4 -3.5,3.5c0,9.1 0,18.1 0,27.1Zm160.2,30.4c11.3,0 22.7,0 34,0c2.9,0 3.8,-1.4 2.3,-4c-1.1,-2 -2.3,-3.9 -3.5,-5.8c-10,-16.5 -19.9,-33.1 -29.9,-49.6c-2.1,-3.5 -3.6,-3.5 -5.6,0c-3.1,5.2 -6.3,10.4 -9.4,15.6c-7.9,13.2 -15.9,26.4 -23.8,39.6c-1.7,2.8 -0.8,4.2 2.4,4.2c11.2,0 22.4,0 33.5,0Z" style="fill:#5b2da4;fill-rule:nonzero;"/></svg>