<?xml version="1.0" encoding="UTF-8" standalone="no"?><!DOCTYPE svg PUBLIC "-//W3C//DTD SVG 1.1//EN" "http://www.w3.org/Graphics/SVG/1.1/DTD/svg11.dtd"><svg width="100%" height="100%" viewBox="0 0 169 169" version="1.1" xmlns="http://www.w3.org/2000/svg" xmlns:xlink="http://www.w3.org/1999/xlink" xml:space="preserve" xmlns:serif="http://www.serif.com/" style="fill-rule:evenodd;clip-rule:evenodd;stroke-linejoin:round;stroke-miterlimit:1.41421;"><g><circle cx="83.8" cy="84.45" r="27.8" style="fill:#fff;"/><path d="M27.4,101.05l3.6,0c11.5,0 21.3,-8.9 21.7,-20.4c0.4,-12 -9.2,-22 -21.2,-22l-29.9,0c-0.9,0.1 -1.6,0.8 -1.6,1.7l0,48.5c0,0.9 0.7,1.6 1.6,1.6l22.5,0c0.9,0 1.6,-0.7 1.6,-1.6l0.1,-6.2c0,-0.9 0.7,-1.6 1.6,-1.6Z" style="fill:#fff;fill-rule:nonzero;"/><path d="M135.9,58.75l-29.8,49.4c-0.5,1.1 0.2,2.3 1.4,2.3l24.4,0.1l35.1,-0.1c1.2,0 2,-1.3 1.4,-2.3l-29.7,-49.4c-0.6,-1.2 -2.2,-1.2 -2.8,0Z" style="fill:#fff;fill-rule:nonzero;"/></g></svg>