<?xml version="1.0" encoding="UTF-8" standalone="no"?><!DOCTYPE svg PUBLIC "-//W3C//DTD SVG 1.1//EN" "http://www.w3.org/Graphics/SVG/1.1/DTD/svg11.dtd"><svg width="100%" height="100%" viewBox="0 0 292 292" version="1.1" xmlns="http://www.w3.org/2000/svg" xmlns:xlink="http://www.w3.org/1999/xlink" xml:space="preserve" xmlns:serif="http://www.serif.com/" style="fill-rule:evenodd;clip-rule:evenodd;stroke-linejoin:round;stroke-miterlimit:1.41421;"><g id="Layer_1-2"><path d="M44.334,133.6c2.008,-2.043 3.604,-4.453 4.7,-7.1c1.059,-2.493 1.613,-5.171 1.63,-7.88c0.005,-2.082 -0.379,-4.148 -1.13,-6.09c-0.766,-1.968 -1.97,-3.736 -3.52,-5.17c-1.753,-1.596 -3.811,-2.821 -6.05,-3.6c-2.805,-0.957 -5.757,-1.414 -8.72,-1.35c-2.334,0.003 -4.66,0.278 -6.93,0.82c-8.5,2 -14.11,5.36 -19,10.15c-1.541,1.461 -2.852,3.147 -3.89,5c-0.915,1.65 -1.403,3.503 -1.42,5.39c-0.039,1.295 0.2,2.584 0.7,3.78c0.432,0.983 1.123,1.83 2,2.45c0.995,0.666 2.114,1.125 3.29,1.35c1.485,0.297 2.996,0.438 4.51,0.42c-0.018,-0.204 -0.094,-0.399 -0.22,-0.56c-0.182,-0.285 -0.336,-0.586 -0.46,-0.9c-0.197,-0.509 -0.351,-1.035 -0.46,-1.57c-0.162,-0.84 -0.235,-1.695 -0.22,-2.55c-0.016,-2.896 0.606,-5.761 1.82,-8.39c1.158,-2.376 2.756,-4.51 4.71,-6.29c1.924,-1.775 4.205,-3.119 6.69,-3.94c2.903,-0.954 5.945,-1.417 9,-1.37c1.592,-0.04 3.174,0.26 4.64,0.88c1.24,0.542 2.331,1.376 3.18,2.43c0.833,1.063 1.448,2.279 1.81,3.58c0.395,1.406 0.59,2.86 0.58,4.32c-0.004,1.519 -0.165,3.034 -0.48,4.52c-0.645,3.084 -1.859,6.021 -3.58,8.66c-0.821,1.271 -1.791,2.439 -2.89,3.48c-1.04,0.98 -2.211,1.812 -3.48,2.47c-1.242,0.645 -2.603,1.03 -4,1.13c-1.396,0.1 2.72,-16.12 5.64,-26.81c-3.94,-3.26 -10.93,-2 -12,0.92c-4.29,11.61 -7.67,33.21 -9.61,42.06c-1.32,6 -5.95,23.72 -5.95,23.72c7.42,0 12.62,-3 14.64,-9.69c2.11,-7 6.59,-27.18 6.59,-27.18l0.44,0c6.535,0.123 12.841,-2.446 17.43,-7.1l0.01,0.01Z" style="fill:url(#_Radial1);fill-rule:nonzero;"/><path d="M262.274,158.68l4.95,-23.19l8.63,0l0.6,-3.1l-8.63,0c0.353,-1.74 0.687,-3.357 1,-4.85c0.313,-1.493 0.61,-2.783 0.89,-3.87c0.127,-0.667 0.253,-1.29 0.38,-1.87c0.13,-0.59 1.8,-6.89 2.18,-8.27c-3,3.78 -13.25,8.18 -13.25,8.18l-2.34,10.69l-2.53,0l-0.64,3.1l2.57,0l-1.46,6.86c-1.6,1.71 -6.07,4.56 -8.3,1.79l0,-0.08c0,-8.233 -3.31,-12.35 -9.93,-12.35c-2.428,-0.042 -4.837,0.442 -7.06,1.42c-2.022,0.914 -3.869,2.173 -5.46,3.72c-1.577,1.542 -2.924,3.304 -4,5.23c-1.076,1.913 -1.973,3.922 -2.68,6c-0.666,1.938 -1.171,3.928 -1.51,5.95c-0.284,1.652 -0.441,3.324 -0.47,5c-0.13,0.32 -0.26,0.65 -0.41,1c-0.363,0.78 -0.827,1.51 -1.38,2.17c-0.485,0.579 -1.076,1.06 -1.74,1.42c-0.647,0.342 -1.368,0.517 -2.1,0.51c-0.847,0.068 -1.692,-0.15 -2.4,-0.62c-0.584,-0.594 -0.867,-1.423 -0.77,-2.25c0.002,-0.411 0.028,-0.822 0.08,-1.23c0.051,-0.43 0.138,-0.855 0.26,-1.27c0.122,-0.415 4.08,-27.83 9.53,-43.32c-6,0.93 -11.8,1.65 -11.8,1.65l-4.08,19.23l0,-0.3c-0.007,-1.117 -0.565,-2.162 -1.49,-2.79c-1.435,-0.868 -3.108,-1.264 -4.78,-1.13c-2.116,-0.061 -4.22,0.335 -6.17,1.16c-1.85,0.837 -3.542,1.987 -5,3.4c-1.498,1.456 -2.793,3.108 -3.85,4.91c-1.092,1.844 -2.009,3.785 -2.74,5.8c-0.712,1.949 -1.254,3.957 -1.62,6c-0.236,1.323 -0.396,2.659 -0.48,4c-0.255,0.873 -0.569,1.729 -0.94,2.56c-0.366,0.83 -0.836,1.61 -1.4,2.32c-0.491,0.622 -1.086,1.153 -1.76,1.57c-0.632,0.387 -1.359,0.592 -2.1,0.59c-2.12,0 -3.4,-1.12 -3.17,-3.32c0.27,-5 2.9,-20.07 6,-30c-4,0.67 -11.27,1.25 -11.27,1.25l-0.83,4.12l0,-0.57c-0.007,-1.117 -0.565,-2.162 -1.49,-2.79c-1.435,-0.868 -3.108,-1.264 -4.78,-1.13c-2.121,-0.024 -4.222,0.409 -6.16,1.27c-1.85,0.837 -3.542,1.987 -5,3.4c-1.498,1.456 -2.793,3.108 -3.85,4.91c-1.092,1.844 -2.009,3.785 -2.74,5.8c-0.712,1.949 -1.254,3.957 -1.62,6c-0.232,1.323 -0.389,2.659 -0.47,4c-0.328,0.887 -0.712,1.752 -1.15,2.59c-1.48,2.64 -3.4,5.52 -5.68,6c-5.28,1.19 -2.73,-4.46 -2.23,-7.34c0.17,-1 0.87,-3.85 0.87,-3.85c0.125,-0.489 0.209,-0.987 0.25,-1.49c0.04,-0.493 0.06,-0.977 0.06,-1.45c0.007,-1.182 -0.165,-2.359 -0.51,-3.49c-0.322,-1.06 -0.856,-2.043 -1.57,-2.89c-0.723,-0.86 -1.633,-1.544 -2.66,-2c-1.188,-0.502 -2.47,-0.748 -3.76,-0.72c-0.868,0.001 -1.732,0.116 -2.57,0.34l17.14,-12l-9.32,1.25l-14.92,11.86l6.18,-29.68l-11.45,1.58c0,0 -2.64,12.87 -5.39,27.81c-0.82,4.45 -1.83,9.14 -2.81,13.35c-0.29,0.988 -0.682,1.943 -1.17,2.85c-0.6,1.07 -2.72,4 -5.41,4c-2.45,0 -3.1,-1.22 -3.14,-2.87c-0.12,-5.89 8.21,-44.27 8.21,-44.27c0,0 -6.78,1 -11.45,1.55c0,0 -2.72,11.36 -5,23.32l0,-0.2c-1.66,2.998 -5.46,4.142 -8.5,2.56c-3.04,-1.582 0,-0.06 0,-0.08c0,-8.233 -3.313,-12.35 -9.94,-12.35c-2.428,-0.042 -4.837,0.442 -7.06,1.42c-2.022,0.914 -3.869,2.173 -5.46,3.72c-1.577,1.542 -2.924,3.304 -4,5.23c-1.076,1.913 -1.973,3.922 -2.68,6c-0.666,1.938 -1.171,3.928 -1.51,5.95c-0.294,1.705 -0.451,3.43 -0.47,5.16c-0.048,1.925 0.267,3.842 0.93,5.65c0.545,1.446 1.426,2.741 2.57,3.78c1.134,0.994 2.477,1.719 3.93,2.12c1.627,0.456 3.311,0.678 5,0.66c2.338,0.008 4.643,-0.548 6.72,-1.62c2.182,-1.137 4.101,-2.722 5.63,-4.65c1.743,-2.206 3.115,-4.682 4.06,-7.33c1.123,-3.115 1.816,-6.368 2.06,-9.67c2.94,1.2 7.21,-0.58 8.06,-2.7l0,-0.2c-1.09,5.642 -1.858,11.341 -2.3,17.07c-0.076,1.426 0.142,2.852 0.64,4.19c0.377,1.071 0.977,2.049 1.76,2.87c0.736,0.75 1.636,1.319 2.63,1.66c1.046,0.359 2.145,0.539 3.25,0.53c0.777,-0.008 1.552,-0.072 2.32,-0.19c0.936,-0.144 1.854,-0.385 2.74,-0.72c1.052,-0.392 2.058,-0.898 3,-1.51c0.74,-0.484 1.433,-1.037 2.07,-1.65c-0.57,2.25 -0.94,3.61 -0.94,3.61l11.14,0l4,-19.11c0.939,-0.783 1.943,-1.486 3,-2.1c0.818,-0.486 1.749,-0.751 2.7,-0.77c0.858,-0.099 1.703,0.287 2.19,1c0.439,0.837 0.646,1.776 0.6,2.72c0,0.427 -0.02,0.88 -0.06,1.36c-0.042,0.496 -0.126,0.988 -0.25,1.47l-0.64,3c-0.281,1.315 -0.432,2.655 -0.45,4c-0.155,2.425 0.742,4.802 2.46,6.52c1.633,1.527 4.063,2.29 7.29,2.29c1.039,-0.025 2.072,-0.166 3.08,-0.42c1.358,-0.355 2.625,-0.993 3.72,-1.87c1.512,-1.22 2.819,-2.676 3.87,-4.31c0.24,-0.36 0.48,-0.74 0.71,-1.14c0.1,0.39 0.21,0.77 0.34,1.13c0.485,1.432 1.269,2.744 2.3,3.85c0.914,0.956 2.042,1.683 3.29,2.12c1.238,0.428 2.54,0.644 3.85,0.64c1.293,0.016 2.579,-0.193 3.8,-0.62c1.109,-0.395 2.159,-0.94 3.12,-1.62c0.924,-0.662 1.773,-1.423 2.53,-2.27c0.741,-0.824 1.435,-1.689 2.08,-2.59c0.117,1.997 0.956,3.885 2.36,5.31c1.447,1.249 3.322,1.89 5.23,1.79c0.76,-0.007 1.519,-0.07 2.27,-0.19c0.894,-0.143 1.769,-0.385 2.61,-0.72c0.988,-0.395 1.928,-0.901 2.8,-1.51c1.042,-0.734 1.986,-1.597 2.81,-2.57c0.795,-0.937 1.507,-1.941 2.13,-3c0.108,0.457 0.241,0.908 0.4,1.35c0.485,1.432 1.269,2.744 2.3,3.85c0.914,0.956 2.042,1.683 3.29,2.12c1.238,0.428 2.54,0.644 3.85,0.64c1.286,0.013 2.565,-0.196 3.78,-0.62c1.119,-0.395 2.178,-0.94 3.15,-1.62c0.93,-0.655 1.779,-1.417 2.53,-2.27c0.727,-0.815 1.395,-1.681 2,-2.59c0.172,3.714 3.275,6.676 6.993,6.676c0.199,0 0.398,-0.009 0.597,-0.026c0.759,-0.004 1.517,-0.054 2.27,-0.15c0.892,-0.114 1.767,-0.329 2.61,-0.64c0.984,-0.366 1.923,-0.842 2.8,-1.42c1.041,-0.693 1.986,-1.52 2.81,-2.46c0.661,-0.749 1.263,-1.548 1.8,-2.39c0.08,0.27 0.16,0.55 0.27,0.8c0.545,1.446 1.426,2.741 2.57,3.78c1.134,0.994 2.477,1.719 3.93,2.12c1.627,0.456 3.311,0.678 5,0.66c2.338,0.008 4.643,-0.548 6.72,-1.62c2.182,-1.137 4.101,-2.722 5.63,-4.65c1.739,-2.191 3.11,-4.65 4.06,-7.28c1.123,-3.115 1.816,-6.368 2.06,-9.67c2.843,0.636 5.821,-0.261 7.84,-2.36l-2.76,12.94c-0.295,1.354 -0.446,2.735 -0.45,4.12c-0.01,1.167 0.135,2.331 0.43,3.46c0.259,1.01 0.721,1.956 1.36,2.78c0.639,0.797 1.463,1.425 2.4,1.83c1.124,0.467 2.334,0.692 3.55,0.66c4.74,0.037 9.297,-1.86 12.61,-5.25c2.004,-2.169 3.272,-4.917 3.62,-7.85c0.348,-2.933 -5.35,5.74 -10.05,5.74c-0.796,0.105 -1.595,-0.191 -2.13,-0.79c-0.385,-0.594 -0.577,-1.293 -0.55,-2c-0.002,-0.404 0.021,-0.809 0.07,-1.21c0.075,-0.502 0.178,-1 0.31,-1.49Zm-203.59,-16.27c-0.469,0.805 -0.698,1.729 -0.66,2.66c-0.017,0.711 0.131,1.415 0.43,2.06c0.335,0.627 0.94,1.066 1.64,1.19c-0.277,2.152 -0.739,4.277 -1.38,6.35c-0.533,1.769 -1.247,3.478 -2.13,5.1c-0.677,1.272 -1.563,2.421 -2.62,3.4c-0.75,0.749 -1.751,1.194 -2.81,1.25c-0.627,0.017 -1.252,-0.071 -1.85,-0.26c-0.511,-0.185 -0.944,-0.538 -1.23,-1c-0.358,-0.582 -0.59,-1.233 -0.68,-1.91c-0.156,-1.039 -0.226,-2.089 -0.21,-3.14c0.014,-1.438 0.141,-2.872 0.38,-4.29c0.261,-1.612 0.615,-3.208 1.06,-4.78c0.448,-1.599 0.996,-3.169 1.64,-4.7c0.586,-1.413 1.295,-2.772 2.12,-4.06c0.668,-1.065 1.49,-2.026 2.44,-2.85c0.734,-0.671 1.686,-1.054 2.68,-1.08c0.445,-0.014 0.887,0.064 1.3,0.23c0.355,0.165 0.651,0.433 0.85,0.77c0.253,0.434 0.433,0.907 0.53,1.4c0.141,0.692 0.228,1.394 0.26,2.1c-0.73,0.332 -1.343,0.875 -1.76,1.56Zm95.72,14.76c-0.216,1.05 -0.59,2.062 -1.11,3c-0.436,0.783 -0.981,1.501 -1.62,2.13c-0.539,0.529 -1.165,0.962 -1.85,1.28c-0.572,0.272 -1.196,0.418 -1.83,0.43c-0.406,-0.003 -0.81,-0.04 -1.21,-0.11c-0.487,-0.092 -0.932,-0.337 -1.27,-0.7c-0.462,-0.515 -0.804,-1.126 -1,-1.79c-0.321,-1.117 -0.463,-2.278 -0.42,-3.44c0.013,-1.373 0.127,-2.743 0.34,-4.1c0.483,-3.176 1.36,-6.28 2.61,-9.24c0.58,-1.403 1.3,-2.743 2.15,-4c0.721,-1.081 1.62,-2.031 2.66,-2.81c0.885,-0.677 1.966,-1.049 3.08,-1.06c0.535,-0.021 1.067,0.089 1.55,0.32c0.388,0.186 0.73,0.456 1,0.79c0.231,0.299 0.403,0.638 0.51,1c0.089,0.275 0.14,0.561 0.15,0.85l-3.74,17.45Zm41.49,0l0,0.42c-0.217,0.996 -0.592,1.952 -1.11,2.83c-0.439,0.743 -0.985,1.416 -1.62,2c-0.545,0.499 -1.17,0.901 -1.85,1.19c-0.555,0.247 -1.153,0.383 -1.76,0.4c-0.406,-0.003 -0.81,-0.04 -1.21,-0.11c-0.487,-0.092 -0.932,-0.337 -1.27,-0.7c-0.462,-0.515 -0.804,-1.126 -1,-1.79c-0.321,-1.117 -0.463,-2.278 -0.42,-3.44c0.013,-1.373 0.127,-2.743 0.34,-4.1c0.483,-3.176 1.36,-6.28 2.61,-9.24c0.58,-1.403 1.3,-2.743 2.15,-4c0.721,-1.081 1.62,-2.031 2.66,-2.81c0.885,-0.677 1.966,-1.049 3.08,-1.06c0.511,-0.019 1.021,0.076 1.49,0.28c0.362,0.165 0.68,0.411 0.93,0.72c0.215,0.269 0.387,0.569 0.51,0.89c0.101,0.257 0.185,0.521 0.25,0.79l-3.78,17.73Zm42.32,-14.79c-0.469,0.805 -0.698,1.729 -0.66,2.66c-0.034,0.732 0.107,1.463 0.41,2.13c0.335,0.627 0.94,1.066 1.64,1.19c-0.277,2.152 -0.739,4.277 -1.38,6.35c-0.533,1.769 -1.247,3.478 -2.13,5.1c-0.68,1.273 -1.569,2.422 -2.63,3.4c-0.75,0.749 -1.751,1.194 -2.81,1.25c-0.627,0.017 -1.252,-0.071 -1.85,-0.26c-0.511,-0.185 -0.944,-0.538 -1.23,-1c-0.358,-0.582 -0.59,-1.233 -0.68,-1.91c-0.156,-1.039 -0.226,-2.089 -0.21,-3.14c0.014,-1.438 0.141,-2.872 0.38,-4.29c0.261,-1.612 0.615,-3.208 1.06,-4.78c0.449,-1.599 0.996,-3.169 1.64,-4.7c0.586,-1.413 1.295,-2.772 2.12,-4.06c0.668,-1.065 1.49,-2.026 2.44,-2.85c0.734,-0.671 1.686,-1.054 2.68,-1.08c0.445,-0.014 0.887,0.064 1.3,0.23c0.355,0.164 0.652,0.433 0.85,0.77c0.253,0.434 0.432,0.907 0.53,1.4c0.141,0.692 0.227,1.394 0.26,2.1c-0.713,0.326 -1.315,0.855 -1.73,1.52l0,-0.03Z" style="fill:url(#_Radial2);fill-rule:nonzero;"/><circle cx="285.124" cy="165.11" r="6.41" style="fill:#d85da1;"/></g><defs><radialGradient id="_Radial1" cx="0" cy="0" r="1" gradientUnits="userSpaceOnUse" gradientTransform="matrix(32.03,0,0,32.03,25.3641,140)"><stop offset="0" style="stop-color:#fff;stop-opacity:1"/><stop offset="1" style="stop-color:#f2f2f2;stop-opacity:1"/></radialGradient><radialGradient id="_Radial2" cx="0" cy="0" r="1" gradientUnits="userSpaceOnUse" gradientTransform="matrix(87.57,0,0,87.57,156.054,142.52)"><stop offset="0" style="stop-color:#fff;stop-opacity:1"/><stop offset="1" style="stop-color:#f2f2f2;stop-opacity:1"/></radialGradient></defs></svg>