<?xml version="1.0" encoding="UTF-8" standalone="no"?><!DOCTYPE svg PUBLIC "-//W3C//DTD SVG 1.1//EN" "http://www.w3.org/Graphics/SVG/1.1/DTD/svg11.dtd"><svg width="100%" height="100%" viewBox="0 0 158 107" version="1.1" xmlns="http://www.w3.org/2000/svg" xmlns:xlink="http://www.w3.org/1999/xlink" xml:space="preserve" xmlns:serif="http://www.serif.com/" style="fill-rule:evenodd;clip-rule:evenodd;stroke-linejoin:round;stroke-miterlimit:1.41421;"><path d="M72.548,4.007c-0.1,0.2 -0.1,0.3 -0.2,0.3c-5.4,3.5 -9.8,8.2 -14.1,12.9c-0.8,0.8 -1.6,1.1 -2.7,1c-13.5,-0.7 -24.1,4.7 -31.7,15.7c-3.3,4.8 -5,10.1 -5.7,15.9c-0.2,1.6 0.4,2.5 1.7,3.3c4.3,2.5 9.6,1.9 13.1,-1.9c11.1,-11.6 22.2,-23.3 33.2,-34.9c8.1,-8.6 18.1,-13.7 29.6,-15.6c21.5,-3.5 42.4,6.2 53.9,24.7c19.3,31.1 1.7,72.4 -34.1,79.9c-9.9,2.1 -19.5,1.5 -29,-1.9c-0.3,-0.1 -0.6,-0.2 -0.9,-0.3c-0.2,-0.1 -0.4,-0.2 -0.7,-0.3c0.1,-0.2 0.1,-0.5 0.3,-0.6c5.1,-3.3 9.3,-7.6 13.3,-12c1.2,-1.3 2.4,-1.7 4.1,-1.7c17.6,0.6 32.4,-10.8 36.1,-27.9c0.2,-1 0.4,-2 0.5,-3.1c0.4,-2.7 0.2,-3.1 -2.2,-4.3c-4.3,-2.2 -9.1,-1.3 -12.7,2.4c-11.1,11.6 -22.1,23.4 -33.2,34.9c-10.9,11.3 -24.4,16.6 -39.9,16c-24.9,-0.9 -45.4,-18.3 -50.2,-42.8c-5.9,-29.7 13.8,-57 41.7,-62.5c9.5,-1.9 18.8,-1.3 27.9,1.9c0.5,0.2 1.1,0.4 1.6,0.6c-0.1,-0.1 0,0.1 0.3,0.3Zm60.6,29.6c-0.3,-0.6 -0.5,-1 -0.8,-1.3c-1.6,-1.8 -3.1,-3.7 -4.9,-5.3c-14.6,-13.1 -36.5,-11.1 -48.7,2c-10.9,11.7 -22,23.2 -33,34.8c-5.4,5.7 -12.1,8.5 -19.8,8.8c-0.6,0 -1.2,0.1 -2,0.2c1.7,2.8 3.8,4.9 6,6.9c14.1,12.4 35.5,11.4 48.3,-2.2c11.1,-11.7 22.1,-23.3 33.2,-35c4.5,-4.8 10.1,-7.5 16.5,-8.5c1.7,-0.1 3.3,-0.2 5.2,-0.4Z" style="fill:#fff;fill-rule:nonzero;"/><path d="M78.648,66.307c-2.5,-6.4 -6.6,-10.6 -13.1,-13.1c6.3,-2.5 10.5,-6.6 13,-13c2.5,6.2 6.6,10.5 13,12.9c-6.1,2.7 -10.4,6.7 -12.9,13.2Z" style="fill:#fff;fill-rule:nonzero;"/></svg>