<?xml version="1.0" encoding="UTF-8" standalone="no"?><!DOCTYPE svg PUBLIC "-//W3C//DTD SVG 1.1//EN" "http://www.w3.org/Graphics/SVG/1.1/DTD/svg11.dtd"><svg width="100%" height="100%" viewBox="0 0 158 158" version="1.1" xmlns="http://www.w3.org/2000/svg" xmlns:xlink="http://www.w3.org/1999/xlink" xml:space="preserve" xmlns:serif="http://www.serif.com/" style="fill-rule:evenodd;clip-rule:evenodd;stroke-linejoin:round;stroke-miterlimit:1.41421;"><g><rect x="-10.5" y="49" width="179" height="60" style="fill:none;"/><path d="M36.455,71.364l-9.215,19.988l-3.68,0l9.698,-21.036c1.136,0.18 2.212,0.534 3.197,1.048Zm-16.117,-11.74l-14.175,30.753c-3.617,-1.677 -6.133,-5.347 -6.133,-9.614c0,-5.848 4.714,-10.59 10.53,-10.59c0,-5.592 4.315,-10.16 9.778,-10.55l0,0.001Zm11.283,10.55l-9.76,21.18l-3.99,0l12.259,-26.594c0.94,1.586 1.492,3.432 1.492,5.413l0.002,0l-0.003,0.001Zm3.63,20.52l6.249,-13.56c0.41,1.133 0.65,2.352 0.65,3.63c0,4.562 -2.877,8.44 -6.9,9.93l0.001,0Zm2.76,-18.333c0.88,0.68 1.64,1.48 2.27,2.39l-7.631,16.549c-0.34,0.033 -0.682,0.052 -1.03,0.052l-2.37,0l8.755,-18.99l0.006,-0.001Zm-16.881,-12.771c1.493,0.006 2.91,0.328 4.196,0.897l-14.23,30.868l-0.535,0c-1.32,0 -2.58,-0.256 -3.75,-0.704l14.319,-31.061Zm8.166,3.96l-12.82,27.802l-4.3,0l14.03,-30.428c1.19,0.668 2.24,1.56 3.09,2.624l0,0.002Zm25.264,22.04c1.167,1.313 2.95,2.3 4.823,2.306c1.756,0.007 2.99,-1.088 2.995,-2.602c0.01,-2.674 -3.795,-3.015 -6.54,-4.66c-1.608,-0.955 -2.89,-2.386 -2.883,-4.733c0.013,-3.71 3.388,-5.84 6.783,-5.82c2.08,0.01 4.01,0.52 5.937,1.98l-2.06,2.97c-0.817,-0.77 -2.19,-1.37 -3.538,-1.38c-1.493,0 -3.163,0.65 -3.17,2.25c-0.01,3.36 9.45,2.35 9.424,9.36c-0.01,3.69 -3.27,6.23 -6.96,6.22c-2.75,-0.01 -5.29,-1.176 -7.39,-3.144l2.59,-2.724l-0.011,-0.023Zm21.965,-2.295l7.788,7.96l-5.123,-0.02l-5.98,-6.258l-0.022,6.238l-3.806,-0.015l0.075,-21.09l3.806,0.013l-0.04,11.348l4.906,-4.64l5.35,0.02l-6.96,6.45l0.006,-0.006Zm11.07,15.102l3.953,-8.57l-6.308,-12.977l4.187,0.016l4.127,8.66l3.865,-8.63l4.01,0.014l-9.86,21.502l-3.98,-0.015l0.006,0Zm28.732,-9.965c-1.677,2.252 -3.788,3.224 -6.452,3.215c-4.392,-0.017 -7.6,-3.355 -7.586,-7.514c0.01,-4.188 3.33,-7.503 7.66,-7.488c2.46,0.01 4.65,1.175 5.96,2.903l-2.71,2.397c-0.76,-1.013 -1.9,-1.73 -3.27,-1.735c-2.2,-0.008 -3.84,1.738 -3.85,3.937c-0.01,2.257 1.59,3.927 3.91,3.935c1.55,0.006 2.78,-0.94 3.4,-1.89l2.92,2.24l0.018,0Zm9.31,-0.293c2.224,0 3.753,-1.74 3.76,-3.91c0.008,-2.17 -1.508,-3.96 -3.732,-3.97c-2.226,-0.01 -3.754,1.77 -3.76,3.94c-0.01,2.17 1.506,3.92 3.732,3.93m0.04,-11.44c4.303,0.01 7.542,3.38 7.527,7.54c-0.015,4.16 -3.276,7.47 -7.58,7.46c-4.303,-0.02 -7.54,-3.36 -7.526,-7.518c0.014,-4.16 3.276,-7.506 7.58,-7.49m14.525,14.76l-3.806,-0.016l0.05,-14.404l3.807,0.015l-0.05,14.405l-0.001,0Zm-1.825,-21.99c1.376,0.004 2.484,1.08 2.48,2.474c-0.005,1.4 -1.122,2.46 -2.498,2.46c-1.375,-0.006 -2.484,-1.08 -2.48,-2.476c0.006,-1.396 1.122,-2.46 2.498,-2.456l0,-0.002Zm5.514,22.004l0.05,-14.404l3.66,0.014l-0.004,1.16c1.087,-0.886 2.435,-1.445 4.016,-1.44c1.96,0.008 3.744,0.905 4.91,2.336c0.933,1.13 1.455,2.59 1.446,5.055l-0.025,7.34l-3.807,-0.013l0.027,-7.635c0.006,-1.423 -0.314,-2.17 -0.84,-2.703c-0.495,-0.51 -1.255,-0.81 -2.133,-0.81c-1.61,-0.01 -2.93,1.03 -3.46,1.77l-0.034,9.356l-3.806,-0.013l0,-0.013Z" style="fill:#f8f9f9;"/></g></svg>